<svg xmlns="http://www.w3.org/2000/svg" viewBox="0 0 1818.52 1740.53"><defs><style>.cls-1{fill:#f3f3f3;}.cls-2{fill:#282828;}.cls-3{opacity:0.2;}.cls-4{fill:#3f3f3f;}.cls-5{fill:#fff;}.cls-6{fill:#371a45;}.cls-7{fill:#303030;}.cls-8{fill:#1e1e1e;}.cls-9{opacity:0.5;}.cls-10{fill:#02daff;}</style></defs><g id="Capa_2" data-name="Capa 2"><g id="Layer_1" data-name="Layer 1"><path class="cls-1" d="M797.17,1515.1s-25.34,24.27-60.53,52c-51.21,40.35-123.24,88-168.51,78.9-21-4.19-41.28-20.66-59.74-42.3C459.7,1546.49,424,1453,424,1453l-24.22-11.89a55.35,55.35,0,0,1-24.07-23.29c-8.63-16.09-22.37-44.45-37-85.82-24.37-68.91-23.15-126.41-23.15-126.41l30.07-155.12s65-50.33,90.93-61.3,162.48,32.07,170.57,44.54S797.17,1515.1,797.17,1515.1Z"/><path class="cls-2" d="M579.7,1661.66a73.13,73.13,0,0,1-14.43-1.36c-76.63-15.37-139.2-162.34-152.84-196.66l-19.11-9.42a69.14,69.14,0,0,1-30.48-29.46c-9.13-16.94-23.11-45.94-37.92-87.85-25-70.64-24-129.18-24-131.63A14.61,14.61,0,0,1,315.55,1191h.31a14.61,14.61,0,0,1,14.3,14.91h0c0,.55-.77,55.94,22.32,121.28,14.19,40.15,27.47,67.71,36.1,83.75A40.11,40.11,0,0,0,406.25,1428l24.19,11.93a14.64,14.64,0,0,1,7.2,7.89C455.73,1495.13,515,1620.38,571,1631.63c53.44,10.72,162.79-77.77,209-120.44-69.86-180-172.5-442.51-184.71-468.57C575.71,1028.8,460,996,442.22,1002.67c-19.83,8.37-70,45.71-87.66,59.4A14.62,14.62,0,0,1,336.65,1039c6.81-5.27,67.26-51.85,94.24-63.23,15.12-6.38,49.32-2,101.67,12.9,28.72,8.19,78.2,23.91,86.81,37.11,8.31,12.74,148.64,373.73,191.44,484.07a14.61,14.61,0,0,1-3.51,15.85C792,1540.27,662.7,1661.65,579.7,1661.66Z"/><path class="cls-1" d="M1792,1527.78c-5.55,5.45-12.72,12.28-21,20-45,41.66-125.87,109.45-192.1,127.23a39,39,0,0,1-33.87-6.77c-31.14-23.78-106.09-87.23-157.31-181.14-1.26-2.29-2.48-4.58-3.7-6.92,0,0-70.71,7.85-150.73,9.56-3.31.09-6.72.14-10.09.19l7.51-316.56s4.63.19,12.72.78c45.46,3.07,200.09,17.69,253.89,74.56,63.35,67,136.45,175,136.45,175s147.32-98.24,169.83,70.76A39.43,39.43,0,0,1,1792,1527.78Z"/><path class="cls-1" d="M1527.76,694.36S1312.17,975,1083.91,989.19c-218.13,13.6-45.37-217.2-29.68-237.71l1.17-1.47,126.85-42.25s128.65-36.89,184.69-163.44c-13.4-70.62,29.83-98.3,86.5-54.63,20.23-18.13,43.81-22.47,65.45-16.57C1582.39,490.22,1629.46,594.46,1527.76,694.36Z"/><g class="cls-3"><path class="cls-4" d="M1527.76,694.36S1312.17,975,1083.91,989.19c-218.13,13.6-45.37-217.2-29.68-237.71,24.46,9.06,49.85,28,73.39,59.84,104.53,141.27,307.55-179.09,307.55-179.09,110-21.78,89.32-135.28,83.72-159.11C1582.39,490.22,1629.46,594.46,1527.76,694.36Z"/></g><path class="cls-2" d="M1066.48,1004.37c-50.16,0-83.1-14.39-98-42.87-38.18-72.86,63.71-205.65,75.46-220.55a14.62,14.62,0,1,1,23,18.1c-28.64,36.38-97.51,141.23-72.52,188.88,10.85,20.68,40.6,29.63,88.66,26.67,218.89-13.63,431-286.39,433.16-289.15a16,16,0,0,1,1.34-1.52c70-68.74,64.72-139.65,30.19-176.45-21-22.34-55.22-33.15-84.5-6.9a14.63,14.63,0,0,1-18.68.69c-21.33-16.44-41-22-52.54-14.91s-15.78,28.35-10.67,55.25a14.65,14.65,0,0,1-1,8.64c-58.14,131.27-188.5,170-194,171.57a14.63,14.63,0,0,1-8.09-28.11h0c1.21-.35,120.16-36,173.56-151.3-6.13-38,2.84-67.4,24.91-81,20.44-12.57,47.85-8.85,76.36,10,36.06-24.87,83.18-18.92,116,16.05,43.82,46.7,52.93,134.31-30.3,216.6-15.53,20-225.59,285.49-453.9,299.7Q1075.31,1004.37,1066.48,1004.37Z"/><path class="cls-2" d="M1393.5,838.46c-27.33,0-51.42-8.71-71.76-26-57-48.35-63.29-147.25-63.53-151.43a14.62,14.62,0,1,1,29.19-1.69c.08,1.41,6.06,90.83,53.32,130.88,17.75,15,38.74,21.07,64.12,18.37a14.62,14.62,0,0,1,3.08,29.08A139.33,139.33,0,0,1,1393.5,838.46Z"/><path class="cls-1" d="M1220.45,1489.08c-1.85,4.29-3.8,8.63-5.79,13l-42.25,138.06c-17.65,65.35-95.57,122.12-183.14,57-5-3.7-10-7.8-15-12.28l-66.61-91.37S729,1610.91,638,1485.87c-89-122.42-132.94-296.2-153.07-393.37-.43-2.09-.82-4.19-1.26-6.24,0,0-75.54,18.67-115.74,43s-109.65,207.12-109.65,207.12q46.13,95.61-58.09,75.53c-58.67,73.44-135,41.28-168.56-17.69-12.72-22.27-19.3-48.39-16.52-74.07.05-.59.15-1.17.2-1.76a103.51,103.51,0,0,1,3-14.91S98.7,1092.75,222.13,957.9,498.3,811.32,498.3,811.32l579.18,30.07s-13.26,47.9,43.66,144.15C1177.13,1080.17,1328.83,1236.07,1220.45,1489.08Z"/><path class="cls-2" d="M782.72,1338.13c-59.55,0-104.09-129.47-131.4-241a48.53,48.53,0,0,1,28-56.21c56.83-24.61,208.42-85.5,388.18-119.29a44.85,44.85,0,0,1,49.76,26.43c17.91,41.61,49.76,121.33,62,187.72a56.06,56.06,0,0,1-21.76,54.7c-30.21,22.47-99.56,64.34-224.56,92.39a14.61,14.61,0,0,1-6.4-28.52c119.72-26.87,185.16-66.25,213.51-87.34a26.6,26.6,0,0,0,10.45-25.93c-11.71-63.58-42.68-141-60.1-181.46a15.76,15.76,0,0,0-17.5-9.25c-176.86,33.24-326,93.16-382,117.38a19.37,19.37,0,0,0-11.19,22.42c38.45,157,81.72,223.29,105.59,218.42a14.62,14.62,0,1,1,5.8,28.66A42.43,42.43,0,0,1,782.72,1338.13Z"/><path class="cls-2" d="M1067.3,1740.53c-34.35,0-69.91-15.32-102.81-44.8a14.85,14.85,0,0,1-2.06-2.28l-61.84-84.85c-37.94,1.93-190.07,1.82-274.41-114.15-65.56-90.13-118.56-224.77-153.67-390.07-23.45,6.59-69.54,20.78-97,37.42-25.44,15.42-74.61,124.73-101.36,194,15.62,34.57,17,59.5,4.23,76.1-12.51,16.28-36.25,21.49-72.41,15.84-36.87,41.47-85,52.55-130.22,29.46C20.11,1428.82-12,1358.1,4.2,1299.61c.13-.45.27-.88.43-1.31,3.32-8.71,82.82-214.92,206.74-350.25,125.9-137.51,279.34-150.8,285.81-151.29a14.75,14.75,0,0,1,1.88,0l579.16,30.06a14.62,14.62,0,0,1,13.39,18.28c-.27,1.21-9.53,45.72,42.13,133,7.8,13.18,17.82,28,28.44,43.8,68.31,101.34,171.51,254.43,66.17,485.4l-41.95,137.16c-11.68,43.2-45.85,79.27-86.91,91.43A113.26,113.26,0,0,1,1067.3,1740.53ZM985.14,1675c35.65,31.5,72.28,42.87,106.05,32.88,31.55-9.34,57.9-37.4,67.12-71.49l42.37-138.53a15.44,15.44,0,0,1,.69-1.82c99.17-216.55,1.31-361.71-63.44-457.77-10.86-16.11-21.12-31.33-29.36-45.25-40.7-68.78-47.37-114.5-47.16-137.79L498.6,826c-12,1.23-152.45,18.15-265.67,141.8C116.17,1095.31,37.21,1295.21,32.2,1308.08c-13.75,51.12,18.7,103.63,56.86,123.12,20.45,10.45,60.58,20.62,99.74-28.39a14.62,14.62,0,0,1,14.17-5.23c39,7.48,49.53.08,52.24-3.46s7.16-15.6-10.08-51.36a14.59,14.59,0,0,1-.5-11.55c11.89-31.3,73.37-188.75,115.73-214.42,41.63-25.23,116.63-44,119.8-44.73A14.61,14.61,0,0,1,498,1083.33c34.22,168.18,86.72,304.4,151.82,393.92,85.07,117,254.7,101.84,256.4,101.66a14.75,14.75,0,0,1,13.24,5.94Z"/><path class="cls-5" d="M330.92,608.21A467,467,0,0,0,451,813.66a480.21,480.21,0,0,0,38,34.11c6.5,5.28,13.23,10.4,20.12,15.44A481.35,481.35,0,0,0,706,947.06q13.56,2.4,27.15,4.07c165.93,20.12,337.6-46.26,443.44-188.46,155.94-209.44,109.9-504-102.77-657.94a479.72,479.72,0,0,0-130.91-67c-5.33-1.82-10.73-3.48-16.16-5Q905,26.31,882.88,22a487.07,487.07,0,0,0-204.19,4.49q-15.84,3.75-31.44,8.59a477.29,477.29,0,0,0-241,170.15C316.57,325.74,293.72,474.37,330.92,608.21Z"/><path class="cls-6" d="M791.48,956a484.76,484.76,0,0,1-58.54-3.54c-9.05-1.11-18.2-2.49-27.22-4.08A483.78,483.78,0,0,1,508.26,864.3c-7.5-5.49-14.1-10.55-20.18-15.48A483.36,483.36,0,0,1,450,814.61a470,470,0,0,1-120.38-206c-38.93-140-11.38-287.33,75.58-404.1A478.8,478.8,0,0,1,646.85,33.84c10.25-3.19,20.85-6.09,31.53-8.62a488.17,488.17,0,0,1,204.75-4.5c14.67,2.83,29.45,6.42,43.94,10.67,5.82,1.66,11.13,3.31,16.22,5a481,481,0,0,1,131.27,67.22c103.56,75,171.17,185.18,190.36,310.35,19,124.19-12,248.3-87.31,349.48C1087,885.26,942.82,956,791.48,956Zm0-941.32c-3.74,0-7.49,0-11.23.13A484.49,484.49,0,0,0,679,27.83c-10.62,2.52-21.16,5.4-31.34,8.57a478.57,478.57,0,0,0-45.89,16.86A473.17,473.17,0,0,0,407.36,206.07C320.9,322.18,293.51,468.62,332.22,607.85A467.37,467.37,0,0,0,451.91,812.71a480,480,0,0,0,37.86,34c6.05,4.91,12.61,9.94,20.07,15.39A479.59,479.59,0,0,0,706.2,945.74c9,1.58,18.07,3,27.07,4.06,171,20.75,340.48-51.27,442.19-187.93,74.91-100.6,105.73-224,86.8-347.46C1243.18,290,1176,180.36,1073,105.82A478.36,478.36,0,0,0,942.44,39c-5.06-1.72-10.33-3.36-16.11-5-14.42-4.22-29.12-7.79-43.7-10.6A482.13,482.13,0,0,0,791.45,14.68Z"/><g class="cls-3"><path class="cls-6" d="M1176.53,762.66C1070.71,904.88,899,971.27,733.09,951.12q-13.59-1.67-27.13-4.07A482.34,482.34,0,0,1,509,863.22c-6.85-5.06-13.6-10.17-20.11-15.43a486.18,486.18,0,0,1-38-34.14A467.34,467.34,0,0,1,313.83,480.06a466.85,466.85,0,0,0,117,195,474.79,474.79,0,0,0,37.95,34.14c6.49,5.27,13.23,10.37,20.12,15.42a480.81,480.81,0,0,0,196.9,83.85q13.58,2.4,27.16,4.06c165.92,20.14,337.59-46.24,443.44-188.46,61.77-83,91.82-179.26,92.4-274.87C1290.26,485.75,1268.59,639.05,1176.53,762.66Z"/></g><path class="cls-2" d="M791.48,965a496.8,496.8,0,0,1-59.63-3.6c-9.21-1.14-18.53-2.54-27.7-4.16A492.47,492.47,0,0,1,503,871.58c-7.66-5.59-14.37-10.75-20.57-15.77A493.12,493.12,0,0,1,443.66,821,479.07,479.07,0,0,1,321,611h0c-39.68-142.73-11.61-292.86,77-411.88A484.94,484.94,0,0,1,597.2,42.51a492,492,0,0,1,47-17.26c10.44-3.25,21.25-6.2,32.12-8.78a497.24,497.24,0,0,1,208.54-4.58c14.94,2.88,30,6.54,44.76,10.86,5.91,1.69,11.36,3.39,16.59,5.17a489.45,489.45,0,0,1,133.64,68.44c105.53,76.38,174.42,188.71,194,316.28,19.4,126.58-12.19,253.08-89,356.21C1092.47,892.93,945.64,965,791.48,965Zm0-941.33q-5.51,0-11,.13a475.19,475.19,0,0,0-99.34,12.78c-10.43,2.48-20.78,5.3-30.77,8.41a470.3,470.3,0,0,0-45,16.54A464.27,464.27,0,0,0,414.57,211.44c-84.78,113.86-111.64,257.47-73.68,394h0A458.32,458.32,0,0,0,458.27,806.35a477,477,0,0,0,37.14,33.38c6,4.82,12.41,9.77,19.74,15.13a470.4,470.4,0,0,0,192.64,82c8.78,1.56,17.73,2.9,26.57,4,167.9,20.36,334.1-50.29,433.89-184.37,73.45-98.65,103.68-219.66,85.12-340.72-18.71-122.07-84.65-229.56-185.66-302.67A469.16,469.16,0,0,0,939.62,47.52c-5-1.7-10.12-3.29-15.76-4.9-14.21-4.17-28.64-7.67-42.94-10.43A473.13,473.13,0,0,0,791.45,23.67Z"/><path class="cls-2" d="M791.48,968a498.68,498.68,0,0,1-60-3.63c-9.27-1.14-18.63-2.55-27.85-4.18A495.54,495.54,0,0,1,501.23,874c-7.71-5.64-14.46-10.81-20.7-15.87a495.16,495.16,0,0,1-39-35A482,482,0,0,1,318.08,611.78h0c-39.93-143.63-11.68-294.7,77.5-414.48A488,488,0,0,1,596,39.75a493.12,493.12,0,0,1,47.26-17.37c10.51-3.26,21.38-6.23,32.32-8.83A500.27,500.27,0,0,1,885.4,8.94c15,2.9,30.19,6.59,45.05,10.94,5.94,1.7,11.42,3.41,16.7,5.2a492.88,492.88,0,0,1,134.44,68.84c106.19,76.87,175.5,189.89,195.18,318.27,19.53,127.37-12.27,254.67-89.53,358.45C1094.32,895.48,946.57,968,791.48,968Zm0-941.33q-5.48,0-11,.13a472,472,0,0,0-98.72,12.7c-10.37,2.46-20.64,5.26-30.57,8.35a467,467,0,0,0-44.72,16.44A461.23,461.23,0,0,0,417,213.23C332.75,326.35,306.07,469,343.77,604.63h0A455.4,455.4,0,0,0,460.39,804.23,469.24,469.24,0,0,0,497.3,837.4c5.92,4.8,12.32,9.71,19.62,15a468.79,468.79,0,0,0,62.88,38.35,466.85,466.85,0,0,0,128.52,43.14c8.72,1.55,17.62,2.88,26.41,4,166.79,20.26,332-50,431.11-183.18,73-98,103-218.21,84.57-338.48-18.59-121.27-84.1-228-184.45-300.69A466.83,466.83,0,0,0,938.69,50.37c-5-1.69-10.06-3.27-15.66-4.87-14.13-4.14-28.47-7.63-42.67-10.36A469.77,469.77,0,0,0,791.45,26.67Z"/><path class="cls-7" d="M378.13,719.53c228.11,250.47,630.39,202.27,726.52-117,65.4-217.22-100-448.29-315.78-497.08-157-35.52-326.06-2.49-448.34,222.6,0,0-38.5,107.9-25.47,188.66s39.53,157.16,39.53,157.16Z"/><path class="cls-8" d="M1104.64,602.51c-96.12,319.28-498.41,367.48-726.51,117l-4.77-9.26c287.34,121.91,627.92,14,731.21-307C1123,467.13,1124.81,535.47,1104.64,602.51Z"/><path class="cls-2" d="M730.18,940a522.21,522.21,0,0,1-160.24-25.42l-1.8-.74a493,493,0,0,1-66.42-40.51c-7.69-5.62-14.44-10.79-20.67-15.84a497.21,497.21,0,0,1-38.92-35A481.11,481.11,0,0,1,318.89,611.56C279,468.17,307.23,317.37,396.26,197.8A487,487,0,0,1,596.36,40.52l1.18-.5,1.26-.25c61.81-12.35,129.73-10.34,201.85,6C930.45,75.09,1049.47,163.82,1119,283.1c62.64,107.41,78.89,227.16,45.76,337.18C1128.72,740,1054,832.5,948.77,887.7,882.63,922.39,807.32,940,730.18,940ZM578.55,891.09C700.8,930.29,831.46,921,937.16,865.57c99.17-52,169.61-139.33,203.7-252.5,31.11-103.31,15.69-216-43.42-317.38C1031.3,182.29,918.29,98,795.14,70.12,727,54.71,663,52.66,605,64a462.07,462.07,0,0,0-188.64,148.7C331.93,326.05,305.19,469,343,604.86h0a456.15,456.15,0,0,0,116.83,200,470.84,470.84,0,0,0,37,33.23c5.93,4.8,12.35,9.73,19.65,15.07A469.65,469.65,0,0,0,578.55,891.09Z"/><path class="cls-2" d="M728.33,884.28c-129.9,0-259.44-57.67-353.89-161.39l-.75-1.07-23.82-46.33c-.27-.77-26.79-77.74-39.74-158C297,436.4,334.23,330.8,335.82,326.35l.32-.71C441.35,132,594,56.25,790,100.55c113.85,25.74,218.26,103.6,279.31,208.27,54.87,94.08,69.13,198.89,40.15,295.13-42.07,139.74-146.26,238-285.83,269.72A430.45,430.45,0,0,1,728.33,884.28ZM382.27,716.65C497.48,842.83,665.66,899.23,821.39,863.91c136-30.84,237.47-126.65,278.47-262.84,28.17-93.56,14.25-195.55-39.21-287.21C1001,211.54,899,135.44,787.77,110.3,596.84,67.13,447.92,141.07,345.12,330.07c-2.39,6.85-37.43,109.56-25.12,185.83,12.37,76.71,37.3,150.43,39.2,156Z"/><path class="cls-5" d="M1315.66,630c-15.73,91.51-83.74,159-151.93,150.76s-110.72-89.14-95-180.66c.09-.57.21-1.18.33-1.75,16.27-90.63,83.89-157.22,151.61-149,52.68,6.37,90,56.1,97.07,120.57A217.52,217.52,0,0,1,1315.66,630Z"/><g class="cls-3"><path class="cls-6" d="M1315.66,630c-15.73,91.51-83.74,159-151.93,150.76s-110.72-89.14-95-180.66c.09-.57.21-1.18.33-1.75,5.88,10.3,16,21,32.31,19.76,28.63-2.12,88.43-54.95,88.43-54.95s55.5,2.56,127.94,6.75A217.52,217.52,0,0,1,1315.66,630Z"/></g><path class="cls-2" d="M1174.89,794.71a105.44,105.44,0,0,1-12.77-.77c-30.34-3.67-56.93-19.77-76.87-46.55-28.59-38.4-39.4-92.92-29.66-149.61,16.89-98.26,91.56-170.86,166.7-161.73,30.35,3.68,56.93,19.77,76.87,46.56,28.59,38.39,39.4,92.92,29.66,149.6C1312.89,724.9,1245.45,794.71,1174.89,794.71Zm34.32-332.77c-57.76,0-113.6,60.43-127.33,140.36-8.38,48.79.87,97.07,24.76,129.16,15.48,20.78,35.77,33.23,58.69,36a81.83,81.83,0,0,0,9.87.6c57.76,0,113.59-60.43,127.33-140.37,8.38-48.79-.87-97.07-24.76-129.16-15.48-20.77-35.77-33.22-58.69-36A81.81,81.81,0,0,0,1209.21,461.94Z"/><ellipse class="cls-5" cx="1230.37" cy="632.11" rx="137.31" ry="93.6" transform="translate(336.72 1687.94) rotate(-76.95)"/><g class="cls-3"><path class="cls-6" d="M1206.61,767.12c51.56,5.84,104-49.87,117.09-124.45a197,197,0,0,0,2.74-23.89c-22.46,49.05-63,81-103.09,76.47-45.26-5.18-75.08-55.35-73.39-117.43A200.4,200.4,0,0,0,1137,621.53C1123.91,696.12,1155.07,761.28,1206.61,767.12Z"/></g><path class="cls-2" d="M1214.29,780.89a80.54,80.54,0,0,1-9.17-.52c-22.67-2.56-42.63-14.59-57.73-34.79-23.17-31-32-78.22-23.49-126.34,14.54-82.64,72.5-142.12,131.72-135.39,22.67,2.56,42.64,14.59,57.73,34.79,23.18,31,32,78.23,23.49,126.34h0C1323.06,723.35,1270.3,780.89,1214.29,780.89ZM1246.79,510c-42.09,0-85.44,50.29-96.62,113.84-7.21,41-.27,80.54,18.58,105.76,10.58,14.15,24.19,22.53,39.37,24.25,43.7,4.94,90.75-47,102.45-113.5h0c7.22-41,.27-80.55-18.58-105.76-10.58-14.15-24.19-22.54-39.36-24.26A52,52,0,0,0,1246.79,510Z"/><g class="cls-9"><path class="cls-5" d="M871.4,227.31s-181-56.71-315.71,30.83l-.42.27C526.93,276.86,484.64,327,469.67,357c-19.8,39.73-27.53,70-33.3,96.86-17.49,81.78-10.16,123.34-10.16,123.34-38-53.07-54.07-107.68-40.19-175.94,1.39-6.72,3.07-13.61,5-20.62.44-1.62.92-3.21,1.42-4.81,0,0,0-.05,0-.09a463.54,463.54,0,0,1,22.08-51.68C444.38,264.67,498.12,190.28,586.24,169,751,129.09,880.07,220.19,871.4,227.31Z"/></g><g class="cls-9"><ellipse class="cls-5" cx="964.4" cy="470.8" rx="60.75" ry="69.79" transform="translate(-27.71 61.6) rotate(-3.61)"/></g><g class="cls-9"><ellipse class="cls-5" cx="974.93" cy="607.13" rx="26.35" ry="30.29" transform="translate(-82.5 158.87) rotate(-8.94)"/></g><path class="cls-2" d="M479.28,1072.3l67.08-10.93c5.5-.95,8,7,2.93,9.3l-61.22,29.52c-20.62,8.66-30.67-23.13-8.79-27.89Z"/><path class="cls-2" d="M315.57,1210.93a14.41,14.41,0,0,1-2.25-.18c-139.74-21.6-189-113.86-191.06-117.77a14.62,14.62,0,0,1,25.94-13.5h0c1.78,3.38,45.19,83.15,169.58,102.37a14.63,14.63,0,0,1-2.21,29.08Z"/><path class="cls-2" d="M739.17,1365.1a188,188,0,0,1,64.65-73,361.2,361.2,0,0,1,43.83-23.56C897,1245.09,953,1247,995.69,1283a192.11,192.11,0,0,1,18.09,17.78l48.29,51.61s-18.93-2.08-18.92-2.07c33.61-22.77,77.74-29.26,115.93-14.59,53,19.62,76.17,78.16,73.55,131.12-.12,12.75-1.76,25.21-3.55,37.6a14.62,14.62,0,1,1-28.85-4.73c11.76-63.89-5.5-139.74-81.71-142.56a101.44,101.44,0,0,0-58.86,17.29,14.63,14.63,0,0,1-18.93-2.08l-32.2-34.41-20.12-21.51c-35-38.57-83.41-42.86-129-21.18-13.52,5.84-26.24,13.65-38.35,22.29-21.74,14.77-52.65,37.63-74.19,53.49-3.82,3.39-10.11-1.29-7.71-6Z"/><path class="cls-2" d="M907.66,1608.09a14.61,14.61,0,0,1-13.17-8.26l-54.83-113.3A14.62,14.62,0,0,1,866,1473.8l54.82,113.3a14.61,14.61,0,0,1-6.79,19.52A14.45,14.45,0,0,1,907.66,1608.09Z"/><path class="cls-2" d="M1013.63,1724.54a12.16,12.16,0,0,1-7.73-2.77c-61.95-50.93-35.07-149.76-11.36-237,2.52-9.25,5-18.36,7.31-27.2,32.84-125.74,107.32-127.19,110.47-127.19a12.19,12.19,0,0,1,.13,24.37c-2.74.08-59.36,3-87,109-2.33,8.93-4.82,18.11-7.36,27.45-21.78,80.07-46.46,170.83,3.31,211.74a12.18,12.18,0,0,1-7.74,21.6Z"/><path class="cls-2" d="M1071.82,1740.45a14.45,14.45,0,0,1-6.56-1.57c-23.17-11.66-38.93-32.39-46.82-61.63-23.93-88.58,32.71-240.25,62.14-285.47,31.7-48.72,91.32-38.9,118.41-26.89a14.62,14.62,0,0,1-11.81,26.75c-2.28-1-56.09-23.86-82.1,16.09-26.49,40.7-79.76,182.88-58.42,261.9,5.72,21.16,16.1,35.26,31.74,43.14a14.62,14.62,0,0,1-6.58,27.68Z"/><path class="cls-2" d="M1066,1467.32a12.18,12.18,0,0,1-.35-24.36l142.94-4.21h.36a12.18,12.18,0,0,1,.36,24.36l-142.95,4.21Z"/><path class="cls-2" d="M1046.26,1553.27a12.19,12.19,0,0,1-5.09-23.26c2.45-1.13,5.51-2.54,166.89-14.68a12.18,12.18,0,1,1,1.82,24.29c-57.38,4.32-150.85,11.67-160.5,13.23A11.9,11.9,0,0,1,1046.26,1553.27Zm5-1.11h0Zm0,0h0Z"/><path class="cls-2" d="M1051.74,1620.16c-9.23,0-15.89-.36-18.65-1.24a12.18,12.18,0,0,1,7-23.34c9.47,1.65,76.57-2,136.32-6.55a12.18,12.18,0,0,1,1.83,24.3C1140.52,1616.18,1082.19,1620.16,1051.74,1620.16Zm-11.52-24.54.26.08Z"/><path class="cls-2" d="M1151.3,1684.84H1036.79a12.19,12.19,0,1,1,0-24.37H1151.3a12.19,12.19,0,1,1,0,24.37Z"/><path class="cls-2" d="M875.72,1539.66l-.72,0a12.18,12.18,0,0,1-11.45-12.87c9.36-160.76,162.76-198.11,164.31-198.48a12.19,12.19,0,0,1,5.51,23.74c-5.68,1.33-137.22,33.92-145.5,176.15A12.18,12.18,0,0,1,875.72,1539.66Z"/><path class="cls-2" d="M1055.74,1373.78c-31.1,11.77-55.32,38-70.72,67.08-1.28,2.75-4.83,10.14-6.07,12.83a275.64,275.64,0,0,0-10.43,31.77c-.6,3-5.3,2.29-4.8-.85a284.37,284.37,0,0,1,6.6-33.94c8.08-27.66,21.86-53.52,42.38-74.13,10.2-10.24,21.48-19.35,34.7-25.68,16.06-6.63,25,17.65,8.34,22.92Z"/><path class="cls-1" d="M501,1225.77c26.09-14.44,115.12-61.92,192.84-82a12.35,12.35,0,0,1,14.27,6.86c11.56,25.1,42.36,92.27,40.37,91.61-2.32-.77-121.37,50.34-200.73,94.1a12.41,12.41,0,0,1-17.15-5.39c-10.06-20.45-30-63.22-35.78-91.8A12.42,12.42,0,0,1,501,1225.77Z"/><path class="cls-2" d="M541.68,1352.45a26.88,26.88,0,0,1-8.09-1.24,27.24,27.24,0,0,1-16.14-13.86c-11.25-22.85-31-65.63-37-95.37a27,27,0,0,1,13.43-29h0c26-14.36,116.85-62.83,196.25-83.4a27,27,0,0,1,31.22,14.89c45.62,99,45.62,99,38,107.47a14.7,14.7,0,0,1-8.28,4.64c-12.68,4.22-122,51.5-196.35,92.52A27.2,27.2,0,0,1,541.68,1352.45Zm-32.23-114.67c5.73,26.48,24.35,66.42,33.23,84.6,45.24-24.81,99.61-50.14,128.25-63.15C700,1246,718,1238.12,729.5,1233.51c-5.62-13-16.35-37-33.93-75.14C621.29,1178,536.15,1223.08,509.45,1237.78Zm234.39,18.28a15.35,15.35,0,0,0,1.56.43A15.1,15.1,0,0,1,743.84,1256.06Z"/><path class="cls-2" d="M837.54,1299.86a14.58,14.58,0,0,1-9.21-3.27c-57.72-46.91-102.51-238-107.42-259.63a14.62,14.62,0,0,1,28.51-6.48c12.75,56.06,55.09,209.06,97.35,243.41a14.62,14.62,0,0,1-9.23,26Z"/><path class="cls-2" d="M1070.44,1237.89a14.65,14.65,0,0,1-12.8-7.52l-51.33-92.43a21.51,21.51,0,0,0-18.82-11.08H935a50.57,50.57,0,0,1-47.06-31.72L847.24,994.67a14.61,14.61,0,1,1,27.09-11L915,1084.17a21.45,21.45,0,0,0,20,13.45h52.53a50.79,50.79,0,0,1,44.38,26.12l51.34,92.43a14.63,14.63,0,0,1-12.77,21.72Z"/><ellipse class="cls-10" cx="1045.01" cy="1020.26" rx="50.86" ry="53.61"/><path class="cls-2" d="M1045,1086.36c-34.94,0-63.37-29.65-63.37-66.1s28.43-66.11,63.37-66.11,63.36,29.66,63.36,66.11S1080,1086.36,1045,1086.36Zm0-107.21c-21.15,0-38.37,18.44-38.37,41.11s17.22,41.1,38.37,41.1,38.36-18.44,38.36-41.1S1066.16,979.15,1045,979.15Z"/><path class="cls-2" d="M1037.31,967.33c-3.59,20.78-5.37,40.65,2.69,59.45,7.79,17.36,22.33,32.49,43.92,28-3.61,4.55-9.37,7.56-15.66,8.65-19.57,2.83-37.71-12.46-44.73-29.61-9.73-22.49-3.73-50.22,13.78-66.48Z"/><path class="cls-2" d="M1568.91,1690.91a54.23,54.23,0,0,1-32.79-11.05c-31.13-23.79-107.69-88.42-160.37-184.15-23.54,2.31-86,7.85-152.36,8.82h-.21a14.62,14.62,0,0,1-.21-29.24c82.4-1.19,158.65-9.57,159.41-9.66a14.65,14.65,0,0,1,14.57,7.75c50,95.38,126.4,159.92,156.93,183.24a24.24,24.24,0,0,0,21.2,4.24c76.48-20.53,177.58-115.06,206.75-143.55a24.82,24.82,0,0,0,7.25-20.89c-5.78-43.4-20.48-70.74-43.68-81.25-35.41-16-86.75,9.51-103.54,20.71a14.63,14.63,0,0,1-20.22-4c-.72-1.07-73.17-107.83-135-173.18-58.53-61.9-254.63-70.71-256.6-70.79a14.62,14.62,0,0,1,.59-29.23h.61c8.54.36,210,9.41,276.65,79.92,52.07,55.07,109.55,135.89,130.16,165.56,23.46-12.71,75.59-35.49,119.38-15.66,33,15,53.4,50,60.6,104a54.16,54.16,0,0,1-15.8,45.66c-39,38.12-138.55,129.11-219.6,150.88A53,53,0,0,1,1568.91,1690.91Z"/><path class="cls-2" d="M1648.37,1423.72l-12.18,50.35a2.52,2.52,0,0,1-4.88,0l-12.18-50.35a15,15,0,0,1,11.08-18.16c10.65-2.86,21,7.6,18.16,18.16Z"/><path class="cls-2" d="M1517.75,1658.15a12.18,12.18,0,0,1-2.32-24.14c184.73-36,261.16-197.49,261.91-199.12a12.18,12.18,0,0,1,22.14,10.17c-3.26,7.1-82.06,174.46-279.39,212.86A11.67,11.67,0,0,1,1517.75,1658.15Z"/><path class="cls-2" d="M1375.74,1468.1l43.43-15a2.54,2.54,0,0,1,2.76,4l-29.67,35.08a15.17,15.17,0,0,1-21.37,1.78c-9-7.18-6-22.47,4.85-25.91Z"/><path class="cls-2" d="M1402.26,1519.15a12.18,12.18,0,0,1-2.71-24.06C1552.82,1459.9,1555,1333.27,1555,1332a12.19,12.19,0,0,1,12.19-12.15h0a12.19,12.19,0,0,1,12.14,12.22c0,1.47-2.45,147.29-174.36,186.77A12.18,12.18,0,0,1,1402.26,1519.15Z"/><path class="cls-2" d="M316.17,1237.87a14.61,14.61,0,0,1-9.36-25.84c2.94-2.46,73.48-60.24,185.59-76.89a14.62,14.62,0,1,1,4.29,28.92c-103.62,15.4-170.54,69.91-171.2,70.46A14.55,14.55,0,0,1,316.17,1237.87Z"/><path class="cls-2" d="M424,1467.66a14.62,14.62,0,0,1-3.07-28.92c1-.23,104.57-22.94,147.46-64.53a14.62,14.62,0,0,1,20.35,21c-48.91,47.43-157.07,71.13-161.65,72.11A14.27,14.27,0,0,1,424,1467.66Z"/><path class="cls-2" d="M435.23,1168.65l18.65,71.15a2.06,2.06,0,0,1-1.47,2.51,2,2,0,0,1-2.28-.94L412.74,1178c-8.6-16.42,16.87-27.06,22.49-9.37Z"/><path class="cls-2" d="M490.52,1337.33c9.36,23.78,22.89,59.67,33.17,82.61,6.75,16.74-18.71,25.1-23.17,7.56-2.73-13.23-5.33-31.4-7.46-44.76l-6.48-44.39a2.05,2.05,0,0,1,3.94-1Z"/><path class="cls-2" d="M679.11,1517.54c-10.54,41.58-62.94,69.68-99.16,86.2-3.21,1.5-5.84-3.17-2.84-5.12,16.4-11.51,33-24.39,46.62-39,11.53-12.6,24.4-28.78,26.24-44.53,2.11-19.14,30.3-16.78,29.14,2.49Z"/><g class="cls-3"><path class="cls-4" d="M523.74,1072.05l-11.65,1.79-27.15,18.66c-.43-2.09-.82-4.19-1.26-6.24,0,0-75.54,18.67-115.74,43s-109.65,207.12-109.65,207.12q46.13,95.61-58.09,75.53c-58.67,73.44-135,41.28-168.56-17.69l-16.52-74.07-.63-2.93s.34.44.83,1.17c7.6,11.36,66.12,99.95,119.92,28.95,0,0,79.19,48.2,70.67-30.12-5.44-49.92,35.17-130.08,65.33-181.62,29.79-50.93,79.39-87.71,137.2-99.47a272.22,272.22,0,0,1,92.83-2.43l26.54,13.92C538.93,1053.49,536.16,1070.14,523.74,1072.05Z"/></g><g class="cls-3"><path class="cls-4" d="M736.64,1567.05c-51.21,40.35-123.24,88-168.51,78.9-21-4.19-41.28-20.66-59.74-42.3,96.48-40.5-8.05-221.29-8.05-221.29L438,1196.3,426.76,1180l-99,27s13.88-47.61,31.52-70.51,134.8-50.2,134.8-50.2l18,128.32L494.54,1230,527,1323.49l20.81,19.1,17.1-10.57s26,77.29,73.1,153.85C667.35,1533.57,709.21,1556.53,736.64,1567.05Z"/></g><g class="cls-3"><path class="cls-4" d="M598.2,1173.33s96.38,21.75,51.24,111.91L743,1240.59l-41.28-99.32-21.93,6.3"/></g><g class="cls-3"><path class="cls-4" d="M859.52,941.71s74-7.63,106.08,25.62l130-31.83-25.13-76.67-70.19,36.55"/></g><g class="cls-3"><path class="cls-4" d="M1060.68,1071.25s35,123-255.7,169.34l32.57,38.56,95.94-15.84L1103.76,1207s74.64-35.61,61.76-77.45-70-194-70-194l-68.36,16.74S1100.78,981.55,1060.68,1071.25Z"/></g><g class="cls-3"><path class="cls-4" d="M860.78,1278.84s91.63,51.88,116.76,165.59c0,0,44.63-81.63,78.74-82C1056.28,1362.4,961.74,1226.14,860.78,1278.84Z"/></g><g class="cls-3"><path class="cls-4" d="M627.21,1467.65S832,1615.8,855.18,1485l44.28,109S709.83,1611.08,627.21,1467.65Z"/></g><g class="cls-3"><path class="cls-4" d="M1226.77,1495.89c-1.85,4.29-3.8,8.63-5.79,13L1178.73,1647c-17.65,65.35-95.57,122.12-183.14,57a563.56,563.56,0,0,1-8.28-89c10,37.77,50-26.85,50-26.85,110.28,15,186.44-101.12,186.44-101.12Z"/></g><g class="cls-3"><path class="cls-4" d="M1121.15,1207S1226,1187.63,1209,1406.59l14.21,48.55s97.81-188.58-65-403l7.1,97.93-14.09,26.74"/></g><g class="cls-3"><path class="cls-4" d="M1792,1536.54c-5.55,5.45-12.72,12.28-21,20-11.4-159-184-20.28-184-20.28s-33.63-66.81-114-160.81-214.72-65.16-214.72-65.16l-14.81-127.38c45.46,3.07,200.09,17.69,253.89,74.56,53.41,56.49,113.75,142.15,131.37,167.64a9.51,9.51,0,0,0,12.58,2.86c30.29-17.25,142.88-70.7,162.33,75.3A39.43,39.43,0,0,1,1792,1536.54Z"/></g><g class="cls-3"><path class="cls-4" d="M1415.37,1460.47l-25,26.61c-1.27-2.29-2.49-4.58-3.71-6.92,0,0-70.71,7.85-150.72,9.55l-9.12-9.55,34.36-162.91S1265.27,1434.4,1415.37,1460.47Z"/></g></g></g></svg>