<svg xmlns="http://www.w3.org/2000/svg" viewBox="0 0 2530.96 3247.33"><defs><style>.cls-1{fill:#ffb200;}.cls-2{fill:#d66b09;}.cls-3{fill:#282828;}.cls-4{fill:#ffc536;}.cls-5{fill:#ff9100;}.cls-6{fill:#ffec90;}.cls-7{opacity:0.41;}.cls-8{fill:#fff;}.cls-9{opacity:0.3;}.cls-10{fill:#3f3f3f;}.cls-11{fill:#371a45;}.cls-12{opacity:0.35;}.cls-13{fill:#22a7f0;}.cls-14{opacity:0.7;}.cls-15{fill:#303030;}.cls-16{opacity:0.5;}</style></defs><g id="Capa_2" data-name="Capa 2"><g id="Layer_1" data-name="Layer 1"><path class="cls-1" d="M2015.12,2094.89a847.23,847.23,0,0,1,30.06,100.67c-144.71,100.55-425.93,235.55-759,357.85s-634.86,201.36-810.24,218.34a845,845,0,0,1-42.23-96.2c-.58-1.57-1.14-3.11-1.69-4.69q-8-22.07-14.62-44.27a842.5,842.5,0,0,1-24.27-104.4c-.24-1.41-.48-2.83-.69-4.25A838.72,838.72,0,0,1,439.28,2080c84.6-217.39,258.57-398.8,494.79-485.53,234.29-86,482.19-61.43,686.39,47.3a842,842,0,0,1,225.48,174.57,833,833,0,0,1,94.23,124.46c2.26,3.6,4.46,7.22,6.65,10.88a842.6,842.6,0,0,1,49,95.3q8.07,18.45,15.32,37.46C2012.53,2087.92,2013.83,2091.39,2015.12,2094.89Z"/><path class="cls-1" d="M2055.59,2522.47A846.55,846.55,0,0,1,1980,2757.41c-92.22,187.32-253.82,340.85-465.29,418.5-211.94,77.82-435,65.12-626.83-18.49a847.47,847.47,0,0,1-208.42-129.69c209.84-36.78,454.09-103,708.7-196.47S1871.8,2630.21,2055.59,2522.47Z"/><path class="cls-2" d="M1388.17,2831.26c254.58-93.47,483.63-201.05,667.42-308.79a836.51,836.51,0,0,1-23.1,100.51c-141.81,88-365.78,193.09-624.6,288.12-247.91,91-477.42,154.32-641.37,181.17a843.94,843.94,0,0,1-87-64.54C889.31,2991,1133.56,2924.74,1388.17,2831.26Z"/><path class="cls-2" d="M2011.19,2084.47c1.34,3.45,2.64,6.92,3.93,10.42a847.23,847.23,0,0,1,30.06,100.67c-144.71,100.55-425.93,235.55-759,357.85s-634.86,201.36-810.24,218.34a845,845,0,0,1-42.23-96.2c-.58-1.57-1.14-3.11-1.69-4.69,165.58-6.16,472.42-81.56,812-206.23C1596.91,2335,1888.51,2187.71,2011.19,2084.47Z"/><path class="cls-2" d="M378.6,2391.05l7-56.34c114.05,14.29,420.48-59,745.17-178.21,387.36-142.23,641.41-287.18,692.17-356.85l45.9,33.45c-67.17,92.18-355.91,243.57-718.49,376.7C812.8,2333.75,502.65,2406.6,378.6,2391.05Z"/><path class="cls-2" d="M441.39,2108.35l-4.23-56.63c130.16-9.72,359-70.11,597.32-157.6,249.67-91.67,467.57-197,568.66-274.81l34.64,45c-105.34,81.11-329,189.6-583.72,283.12C811.19,2036.59,576.42,2098.25,441.39,2108.35Z"/><path class="cls-2" d="M390.21,2546.25l4.41-56.62C526,2499.86,842.69,2422.84,1182.77,2298c356.7-131,659.26-285.4,735.75-375.53l43.3,36.74c-83.51,98.38-388.72,255.95-759.47,392.09C849.89,2480.69,531.11,2557.22,390.21,2546.25Z"/><path class="cls-2" d="M887.87,3171.62l0-14.15-5.68-13,2.71-1.18h3c114.22.11,335.95-54.13,564.9-138.19,230.21-84.53,428.73-183.58,518.09-258.51l18.24,21.75c-91.71,76.89-293.46,177.82-526.54,263.41C1227.2,3118.12,1007,3171.74,887.87,3171.62Z"/><path class="cls-3" d="M1225.12,3247.33c-201.41,0-400.31-70.36-558.57-204.33L634,3015.41,676,3008c216.19-37.9,460.06-105.52,705.26-195.54s474.86-196.28,664.2-307.28l36.83-21.59-7,42.12c-50.75,305.85-262.92,562.17-553.71,668.94A859.8,859.8,0,0,1,1225.12,3247.33Zm-499-207.79c222.44,169,518,214.43,781.69,117.6s459.66-322.7,519.84-595.48c-183.7,104.2-401.39,203.48-632.6,288.37S933.63,3000.1,726.13,3039.54Z"/><path class="cls-4" d="M2504.87,2042.2c42.54,115.83-138.86,298.3-449.28,480.27-183.79,107.74-412.84,215.32-667.42,308.79S889.31,2991,679.47,3027.73c-354.41,62.14-610.75,40.4-653.28-75.44-38.63-105.2,107.38-265.28,366.91-430.1a842.5,842.5,0,0,0,24.27,104.4c-72.12,50.69-108.86,92.4-99.09,119,9.94,27.09,66.86,34.94,157.63,26.17,175.38-17,477.18-96.05,810.24-218.34s614.32-257.3,759-357.85c74.84-52,113.16-94.85,103.21-121.94-9.75-26.56-64.76-34.62-152.52-26.61a842.6,842.6,0,0,0-49-95.3C2251.34,1909.43,2466.25,1937,2504.87,2042.2Z"/><path class="cls-5" d="M394.11,2570.06l6.45,9.52c-64.63,42.59-115,81.26-153.25,115.74C276.71,2658.31,325.54,2616.73,394.11,2570.06Z"/><path class="cls-5" d="M407,2589l-6.47-9.45c1.1-.8,2.35-1.57,3.6-2.35Z"/><path class="cls-6" d="M2258.19,2047c-10.69-29-39.59-48.2-87.58-57.76-46.44-9.19-110.75-9.31-193.59-.44l1.23,11.4,3.66,34.36c158.06-16.92,224,3.51,233.17,28.32,15.2,41.47-95.09,152.65-373.36,298.54-155.54,81.53-342.17,163-539.58,235.51-116.15,42.64-231.49,80.53-341.64,112.18-77.08,22.33-151.61,41.58-222.12,57.42-306.55,68.88-462.57,55.51-477.83,13.94-8.94-24.26,26.73-81,152.71-168,2.18-1.53,4.43-3,6.69-4.57L407,2589l-6.47-9.45-6.45-9.51c-68.57,46.66-117.41,88.24-146.8,125.25-30.83,38.48-40.54,71.95-29.88,101.07,10.44,28.33,38.74,45.94,79.06,55.56,105.18,25.09,291.78-4.52,451.92-40.53,72.51-16.27,149.16-36.16,228.45-59.12,110.11-31.82,225.2-69.69,341.08-112.23,199.29-73.16,387.77-155.48,545.16-237.88C2064.09,2296.77,2295.85,2149.57,2258.19,2047Z"/><path class="cls-6" d="M2398.31,2036c-39.46-107.41-260.43-102.7-438.78-79.76l5.83,45.58c4.33-.53,8.65-1.07,12.89-1.62,77.12-9.41,140.73-12.5,192.36-11,117.38,3.57,172.94,31.06,184.58,62.63,20.88,57-73.7,189.93-409.34,376.93-173.47,96.67-382.74,191-605.3,272.66-101.8,37.34-203.19,70.9-301.78,100-117.21,34.65-230.5,62.91-336.21,83.85-376.87,74.64-535,34.53-555.95-22.47-11.61-31.65,13.1-88.7,100.7-167.52,38.25-34.48,88.62-73.15,153.25-115.74,1.1-.81,2.35-1.57,3.6-2.35,2.35-1.57,4.78-3.13,7.23-4.77l-12.45-19.18-12.58-19.38c-150.82,98-322.38,237.31-282.84,344.74,15.26,41.57,57.09,66.61,113.91,80.17,133.77,31.83,350.08.09,494-28.42,126.34-25,263.3-60.36,404.51-104.26,79.17-24.55,159.63-51.76,240.36-81.46,224.81-82.53,436.38-177.85,611.86-275.7C2150.88,2367.17,2449.58,2175.64,2398.31,2036Z"/><path class="cls-3" d="M338.78,3081.92c-185.2,0-301.61-41.68-331.37-122.73-41.42-112.83,91.74-274,375-453.88l25.5-16.2,4.95,29.8a825.06,825.06,0,0,0,23.7,101.92l4.15,13.82-11.8,8.3c-99.78,70.13-91.92,95.49-91.83,95.74S347.87,2764,474,2751.84c179-17.34,487.6-100.57,805.27-217.2s606.79-252.87,754.51-355.5c104-72.32,95.94-98.37,95.85-98.62s-10.52-24.67-131.94-13.59l-14.37,1.31-5.77-13.22a825.09,825.09,0,0,0-47.89-93l-15.51-25.93,29.92-4.15c332.34-46.15,538.16-9.42,579.59,103.4h0c45.31,123.4-121.61,307.25-458,504.42C1874.35,2651.9,1642.45,2759.2,1395.06,2850s-493.64,159.1-712.13,197.4C551.14,3070.54,435.56,3081.92,338.78,3081.92Zm40.07-526.77C137.22,2712.8,12.79,2857.77,45,2945.4,81.83,3045.81,323.64,3069.81,676,3008c216.19-37.9,460.06-105.52,705.26-195.54s474.86-196.28,664.2-307.28c308.65-180.94,477.49-355.71,440.62-456.12-32.18-87.63-220.86-117.63-507.09-81.48,10.5,19.05,20.31,38.54,29.33,58.3,95.42-7.15,146,5.93,158.83,40.82,13.64,37.16-21.5,83.31-110.57,145.25-152.61,106-438,240.69-763.55,360.2s-630.26,201.57-815.21,219.48c-108,10.42-164.7-2-178.34-39.18-12.81-34.9,17.33-77.62,94.7-133.91C388.3,2597.66,383.16,2576.45,378.85,2555.15Z"/><g class="cls-7"><path class="cls-8" d="M2045.18,2198.45q-25.28,17.55-55.93,36.42c-6.22-22.67-13.46-45.3-21.68-67.73-1.3-3.49-2.62-6.94-3.93-10.39q-7.22-19-15.32-37.48a846.14,846.14,0,0,0-49-95.32c-2.18-3.64-4.42-7.25-6.66-10.85a830.9,830.9,0,0,0-94.25-124.48,841.45,841.45,0,0,0-225.45-174.54c-204.24-108.74-452.14-133.37-686.42-47.33C730.1,1724.19,601,1823.14,507,1946.59A838.85,838.85,0,0,1,934.1,1597.37c234.27-86,482.18-61.41,686.36,47.32a841.74,841.74,0,0,1,225.5,174.6,833,833,0,0,1,94.21,124.42c2.29,3.61,4.47,7.26,6.65,10.9a838,838,0,0,1,49,95.27q8.1,18.49,15.33,37.48c1.36,3.46,2.68,6.9,3.92,10.44A849.62,849.62,0,0,1,2045.18,2198.45Z"/></g><path class="cls-3" d="M464.34,2793l-6.21-12a870.15,870.15,0,0,1-43.23-98.48c-6.09-16.58-11.7-33.44-16.69-50.12a864.22,864.22,0,0,1-24.84-106.85c-67.62-407.67,165.29-807.09,553.81-949.74s824.55,11.15,1036.8,365.71A865.47,865.47,0,0,1,2014.2,2039c7,15.94,13.62,32.43,19.7,49h0a869.27,869.27,0,0,1,30.76,103.05l3.06,13.21-11.13,7.73c-152.6,106-438,240.68-763.54,360.19s-630.26,201.57-815.21,219.48Zm759.81-1230.14A820.7,820.7,0,0,0,941,1613.27c-370.5,136-592.61,516.92-528.13,905.64a825.06,825.06,0,0,0,23.7,101.92c4.76,15.93,10.11,32,15.92,47.83a831.54,831.54,0,0,0,35.1,81.77c180.8-20.08,481.93-102,791.71-215.79s592.42-246.12,743.25-347.8a832.89,832.89,0,0,0-26.16-85.06h0c-5.8-15.79-12.12-31.51-18.8-46.73a824.69,824.69,0,0,0-47.9-93.07C1778,1708.68,1506.57,1562.82,1224.15,1562.82Z"/><g class="cls-9"><path class="cls-10" d="M1009,2647.68h0c-218.93,68.33-408.13,112-533.1,124.08-90.77,8.77-147.69.92-157.63-26.17-9.77-26.59,27-68.3,99.1-119-6-19.89-11.1-39.86-15.54-59.85v0c-234.16,155.46-363.2,304.29-326.63,403.9,10.59,28.85,34.46,51.85,69.78,69.18-3.34-1-6.59-2-9.8-3,114.73,36.38,307.57,32.35,544.27-9.15,209.84-36.78,454.09-103,708.7-196.47q29.61-10.87,58.68-22C732.23,2962.87,1009,2647.68,1009,2647.68Z"/></g><g class="cls-9"><path class="cls-11" d="M1029,2531.57c252.6-3.36,780.13-224.61,998.31-323.93,6.13-4.08,12.13-8.12,17.84-12.09-5.36-23.05,12.1-4.65,4.7-27.52-137.58,67-782.14,353.58-1069.89,357.41-12.58.16-25.15-.23-37.66-1.1A448.89,448.89,0,0,0,1029,2531.57Z"/></g><g class="cls-9"><path class="cls-10" d="M2049.87,2168c-137.58,67-782.14,353.58-1069.89,357.41-151,2-301.65-70.4-333.32-218-.58-2.71-1-5-1.34-6.89-.24-1.42-.47-2.83-.7-4.29a833.28,833.28,0,0,1-10.28-155,844.91,844.91,0,0,1,122.58-415.37,841.29,841.29,0,0,0-315.45,798.22c.18,1.41.42,2.82.65,4.23a846.27,846.27,0,0,0,24.3,104.42Q473,2654.93,481,2677c.58,1.58,1.11,3.1,1.69,4.68a867.59,867.59,0,0,0,36.65,84.93c-7.15,1-14.12,1.87-21,2.69,178-21.2,468.51-98.67,787.8-215.89,333.07-122.29,614.33-257.32,759-357.86C2039.81,2172.5,2057.27,2190.9,2049.87,2168Z"/></g><g class="cls-9"><path class="cls-10" d="M760.39,3037.1a846.67,846.67,0,0,0,121.37,65.16c191.8,83.6,414.89,96.3,626.83,18.48,211.47-77.65,373.07-231.17,465.3-418.5a843,843,0,0,0,52.47-134.43c4.41-14.87,8.33-29.89,11.9-45-181.88,105.57-406.73,210.73-656.22,302.33-234.35,86-459.85,148.91-657.89,187.07C736,3020.79,748.08,3029.15,760.39,3037.1Z"/></g><rect class="cls-8" x="818.86" y="823.16" width="799.99" height="749.54" rx="155.54" transform="translate(2437.71 2395.85) rotate(180)"/><path class="cls-8" d="M1618.84,976.13v443.62c0,84.11-71.16,153-158.17,153H977c-87,0-158.16-68.85-158.16-153V976.13a147.3,147.3,0,0,1,16.42-67.65,154.5,154.5,0,0,1,30.32-40.66A160.38,160.38,0,0,1,969,823.37c2.66-.13,5.33-.2,8-.2h483.73c63.66,0,118.79,36.88,143.81,89.61a149.3,149.3,0,0,1,7.25,18.29A147,147,0,0,1,1618.84,976.13Z"/><path class="cls-11" d="M1463.31,823.16c85.55,0,155.54,70,155.54,155.54v438.46c0,85.55-70,155.54-155.54,155.54H974.4c-85.55,0-155.54-70-155.54-155.54V978.7c0-85.55,70-155.54,155.54-155.54h488.91m0-32H974.4c-103.43,0-187.58,84.15-187.58,187.58v438.46c0,103.43,84.15,187.57,187.58,187.57h488.91c103.43,0,187.58-84.14,187.58-187.57V978.7c0-103.43-84.15-187.58-187.58-187.58Z"/><g class="cls-9"><path class="cls-10" d="M1601.55,998.66l-2.07,1.07c0-1,0-2,0-3a30.33,30.33,0,0,1,.5-4,8.54,8.54,0,0,1,.21-1c0-.14.06-.28.08-.42.1-.41.21-.8.32-1.18s.18-.67.29-1a4,4,0,0,1,.15-.49c.13-.37.25-.74.38-1.09s.33-.86.5-1.28q-.15.69-.27,1.38c-.18,1-.31,2-.4,3A33.45,33.45,0,0,0,1601.55,998.66Z"/></g><path class="cls-8" d="M999.37,850.78,986.3,885.13l-11.11,29.14-9.65,25.36-56.87,149.3c-9.21,2.56-18.62,4.88-28.31,6.81-121.5,25-282-1.41-501-247-34.26-38.4-116.93-61.68-80.89-149,36.86-89.32,88.73-78.17,88.73-78.17s-13.59-44.27,15.71-66.68c41.35-31.66,90.38,15.24,138,48.68,6.77,4.76,3.74-59.39,48.48-57.46C653.4,548.88,650,695,650,695s86.33,94.79,220.34,136.54a419.25,419.25,0,0,0,110.63,19.1C987,850.78,993.19,850.86,999.37,850.78Z"/><g class="cls-12"><path class="cls-10" d="M908.67,1088.92h0c-124.6,34.61-292.83,25-529.3-240.18-34.24-38.4-116.92-61.65-80.88-149,22.12-53.66,49.69-71,68.14-76.4-6.26,9.5-10.74,21.92-18.24,35.13-42.16,74.28,73.29,146.36,105.11,133.18,19.53-8.09,26.39-15.92,37.67-53.24,12-39.67,30.63-58.54,32.83-56.08,10,11.21,10.22,149.43,33.18,198,58.54,124,216.19,184.9,330.58,179.59A21.34,21.34,0,0,1,908.67,1088.92Z"/></g><path class="cls-3" d="M808.74,1119.14c-108.91,0-254.8-51-441.12-259.9-7.55-8.46-18.47-16.6-30-25.21-36-26.84-85.34-63.6-53.69-140.29,26.71-64.72,62.21-82.61,84.76-87-1.54-18.56,1-46.25,24.67-64.36,44.75-34.24,93.28,1.68,136.1,33.38l4,3c6-19.88,19.9-50,56.63-48.36,70.74,3,75.68,125.19,75.72,158.29C690.51,713.52,822.56,837.41,999.18,835h.21a15.75,15.75,0,0,1,.2,31.5c-209.8,2.64-355.17-154.27-361.25-161a15.74,15.74,0,0,1-4.11-11c1-42.63-8.91-131.18-45.51-132.76-15.66-.65-21.79,11.85-27.58,35.19-2.41,9.7-4.49,18.08-13.69,21.52a16.89,16.89,0,0,1-15.58-2.06c-7-4.94-14.1-10.17-21.17-15.41-45-33.29-74-52.18-98.22-33.68-20.11,15.39-10.31,49.3-10.21,49.64a15.78,15.78,0,0,1-18.4,20c-1.29-.19-40.08-5.76-70.84,68.77-22.3,54,8.14,76.74,43.39,103,12.31,9.18,25,18.66,34.71,29.51,242.25,271.62,409,264.47,513.32,235.47a15.75,15.75,0,0,1,8.43,30.36C882.94,1112.42,848.27,1119.14,808.74,1119.14Z"/><path class="cls-3" d="M560.13,600.14l-3.54,50a16.65,16.65,0,0,1-2.85,8.24l-.44.63h0a47.14,47.14,0,0,0-3.29,4.11c-1.16,1.6-2.29,3.25-3.34,5a94.66,94.66,0,0,0-5.77,10.69,78.73,78.73,0,0,0-6.59,23.12c-.66,4-.44,8-.49,12,.6,3.93.71,8.05,2,12,1.69,8,5.72,15.52,10,22.94l.42.71a7.86,7.86,0,0,1-12.93,8.86c-6.3-7.86-12.48-16.32-16.19-26.25-2.28-4.8-3.33-10-4.77-15.18-.78-5.26-1.73-10.59-1.67-15.94A104.14,104.14,0,0,1,515,669.42a125.52,125.52,0,0,1,5.48-14.94c1.06-2.44,2.24-4.85,3.49-7.24a80.34,80.34,0,0,1,4.47-7.55h0l-3.29,8.87,3.64-51.41a15.74,15.74,0,0,1,31.41,2.23Z"/><path class="cls-3" d="M665.75,1085.91a12.5,12.5,0,0,1-8.66-21.52C741.77,983.13,754.72,787,754.84,785a12.5,12.5,0,0,1,25,1.52c-.52,8.45-13.65,207.89-105.4,295.93A12.43,12.43,0,0,1,665.75,1085.91Z"/><path class="cls-8" d="M1759.38,1496.62c-6.74,148.87-52.26,209.28-108.46,228.34a110,110,0,0,1-37.57,5.87c-39.78-1.38-68.65-18.16-68.65-18.16s-14.65,6.15-28.08,4.85c-103.93-10.09-80.22-71.76-59.11-170.57,6.06-28.43,11.93-59.94,14.45-94.16,12-161.67-33.2-314.51-33.2-314.51l17.41-145,19.38-161.67s10.16,9.22,26.66,26.75c14.45,15.32,33.75,36.94,55.29,64.31C1645.4,1034.07,1771,1240.12,1759.38,1496.62Z"/><path class="cls-3" d="M1616.11,1746.63c-1.12,0-2.22,0-3.31-.06a180.81,180.81,0,0,1-69.27-16.81c-6.9,2.07-17.68,4.47-28.43,3.42-39.2-3.8-64.1-14.73-78.37-34.4-22.31-30.76-12.47-74.89,0-130.76,7.64-34.29,16.31-73.16,19.52-116.42,11.65-156.71-32.13-307.37-32.57-308.87a15.76,15.76,0,0,1,30.22-8.93c1.87,6.36,45.86,157.5,33.77,320.14-3.38,45.54-12.31,85.6-20.19,120.94-10.73,48.12-19.21,86.13-5.23,105.4,8.46,11.67,26.75,18.72,55.9,21.55,7.65.75,17.43-2.43,20.56-3.71l7.18-2.94,6.75,3.88c.22.12,26.26,14.82,61.25,16a93.6,93.6,0,0,0,32-5c59.38-20.15,92.29-92.19,97.81-214.14,9-197.67-67-364.34-132.38-469.36C1540.09,912.13,1465.7,843.89,1465,843.22a15.75,15.75,0,0,1,21.19-23.32c3.15,2.85,77.86,71.28,151.35,189.14,67.94,109,147,282.15,137.64,488.29-6.26,138.13-45.24,217.46-119.17,242.54A128.34,128.34,0,0,1,1616.11,1746.63Z"/><path class="cls-3" d="M1469,1314.73a12.51,12.51,0,0,1-4.26-24.26c8.55-3.1,210.24-75.19,283.54-9.28a12.5,12.5,0,1,1-16.72,18.59c-51.62-46.42-204-5.5-258.3,14.19A12.52,12.52,0,0,1,1469,1314.73Z"/><path class="cls-8" d="M1583.26,1547H850.55c-1.93-59.43-1.46-116.65.78-171.35,2.09-50.65,5.75-99.13,10.56-145.17,4.37-42.1,9.72-82.15,15.71-120,.79-5,1.73-9.88,2.76-14.65,14.84-67.14,54.74-113.65,82.15-158.63,4.65-7.64,8.94-15.2,12.68-22.84a161.43,161.43,0,0,0,10.52-26.78c.23-.79.43-1.58.59-2.36,1.89-9.81-.87-21.9-5.36-34.54-9.85-27.77-28-58.29-22.88-73.37,8.43-24.85,15.75-44.39,21.19-58.17,6.18-15.75,9.88-24,9.88-24h455.54s3.78,8.12,10.12,23.75c6.58,16.19,15.87,40.41,26.51,72.19,6.57,19.61,13.66,42.1,20.91,67.31,5.32,18.43,10.75,38.31,16.15,59.58,2.56,10.12,5.12,20.56,7.6,31.27,11.89,50.17,23.27,107,32.8,170.13,5.4,35.37,10.16,72.63,14.06,111.77,4.69,46.24,8.15,95,10.08,146.15C1585,1431.2,1585.23,1487.92,1583.26,1547Z"/><path class="cls-3" d="M911.19,983.37c.64,12.36-.06,24.29-.66,36.2s-1.76,23.65-2.82,35.4-2.82,23.31-4.41,34.93c-1.82,11.58-4.21,23.06-6.26,34.62l-3.13,17.33c-.94,5.8-1.72,11.62-2.53,17.44q-2.42,17.45-4.39,35-2.15,17.51-3.84,35.08-1.86,17.54-3.32,35.15c-4.29,46.91-5.54,94.08-7.26,141.22-1.06,23.56-2.08,47.13-3.83,70.7-1.33,23.59-2.69,47.15-15.76,70.59a2.74,2.74,0,0,1-4.83-.1c-12.11-23.92-12.41-47.72-12.3-71.48-.27-23.78.36-47.54,1.49-71.3,2.56-47.51,7.13-94.92,11.11-142.39q1.49-17.79,3.36-35.58t3.88-35.56q2-17.77,4.47-35.52l4.48-35.55c1.32-11.89,3-23.74,5.26-35.5s5.33-23.37,8.67-34.9c6.93-23,15.67-45.62,27.94-67a2.5,2.5,0,0,1,3.42-.92,2.47,2.47,0,0,1,1.25,2Z"/><path class="cls-3" d="M1580.84,1547c-13-21.15-14.26-42.48-15.36-63.79-1.54-21.29-2.37-42.57-3.18-63.81-1.29-42.49-2.34-84.93-6.84-127.09-2.1-21.09-4.68-42.13-7.6-63.13s-5.87-42-10.4-62.78c-2.09-10.41-4.37-20.78-6.15-31.25-1.62-10.5-2.91-21.07-4-31.71s-1.51-21.39-1.85-32.22a255.57,255.57,0,0,1,1-33v-.06a2.52,2.52,0,0,1,2.78-2.24,2.56,2.56,0,0,1,1.93,1.26c11,19.5,18.9,39.79,25.3,60.44a343,343,0,0,1,13.27,63.2c2.76,21.37,6.42,42.62,9.29,64s5.6,42.78,7.73,64.25c4.22,42.93,8.61,85.89,10.74,128.87.88,21.5,1.31,43,.84,64.43-.12,21.45-.52,42.88-12.71,64.49a2.81,2.81,0,0,1-3.82,1.07A2.85,2.85,0,0,1,1580.84,1547Z"/><g class="cls-12"><path class="cls-10" d="M1582.91,1411.71c-45,4.4-101.06,6-144.61-5.43v24.16a61,61,0,0,1-60.87,60.84H1045.31a61,61,0,0,1-60.8-60.84v-19.32c-43.42,6.6-94,3.75-133.17-.69,2.07-40.35,5.74-79,10.56-115.66,36,1.51,82.46,2.16,122.61-1.31v-43.34a60.94,60.94,0,0,1,60.8-60.81h332.12a60.91,60.91,0,0,1,48.43,24.1,60.25,60.25,0,0,1,12.44,36.71v40.63c40.43,5.87,92.71,5.87,134.54,4.5C1577.52,1332.1,1581,1371,1582.91,1411.71Z"/></g><path class="cls-8" d="M1048.76,1348c-45.67,18.48-116.34,14.61-164.52,8.78a51.74,51.74,0,0,1-44.93-59h0a51.74,51.74,0,0,1,53.55-44.14c45.07,2.11,112.66,3.1,155.47-6.39"/><g class="cls-12"><path class="cls-10" d="M1048.77,1348c-45.68,18.51-116.35,14.61-164.53,8.81a51.81,51.81,0,0,1-39.6-75.38,51.63,51.63,0,0,0,39.6,27.37c48.1,5.83,118.65,9.7,164.33-8.7Z"/></g><path class="cls-3" d="M957.9,1377.39a637.83,637.83,0,0,1-75.55-4.93A67.52,67.52,0,0,1,893.6,1238c66.07,3.09,119.81,1,151.32-6,5.74-1.28,25.33-2.8,35.87,31.11,9.91,31.88,8.47,85.58-26.12,99.58h0C1027.4,1373.68,992.49,1377.39,957.9,1377.39Zm90.86-29.35h0ZM890.4,1269.42a36,36,0,0,0-4.27,71.76c68.3,8.27,124,5.52,156.72-7.75,7-2.81,9.74-14.49,10.62-19.37,3.54-19.81-1.63-42.61-6.3-50.39-43.78,8.7-108.06,8-155.05,5.79C891.55,1269.43,891,1269.42,890.4,1269.42Z"/><path class="cls-8" d="M1398.06,1348c45.66,18.48,116.34,14.61,164.52,8.78a51.72,51.72,0,0,0,44.92-59h0a51.72,51.72,0,0,0-53.54-44.14c-45.07,2.11-112.67,3.1-155.48-6.39"/><g class="cls-12"><path class="cls-10" d="M1562.57,1356.84c-48.18,5.8-118.85,9.7-164.53-8.81l.2-48.34c45.68,18.39,116.23,14.53,164.33,8.69a51.48,51.48,0,0,0,39.48-27.16,51.13,51.13,0,0,1,5.47,16.66A51.78,51.78,0,0,1,1562.57,1356.84Z"/></g><path class="cls-3" d="M1488.91,1377.39c-34.59,0-69.5-3.71-96.77-14.75h0c-34.58-14-36-67.7-26.11-99.58,10.54-33.91,30.12-32.39,35.86-31.11,31.51,7,85.25,9.13,151.33,6a67.52,67.52,0,0,1,11.25,134.47A638,638,0,0,1,1488.91,1377.39Zm-84.94-44c32.76,13.27,88.42,16,156.72,7.75a36,36,0,0,0-6-71.72c-47,2.2-111.26,2.91-155-5.79-4.68,7.78-9.84,30.58-6.3,50.39.88,4.88,3.66,16.56,10.62,19.37Z"/><path class="cls-8" d="M1415.71,1214.05v161.39a54.62,54.62,0,0,1-54.46,54.45H1064a54.61,54.61,0,0,1-54.42-54.45V1214.05a54.58,54.58,0,0,1,54.42-54.42h297.22a54.57,54.57,0,0,1,54.46,54.42Z"/><g class="cls-12"><path class="cls-10" d="M1415.7,1214.05v161.39a54.6,54.6,0,0,1-54.44,54.44H1064a54.6,54.6,0,0,1-54.44-54.44v-60.37c44.64,45.52,132.43,74.09,212.94,74.51,25.87.14,46.74-20.32,48.59-46.13,0-.26,0-.51.06-.77a46.95,46.95,0,0,1,93.46-.62c39-48.11,27.56-131.74,39.95-160.85A54,54,0,0,1,1415.7,1214.05Z"/></g><path class="cls-3" d="M1361.27,1445.63H1064a70.25,70.25,0,0,1-70.18-70.17V1214a70.25,70.25,0,0,1,70.18-70.17h297.23a70.26,70.26,0,0,1,70.18,70.17v161.42A70.26,70.26,0,0,1,1361.27,1445.63ZM1064,1175.37a38.72,38.72,0,0,0-38.68,38.67v161.42a38.72,38.72,0,0,0,38.68,38.67h297.23a38.72,38.72,0,0,0,38.67-38.67V1214a38.72,38.72,0,0,0-38.67-38.67Z"/><circle class="cls-13" cx="1317.95" cy="1294.75" r="46.94" transform="translate(-529.51 1311.16) rotate(-45)"/><g class="cls-14"><path class="cls-8" d="M1364.89,1294.75a47.59,47.59,0,0,1-.92,9.38,47,47,0,0,0-92,0,47.59,47.59,0,0,1-.92-9.38,46.95,46.95,0,0,1,93.89,0Z"/></g><g class="cls-12"><path class="cls-10" d="M1364.87,1294.74a46.93,46.93,0,1,1-93.85,0,45.68,45.68,0,0,1,3.22-17,46.89,46.89,0,0,0,87.41,0A45.68,45.68,0,0,1,1364.87,1294.74Z"/></g><path class="cls-3" d="M1318,1353.5a58.75,58.75,0,1,1,58.75-58.75A58.82,58.82,0,0,1,1318,1353.5Zm0-93.87a35.12,35.12,0,1,0,35.12,35.12A35.17,35.17,0,0,0,1318,1259.63Z"/><path class="cls-3" d="M1184.94,1441.7a11.81,11.81,0,0,1-11.81-11.82v-85.74a47.28,47.28,0,0,0-18.74-37.56l-12.56-9.45a71,71,0,0,1-28.15-56.43v-81.08a11.82,11.82,0,0,1,23.63,0v81.08a47.24,47.24,0,0,0,18.74,37.55l12.55,9.46a71,71,0,0,1,28.15,56.43v85.74A11.81,11.81,0,0,1,1184.94,1441.7Z"/><g class="cls-12"><path class="cls-10" d="M1572.88,938.13c-10.77,10-22.05,19.47-33.7,28.35a484.93,484.93,0,0,1-74.54,47.07A481.76,481.76,0,0,1,940.57,956.3c-1.09-.84-2.19-1.77-3.24-2.69a482.89,482.89,0,0,1-98.48-112.83A447.42,447.42,0,0,0,957,861.19c-10.52-29.66-29.87-62.26-24.44-78.37,9-26.55,16.82-47.41,22.63-62.14,6.6-16.82,10.56-25.62,10.56-25.62h486.58s4,8.67,10.81,25.37c7,17.29,17,43.16,28.32,77.11,7,21,14.59,45,22.33,71.89C1529.25,885.8,1549.86,908.89,1572.88,938.13Z"/></g><path class="cls-8" d="M1706.18,723.72h0a9.94,9.94,0,0,1-8.47-11.24l40-284A10,10,0,0,1,1749,420h0a104.47,104.47,0,0,1,88.87,118l-13.64,96.84A104.44,104.44,0,0,1,1706.18,723.72Z"/><path class="cls-11" d="M1720.81,727.82a108.34,108.34,0,0,1-15.06-1.05,13,13,0,0,1-11.08-14.72l40-284A13,13,0,0,1,1749.37,417a107.52,107.52,0,0,1,91.49,121.46l-13.64,96.85A107.7,107.7,0,0,1,1720.81,727.82ZM1747.54,423a6.86,6.86,0,0,0-6.8,5.92l-40,284a6.88,6.88,0,0,0,5.86,7.78,101.49,101.49,0,0,0,114.53-86.26l13.64-96.85A101.51,101.51,0,0,0,1748.52,423,8.06,8.06,0,0,0,1747.54,423Z"/><g class="cls-12"><path class="cls-10" d="M1830.58,589.44l-6.39,45.42a104.5,104.5,0,0,1-118,88.88,10,10,0,0,1-8.47-11.27l10.61-75.5a10,10,0,0,0,8.14,7.12l6.74.93A104.41,104.41,0,0,0,1830.58,589.44Z"/></g><path class="cls-3" d="M1720.82,741.84a121.3,121.3,0,0,1-17-1.2,27,27,0,0,1-23-30.55l40-284a27,27,0,0,1,30.54-23,121.52,121.52,0,0,1,103.4,137.3l-13.63,96.85C1832.56,697.87,1780.39,741.83,1720.82,741.84Zm-5.16-34.32a87.48,87.48,0,0,0,91.61-75l13.63-96.85a87.49,87.49,0,0,0-67.32-97.42Z"/><path class="cls-8" d="M811.53,288h0A10,10,0,0,1,820,299.25l-40,284a10,10,0,0,1-11.25,8.48h0a104.46,104.46,0,0,1-88.87-118l13.63-96.84A104.46,104.46,0,0,1,811.53,288Z"/><path class="cls-11" d="M770.16,594.89a14.06,14.06,0,0,1-1.83-.12A107.52,107.52,0,0,1,676.85,473.3l13.63-96.85A107.52,107.52,0,0,1,812,285h0A13,13,0,0,1,823,299.68l-40,284A13.05,13.05,0,0,1,770.16,594.89ZM796.75,290A101.43,101.43,0,0,0,696.56,377.3l-13.63,96.85a101.38,101.38,0,0,0,86.26,114.54,6.87,6.87,0,0,0,7.78-5.86l40-284A6.9,6.9,0,0,0,811.1,291h0A103.77,103.77,0,0,0,796.75,290Z"/><g class="cls-12"><path class="cls-10" d="M791.12,504.47,780,583.26a10,10,0,0,1-11.27,8.47,104.44,104.44,0,0,1-88.86-118l5.75-40.81a104.5,104.5,0,0,0,85.67,74l10.37,1.45A10.05,10.05,0,0,0,791.12,504.47Z"/></g><path class="cls-3" d="M770.16,608.91a26.91,26.91,0,0,1-3.78-.27A121.54,121.54,0,0,1,663,471.34l13.64-96.84a121.54,121.54,0,0,1,137.3-103.41h0a27,27,0,0,1,23,30.54l-40,284A27.09,27.09,0,0,1,770.16,608.91Zm26.62-304.86a87.41,87.41,0,0,0-86.34,75.21L696.8,476.1a87.41,87.41,0,0,0,67.32,97.44l37.93-269.33C800.29,304.1,798.53,304.05,796.78,304.05Zm12.36.87Z"/><circle class="cls-8" cx="1258.91" cy="505.87" r="488.74"/><path class="cls-11" d="M1259,997.73a491.67,491.67,0,0,1-103-11C890.79,930,721.24,668.1,778,402.93S1096.66-31.81,1361.86,25s434.72,318.68,378,583.86h0C1690.45,839.44,1485.91,997.73,1259,997.73Zm-.21-977.58c-224.09,0-426,156.31-474.81,384.06-56,261.87,111.39,520.51,373.25,576.57s520.51-111.38,576.57-373.25S1622.44,87,1360.57,31A486,486,0,0,0,1258.81,20.15Z"/><g class="cls-12"><path class="cls-10" d="M1746.4,541a486,486,0,0,1-9.57,67.14c-56.54,263.93-316.29,432.09-580.23,375.62S724.51,667.51,781,403.57c1.62-7.59,3.43-15.15,5.39-22.55C768.79,620.55,930.06,842.4,1171.56,894.1,1427.91,949,1680.27,791.92,1746.4,541Z"/></g><path class="cls-3" d="M1259,1011.75a505.81,505.81,0,0,1-106-11.27C880.3,942.1,705.92,672.72,764.3,400S1092.07-47.12,1364.79,11.26,1811.9,339,1753.52,611.75h0C1702.75,848.94,1492.38,1011.75,1259,1011.75Zm-.21-977.59c-217.62,0-413.76,151.8-461.11,373-54.43,254.31,108.18,505.49,362.48,559.93s505.5-108.17,559.94-362.48S1612,99.11,1357.64,44.67A472,472,0,0,0,1258.81,34.16Zm478,574h0Z"/><path class="cls-15" d="M1732.66,620.12c-18.6,93.81-66.32,174.87-132.7,236.6-49.76,46.28-229,109-427.56,71.48C988.3,893.4,840.52,762.26,812.19,700.5c-37.79-82.39-51-175.53-32.36-269.34,49.23-248.25,282.93-308.87,546.06-256.68S1781.9,371.87,1732.66,620.12Z"/><g class="cls-16"><ellipse class="cls-8" cx="1584.51" cy="555.69" rx="86.49" ry="62.67" transform="translate(487.03 1826.52) rotate(-68.51)"/></g><g class="cls-16"><ellipse class="cls-8" cx="1475.88" cy="708.81" rx="39.7" ry="34.07" transform="translate(133.35 1645.97) rotate(-60.57)"/></g><g class="cls-12"><path class="cls-10" d="M1685.93,370.15c47.22,67.13,66.49,150.25,46.73,250C1714.05,713.94,1666.31,795,1600,856.73c-49.77,46.27-229,109-427.6,71.48-70.11-13.23-134.92-40.45-189.91-72.52,245,40.9,463.59-36.37,525.3-93.78,84.24-78.35,144.81-181.23,168.4-300.28A494.22,494.22,0,0,0,1685.93,370.15Z"/></g><path class="cls-3" d="M1734.87,409.48a15.18,15.18,0,0,1-11.69-5.48l-1.31-1.53-.9-2C1663,272,1520.59,176.72,1330.15,139c-191.48-38-359.77-2.1-461.72,98.4l-1.17,1a15.18,15.18,0,0,1-19.85-23C956.67,108,1134.74,69.23,1336.06,109.16c199.83,39.64,350,141,412.25,278.08a15.18,15.18,0,0,1-13.44,22.24Z"/><g class="cls-16"><path class="cls-8" d="M857.53,600.06s-28.32-260.15,123-331.56,341.15-33.37,334.3-22.07c0,0-220.32,9.2-335.53,159.08C890.48,521.09,857.53,600.06,857.53,600.06Z"/></g><g class="cls-9"><path class="cls-10" d="M1348,1536.35s168.15-58.63,307.27,82.75c127.85,129.93-21.58,258.12-21.58,258.12s46,177.06-73.52,199.77c-101.47,19.27-193.17-78.8-181.45-200.14,9.64-99.78,31.55-90.49,23.48-145.21-9.14-62-141.22-75.91-141.22-75.91h-49.68s-132.07,14-141.21,75.91c-8.07,54.72,13.83,45.43,23.47,145.21,11.72,121.34-80,219.41-181.44,200.14-119.57-22.71-73.52-199.77-73.52-199.77S689.14,1749,817,1619.1c139.12-141.38,307.27-82.75,307.27-82.75Z"/></g><path class="cls-8" d="M1371.66,1485.12s203.74-118.77,372.31,52.55c154.92,157.43-26.15,312.77-26.15,312.77s55.8,214.54-89.08,242.06c-123,23.35-234.06-95.49-219.86-242.52,11.68-120.9,38.22-109.64,28.44-176-11.07-75.07-171.11-92-171.11-92H1206s-160,16.91-171.11,92c-9.78,66.31,16.77,55,28.45,176,14.2,147-96.91,265.87-219.86,242.52-144.88-27.52-89.08-242.06-89.08-242.06s-181.07-155.34-26.16-312.77c168.57-171.32,372.32-52.55,372.32-52.55"/><g class="cls-12"><path class="cls-10" d="M1707,2044.72c-14.93,22.41-39.36,40.43-78.21,47.79-123,23.36-234.07-95.52-219.87-242.53,11.68-120.91,38.21-109.65,28.45-175.93-11.08-75.08-171.14-92-171.14-92H1206s-160,16.9-171.1,92c-9.8,66.28,16.77,55,28.45,175.93,14.21,147-96.9,265.89-219.87,242.53-38.84-7.36-63.28-25.38-78.21-47.79,1.07.21,2.14.42,3.21.59,146.45,25.29,278.79-100.13,261.89-259.38-13.95-130.92-45.57-118.72-33.89-190.56,13.18-81.29,203.78-99.6,203.78-99.6H1272s190.61,18.31,203.78,99.6c11.64,71.84-20,59.64-33.88,190.56-16.9,159.25,115.43,284.67,261.88,259.38C1704.82,2045.14,1705.89,2044.93,1707,2044.72Z"/></g><path class="cls-3" d="M1369,1480.58c27.19-18.69,57.45-31.34,89.21-40a323.14,323.14,0,0,1,48.65-9.19,327,327,0,0,1,49.9-1c16.71.93,33.3,3.8,49.67,7.54s32.22,9.64,47.76,16c30.72,13.76,58.85,32.69,83.69,54.77,24.63,21.9,46.9,48.17,62.89,78.54a208.76,208.76,0,0,1,17.69,48.63,186.62,186.62,0,0,1,3.38,51.84c-2.53,34.64-14.42,67.5-31.06,96.52a324.1,324.1,0,0,1-28.21,41.32c-5.23,6.46-10.6,12.81-16.3,18.88-2.83,3.06-5.72,6.06-8.71,9s-5.86,5.74-9.49,8.93l5-15.92c2.89,11.77,4.82,22.63,6.55,34s2.9,22.61,3.65,34a319.62,319.62,0,0,1-2.37,69.19,220.58,220.58,0,0,1-8.28,34.63,167.42,167.42,0,0,1-15.53,33.18,133.87,133.87,0,0,1-24.6,28.44,131.09,131.09,0,0,1-32.21,19.56,158.56,158.56,0,0,1-35.43,9.54c-5.91,1.08-11.94,1.36-17.92,1.91-6,.07-12.05.42-18.06-.07a170.79,170.79,0,0,1-35.64-5.4,177.28,177.28,0,0,1-33.78-12.25c-43.38-20.62-77.54-56.74-99-98.35-21.5-41.78-30.83-89.26-28-135.71.65-11.82,2.12-22.65,3.38-33.89l2.4-16.77,3-16.77c2.32-11.17,4.8-22.39,8.11-33.4,3.14-11,7.07-21.84,10-31.51a88.47,88.47,0,0,0,4.3-27.87,66.83,66.83,0,0,0-.26-7.29c-.16-2.46-.27-4.91-.65-7.47l-.93-7.61c-.48-2-.74-3.88-1.31-5.79-4.48-15.08-19-28.41-36.33-38.12-17.39-9.86-37.24-17-57.52-22.67a437.81,437.81,0,0,0-62-12.29l1.65.08H1206l1.66-.08a437.53,437.53,0,0,0-62.05,12.29c-20.29,5.64-40.14,12.81-57.53,22.67-17.36,9.71-31.84,23-36.32,38.12-.57,1.91-.83,3.77-1.32,5.79l-.93,7.61c-.38,2.56-.49,5-.64,7.47a66.88,66.88,0,0,0-.27,7.29,88.77,88.77,0,0,0,4.31,27.87c2.95,9.67,6.88,20.52,10,31.51,3.3,11,5.79,22.23,8.11,33.4l3,16.77,2.39,16.77c1.27,11.24,2.73,22.07,3.39,33.89,2.84,46.45-6.48,93.93-28,135.71-21.48,41.61-55.64,77.73-99,98.35A176.94,176.94,0,0,1,919,2105.48a170.89,170.89,0,0,1-35.64,5.4c-6,.49-12,.14-18.06.07-6-.55-12-.83-17.92-1.91A158.64,158.64,0,0,1,812,2099.5a131,131,0,0,1-32.2-19.56,133.92,133.92,0,0,1-24.61-28.44,167.37,167.37,0,0,1-15.52-33.18,220.58,220.58,0,0,1-8.28-34.63A319,319,0,0,1,729,1914.5q1.13-17.12,3.66-34c1.72-11.38,3.66-22.24,6.54-34l5,15.92c-3.64-3.19-6.44-5.91-9.49-8.93s-5.88-6-8.72-9c-5.7-6.07-11.07-12.42-16.3-18.89a325,325,0,0,1-28.21-41.31c-16.61-29-28.58-61.87-31-96.52a186.35,186.35,0,0,1,3.55-51.8,207.84,207.84,0,0,1,17.84-48.48c16.17-30.2,38.53-56.23,63.26-77.89,24.76-22,52.61-41.15,83.25-54.92,30.46-14,63.52-23,97-25.42a314,314,0,0,1,50.12.63,323.07,323.07,0,0,1,48.93,8.88,303.7,303.7,0,0,1,46.38,16.84c14.92,7,29.15,14.81,42.43,25a5.29,5.29,0,0,1-5,9.19l-.32-.11a543.86,543.86,0,0,0-89.63-22.84c-15-2.5-30.15-3.87-45.2-4.85-7.54-.09-15.06-.54-22.56-.21-3.75.11-7.51.1-11.25.29l-11.2.81a278.55,278.55,0,0,0-86.59,21.36,257,257,0,0,0-39.56,21.31,280.25,280.25,0,0,0-35.9,27.54c-23,20.1-42.43,43.18-56.29,69a176.23,176.23,0,0,0-15,40.6,154.8,154.8,0,0,0-2.91,42.86c2,28.81,12.09,57.21,26.93,83.13a293.91,293.91,0,0,0,25.43,37.23c4.75,5.87,9.64,11.64,14.8,17.14,2.56,2.76,5.17,5.47,7.82,8.1s5.5,5.35,7.82,7.39l7.32,6.42-2.33,9.5c-2.34,9.57-4.32,20.36-5.87,30.7s-2.69,21-3.38,31.49a288.29,288.29,0,0,0,2.07,62.28,190.85,190.85,0,0,0,7,29.4,136.68,136.68,0,0,0,12.31,26.4,102.86,102.86,0,0,0,18.34,21.24,99.91,99.91,0,0,0,23.92,14.5,127.63,127.63,0,0,0,28.06,7.48c4.91.93,9.88,1.1,14.83,1.59,5,0,9.93.37,14.88-.07A138.79,138.79,0,0,0,911.2,2075a145.83,145.83,0,0,0,28.06-10.18c36.25-17.19,65.84-48.07,84.56-84.36,18.73-36.44,27-78.2,24.51-119.42-.53-10.13-2-21.09-3.17-31.68l-2.27-15.85-2.76-15.68c-2.16-10.34-4.42-20.58-7.44-30.63s-6.48-20-10-31.29a120.63,120.63,0,0,1-5.63-37c-.1-3.15.12-6.15.32-9.17s.36-6.06.77-8.93l1.08-8.76c.67-3.33,1.3-6.92,2.3-10.26,4.11-13.57,12.11-25.17,21.17-34.27s19.32-16.22,29.72-22.18c20.9-11.81,42.76-19.53,64.75-25.67a465.2,465.2,0,0,1,67.14-13.26l.71-.09h62.08l.72.09a465.47,465.47,0,0,1,67.14,13.26c22,6.14,43.85,13.86,64.75,25.67,10.4,6,20.61,13,29.72,22.18s17,20.7,21.16,34.27c1,3.34,1.64,6.93,2.31,10.26l1.07,8.76c.42,2.87.58,5.91.77,8.93s.42,6,.33,9.17a120.93,120.93,0,0,1-5.63,37c-3.48,11.34-7.07,21.15-10,31.29s-5.28,20.29-7.43,30.63l-2.77,15.68-2.26,15.85c-1.19,10.59-2.64,21.55-3.18,31.68-2.53,41.22,5.78,83,24.52,119.42,18.71,36.29,48.3,67.17,84.56,84.36A145.83,145.83,0,0,0,1561,2075a138.6,138.6,0,0,0,29.39,4.45c4.95.44,9.92.09,14.88.07,5-.49,9.92-.66,14.83-1.59a127.39,127.39,0,0,0,28-7.48,100.17,100.17,0,0,0,23.93-14.5,102.86,102.86,0,0,0,18.34-21.24,136.65,136.65,0,0,0,12.3-26.4,189.69,189.69,0,0,0,7-29.4,288.28,288.28,0,0,0,2.08-62.28c-.69-10.51-1.83-21-3.38-31.49s-3.53-21.13-5.88-30.7l-2.33-9.5,7.32-6.42c2.33-2,5.25-4.82,7.82-7.39s5.27-5.34,7.83-8.1c5.16-5.49,10-11.27,14.79-17.14a292.87,292.87,0,0,0,25.43-37.23c14.82-25.92,25-54.32,26.89-83.14a154.37,154.37,0,0,0-3.09-42.8,175.47,175.47,0,0,0-15.12-40.45c-14-25.64-33.65-48.39-56.61-68.39a305.1,305.1,0,0,0-75-49.06,277.83,277.83,0,0,0-86.27-23c-29.89-3.11-60.42-1.66-90.68,3.24a431.87,431.87,0,0,0-89.23,24.62l-.36.14a5.26,5.26,0,0,1-4.93-9.22Z"/><path class="cls-3" d="M1723.8,1865.08l-10.84,3.45c-4,1.13-8,2.17-12.08,2.94a146,146,0,0,1-24.27,2.77,194.44,194.44,0,0,1-46.93-4.59,273,273,0,0,1-43.54-14.19c-7-2.76-13.73-6.31-20.54-9.41-6.66-3.47-13.2-7.14-19.75-10.67,7.1,2.34,14.13,4.79,21.21,7,7.21,1.84,14.24,4.12,21.48,5.57a261.61,261.61,0,0,0,43.25,6.08,174.18,174.18,0,0,0,42.07-3.27,120.07,120.07,0,0,0,19.47-5.81c3.12-1.19,6.12-2.58,9.1-4l9.76-5.14a15.84,15.84,0,0,1,14.75,28,16.33,16.33,0,0,1-2.49,1.06Z"/><path class="cls-3" d="M761.63,1835.79l9.76,5.14c3,1.45,6,2.84,9.1,4a120,120,0,0,0,19.46,5.81A174.27,174.27,0,0,0,842,1854a261.76,261.76,0,0,0,43.25-6.08c7.23-1.45,14.27-3.73,21.48-5.57,7.07-2.22,14.1-4.67,21.21-7-6.55,3.53-13.09,7.2-19.76,10.67-6.81,3.1-13.5,6.65-20.53,9.41a273.06,273.06,0,0,1-43.55,14.19,194.39,194.39,0,0,1-46.93,4.59,145.8,145.8,0,0,1-24.26-2.77c-4.06-.77-8.09-1.81-12.09-2.94L750,1865.08l-.57-.18a15.84,15.84,0,0,1,9.6-30.19A16.89,16.89,0,0,1,761.63,1835.79Z"/><path class="cls-3" d="M1799.59,1735.72a11.85,11.85,0,0,1-11.57-14.29c5.44-25.41,1.48-43.43-12.12-55.09-56.38-48.38-259,13.42-332.3,41.32a11.81,11.81,0,1,1-8.4-22.08c28.32-10.78,278.93-103.38,356.09-37.18,20.48,17.58,27.16,43.81,19.84,78A11.83,11.83,0,0,1,1799.59,1735.72Z"/><path class="cls-3" d="M677.39,1735.72a11.83,11.83,0,0,1-11.54-9.34c-7.32-34.17-.64-60.4,19.84-78,77.16-66.2,327.77,26.4,356.09,37.18a11.81,11.81,0,0,1-8.4,22.08c-73.32-27.89-276-89.68-332.3-41.32C687.48,1678,683.52,1696,689,1721.43a11.85,11.85,0,0,1-11.57,14.29Z"/></g></g></svg>