<svg xmlns="http://www.w3.org/2000/svg" viewBox="0 0 2398.06 2316.06"><defs><style>.cls-1{fill:#fff;}.cls-2{fill:#282828;}.cls-3{opacity:0.35;}.cls-4{fill:#3f3f3f;}.cls-5{fill:#371a45;}.cls-6{opacity:0.3;}.cls-7{fill:#22a7f0;}.cls-8{opacity:0.8;}.cls-9{fill:#303030;}.cls-10{fill:#1e1e1e;}.cls-11{opacity:0.5;}</style></defs><g id="Capa_2" data-name="Capa 2"><g id="Layer_1" data-name="Layer 1"><path class="cls-1" d="M733.33,1814.67c-10.57,64.66-62.68,90.38-165.32,70.09s-142.14,23.19-149,31.55C396,1944.59,229.44,2212.85,387.91,2289c111.77,53.68,228.61-121.76,228.61-121.76S880.11,2344,1245.82,1942"/><path class="cls-2" d="M905.07,2166.16c-31.34,0-61.3-5.3-88.92-15.89-88.78-34-154.27-120.31-194.63-256.42a16.92,16.92,0,1,1,32.45-9.62c37.22,125.48,95.86,204.36,174.3,234.43,109.41,42,221.86-25.78,223-26.47a16.93,16.93,0,0,1,17.71,28.86c-1.31.79-32.39,19.69-78.77,32.81A313.09,313.09,0,0,1,905.07,2166.16Z"/><g class="cls-3"><path class="cls-4" d="M387.92,2289c111.77,53.67,228.59-121.76,228.59-121.76S880.1,2343.94,1245.82,1942l-335.33-83.35c-118.78,218.48-307.88,210-307.88,210s-64.46,216.57-231.83,163.56c-45-14.28-37.85-69.76-48.51-89C314.52,2203.78,327.9,2260.14,387.92,2289Z"/></g><path class="cls-2" d="M432.24,2316.06a118,118,0,0,1-51.66-11.85c-39.2-18.82-63.8-49.53-73.1-91.27-11.11-49.84-.09-113.64,32.77-189.65,24.14-55.85,54.7-104.2,65.69-117.68,11.56-14.17,57.64-58.75,165.35-37.46,54.91,10.86,94.71,8.07,118.28-8.29,14.59-10.13,23.44-25.81,27.06-47.92A16.93,16.93,0,1,1,750,1817.4c-5.11,31.21-19,54.85-41.17,70.27-31.84,22.09-79,26.57-144.15,13.69-91.49-18.08-126.47,18.2-132.55,25.65-14.34,17.58-114.61,175.59-91.65,278.56,7,31.54,24.93,53.82,54.72,68.13,97.18,46.68,206.11-114.26,207.19-115.9l9.42-14.1,14.1,9.44c.58.38,64.19,41.56,169.63,35.15,98.17-6,253.79-55.51,437.72-257.65a16.93,16.93,0,0,1,25,22.78c-84.75,93.14-171.31,163.24-257.27,208.34-69.53,36.48-138.88,56.83-206.12,60.48-7.5.4-14.82.59-21.92.59-75.16,0-127.74-21.3-151.6-33.43-12.2,16.3-35.78,45.41-66.26,71.64C512.74,2297.54,471.06,2316.06,432.24,2316.06Z"/><path class="cls-1" d="M1201.54,1159.18c-10.69-1.86-235.85-107.77-386.89-105.61-125.92,1.8-365.83,427-323.59,538.77,39.14,103.56,257,197.71,257,197.71Z"/><path class="cls-1" d="M1201.54,1159.19l-73.7,102.54L748.06,1790.05s-105.64-45.65-183-108.37c-33.75-27.31-62.08-57.87-74-89.34-42.24-111.75,197.67-537,323.61-538.78C965.69,1051.41,1190.83,1157.32,1201.54,1159.19Z"/><g class="cls-3"><path class="cls-4" d="M1127.84,1261.73,748.06,1790.05a.62.62,0,0,1-.17-.06c-.48-.23-2-.9-4.53-2-.49-.22-1.05-.47-1.63-.75a1.59,1.59,0,0,1-.33-.13c-.52-.23-1.11-.52-1.7-.76-1.39-.68-3-1.39-4.75-2.2-.42-.22-.88-.41-1.33-.63s-.81-.4-1.24-.58-1.07-.51-1.62-.79c-5.62-2.64-12.46-6-20.19-9.83-1-.45-1.91-.94-2.88-1.44-2.91-1.47-6-3-9.08-4.64l-3.16-1.63c-1.23-.61-2.48-1.29-3.77-1.95-1.54-.84-3.12-1.66-4.73-2.51-.49-.23-.94-.49-1.38-.75-1.16-.63-2.32-1.23-3.51-1.87-3.31-1.8-6.68-3.61-10.12-5.5-.09,0-.22-.14-.35-.2-2.37-1.31-4.81-2.67-7.23-4.06a.56.56,0,0,1-.2-.11c-1.76-1-3.52-2-5.31-3-1.12-.62-2.24-1.28-3.38-1.95-4.25-2.46-8.59-5-13-7.6-2.8-1.67-5.63-3.42-8.48-5.17-2.58-1.56-5.18-3.19-7.77-4.83s-5.19-3.3-7.81-5-5.21-3.41-7.83-5.12-5.19-3.48-7.76-5.25-5.18-3.55-7.74-5.39c0,0,0,0,0,0-2.57-1.8-5.13-3.64-7.65-5.47l-7.59-5.61c-.41-.29-.81-.61-1.18-.88-2.11-1.62-4.22-3.24-6.29-4.85-2.47-1.93-4.9-3.88-7.34-5.84-33.75-27.31-62.08-57.87-74-89.34-22-58.31,32.76-202,108.1-326.31-33.48,79-50.41,150.25-36.43,187.24,4.89,13,12.56,25.74,22.25,38.22a216.67,216.67,0,0,0,37.76,37.94C707.66,1377.92,865,1201.63,949.32,1210c48.75,4.87,103.95,21.89,156.64,42.78C1113.3,1255.71,1120.63,1258.69,1127.84,1261.73Z"/></g><path class="cls-2" d="M753.87,1811l-12.51-5.4a1014.53,1014.53,0,0,1-116-61.14c-82-50.42-132.57-99.59-150.16-146.13-16.79-44.43,5.08-119.4,26.38-174.47,27-69.72,68.79-148.43,114.73-215.93,43.23-63.53,126.46-170.25,198.08-171.28,55.58-.81,126.9,12.35,212,39.07,68.53,21.52,127.94,46.07,159.86,59.26,8.44,3.49,16.44,6.79,19,7.68l25.8,4.48Zm65.37-740.53c-1.46,0-2.9,0-4.35,0C775,1071.06,709.61,1131,644.31,1227c-44.55,65.46-85.06,141.67-111.14,209.09-26.7,69-36.28,123.82-26.28,150.29,14.64,38.75,61.62,83.37,135.87,129a1021.43,1021.43,0,0,0,99.67,53.51L1175.09,1167l-1.77-.73C1115.65,1142.42,941.52,1070.46,819.24,1070.46Zm386.41,72.32h0Z"/><path class="cls-5" d="M806.19,1046.32c5.53,6,10.8,11.92,16.12,17.94s10.54,12,15.73,18.11c10.4,12.15,20.63,24.44,30.59,37s19.77,25.25,29.06,38.44c1.17,1.65,2.35,3.27,3.5,4.93l3.4,5c2.25,3.38,4.59,6.64,6.71,10.14s4.37,6.86,6.46,10.39l6.1,10.73a9.67,9.67,0,0,1-16.64,9.85l-.19-.3c-7.93-12.93-17.28-25.38-26.92-37.57s-19.9-24.07-30.31-35.78-21.11-23.22-32-34.57q-8.13-8.52-16.41-16.9c-5.5-5.57-11.1-11.19-16.61-16.54l0,0a14.95,14.95,0,0,1,20.84-21.44C805.8,1045.91,806,1046.13,806.19,1046.32Z"/><path class="cls-1" d="M584.63,1281.41l106.43,83.33a26.45,26.45,0,0,1,8,31.4c-17.62,40.52-63.19,132-117,136.32-44.63,3.59-90.2-30.8-102.26-72.87-13.48-47,38.74-131.74,66.6-172.32A26.5,26.5,0,0,1,584.63,1281.41Z"/><g class="cls-3"><path class="cls-5" d="M699,1396.15c-17.6,40.52-63.19,132-116.95,136.29-44.64,3.6-90.2-30.79-102.27-72.87-8.27-28.94,8.29-72.12,28.75-110.5-7,21.35-8.8,41.25-5.35,57.42,19.79,92.63,105.21,56.12,105.21,56.12s-3.19,20.6,2.05,25.39c21.9,20,67.88-59.69,90.72-101.48A25.63,25.63,0,0,1,699,1396.15Z"/></g><path class="cls-5" d="M575.75,1549.64c-49,0-98.29-36.88-112.19-85.39-14.4-50.24,29.53-129.18,68.92-186.56a43.42,43.42,0,0,1,62.59-9.61h0l106.43,83.33a43.41,43.41,0,0,1,13.08,51.48c-9.87,22.68-26,55.8-46.68,84.81-27.54,38.61-55.95,59.34-84.45,61.63C580.89,1549.54,578.31,1549.64,575.75,1549.64Zm-7.46-257a9.93,9.93,0,0,0-1.47.11,9.53,9.53,0,0,0-6.43,4C512,1367.37,488,1426.46,496.11,1454.93c9.75,34,45.37,60.86,79.52,60.86,1.71,0,3.41-.07,5.1-.2,36.6-2.95,77.1-67.12,102.8-126.2a9.56,9.56,0,0,0-2.9-11.33L574.2,1294.74A9.46,9.46,0,0,0,568.29,1292.69Z"/><path class="cls-5" d="M517.86,1496.23h-.11l.12,0,.4.06c.31,0,.61.09,1,.12.68.08,1.42.13,2.17.16,1.49.08,3.07.07,4.65,0a77.81,77.81,0,0,0,9.72-1,83.79,83.79,0,0,0,9.82-2.25,92.1,92.1,0,0,0,9.7-3.37,125.23,125.23,0,0,0,35.76-22.77,180.07,180.07,0,0,0,15.46-15.66l3.62-4.23,3.58-4.42c1.21-1.46,2.36-3,3.52-4.45s2.35-3,3.46-4.51c4.57-6,8.91-12.21,12.91-18.57,2-3.18,3.91-6.39,5.66-9.67.87-1.63,1.71-3.28,2.5-4.93.37-.82.77-1.65,1.1-2.46.17-.41.35-.82.5-1.21l.4-1,.2-.53a4.46,4.46,0,0,1,8.5,2.6l-.22.94-.2.79c-.14.53-.29,1-.44,1.53-.28,1-.61,2-.93,2.94-.66,1.93-1.37,3.81-2.11,5.68-1.48,3.73-3.13,7.34-4.83,10.94-3.44,7.15-7.23,14.08-11.24,20.86-1,1.72-2,3.37-3,5.06s-2,3.37-3.11,5l-3.17,5-3.38,5a195.51,195.51,0,0,1-15,19.1A147.31,147.31,0,0,1,566,1512.22a120.44,120.44,0,0,1-11.61,5.59,110.53,110.53,0,0,1-12.34,4.36,104.3,104.3,0,0,1-13,2.89c-2.25.33-4.52.62-6.88.77-1.18.09-2.37.15-3.62.17-.61,0-1.27,0-1.92,0l-1,0-.6,0-.31,0-.52,0a14.94,14.94,0,0,1,3.78-29.65Z"/><path class="cls-1" d="M1459.75,1517.88s51.88,7.21,132.87,1.2c162-12.06,440.71-76.83,654.88-357.34,27.92-36.55,163.08-51.52,127.8-127.66-10.7-23.1-38.74-28-38.74-28s41.09-16.83,31.55-59.59c-15.1-67.57-137.94-38.6-137.94-38.6s41.12-43.29,50.24-84c6.35-28.55-13.58-54.37-31.29-61.19-50.25-19.31-153.52,56.55-216.34,99-59.19,39.94-97.28,91.64-136.58,144.71-61.32,82.72-125.67,168.78-277.85,218.81-51,16.73-111.78,29.46-185.64,36.64l18.22,172.69Z"/><g class="cls-3"><path class="cls-4" d="M1459.75,1517.88s51.88,7.21,132.87,1.2c162-12.06,440.71-76.83,654.88-357.34,23.64-30.9,124-46.39,133-96.51-11.09-23.69-104.12,43.82-129,50.83-48.22,13.6-58.79-15.76-60.79-28.6-7.62-48.8,173.46-74.37,175.72-117.09,2.89-54.55-55.17,41.5-191.86,44.18-43.23.85-54-52.53-55.64-48.77-49,110.56,35.07,186.17-14.06,258.47-146.78,216-368.56,182.28-505.71,192.49-81,6-132.87-1.2-132.87-1.2l-8.82-83.37-7.63-72.17c-5.63.66-11.36,1.26-17.13,1.82l18.22,172.69Z"/></g><path class="cls-2" d="M1529.37,1538.47c-43.36,0-69.67-3.5-71.94-3.82a16.93,16.93,0,1,1,4.65-33.53c1.13.16,116.4,15.31,268.6-20.3,139.93-32.75,340.85-116.47,503.39-329.36,12-15.66,35.52-26.44,60.47-37.86,28.59-13.08,61-27.9,68.17-47.31,2.64-7.15,1.74-15.35-2.77-25.07-6.57-14.2-25.19-18.22-26.36-18.46a16.83,16.83,0,0,1-3.5-32.31c3.19-1.39,27.59-13,21.49-40.26-2-9.1-6.76-15.71-14.88-20.8-27.78-17.41-83.52-9.52-102.65-5a16.93,16.93,0,0,1-16.16-28.13c.37-.4,38-40.47,46-76.06,4.56-20.38-11.13-38-20.82-41.7-10.48-4-32.69-3.85-78.89,19.89-35.07,18-73.26,44.1-103.94,65.06-6.27,4.29-12.29,8.4-18,12.23-56.3,38-92.82,87.29-131.49,139.48-41.79,56.4-85,114.73-156.29,163.09-80.25,54.43-185,87.29-320.11,100.43a16.93,16.93,0,0,1-3.28-33.7c288-28,371.63-140.85,452.48-250,38.66-52.18,78.64-106.14,139.75-147.38,5.63-3.8,11.59-7.87,17.81-12.12,31.46-21.49,70.62-48.24,107.57-67.22,47.33-24.32,81.17-31.12,106.51-21.39,26.57,10.22,49.67,45.08,41.71,80.7-4.6,20.57-16.09,41.25-27.34,57.78.81-.06,1.63-.11,2.45-.15,35.28-2,63.09,3.24,82.65,15.49,15.85,9.93,25.92,24.1,29.94,42.11,5.85,26.15-2.89,46-14.92,59.58a61.77,61.77,0,0,1,21,24.6c8.37,18,9.65,35.22,3.8,51-12,32.61-51.25,50.54-85.83,66.37-20.07,9.18-40.83,18.68-47.66,27.62-74.6,97.7-163.22,177.59-263.41,237.44A907.59,907.59,0,0,1,1737,1514.11C1652.28,1533.79,1579.46,1538.47,1529.37,1538.47Z"/><path class="cls-1" d="M40.69,1831.65c76.27,89.79,187.24-17.51,187.24-17.51s84.55,234.74,262.17,283.48c149.24,40.94,334.33-57.2,334.33-57.2s631.88,175.37,768.19-521.34a1354.51,1354.51,0,0,0,20.68-156q5-64.93,5-137.94-.06-38.19-1.53-78.68l-523.88-47.28-60.38-5.41-15.07-1.38c-.85,3.37-1.7,6.7-2.6,10-26,95-77,166.87-131.78,224.13-69.44,72.71-144.73,121.84-181.91,164.53a492.85,492.85,0,0,0-48.55,66c-21.59,35.06-30.77,60-30.77,60-23,18.21-96.07,70.87-156.38,31.48-20.9-13.68-35.08-36.89-47.54-62.18-22.09-44.75-38.89-96-78.64-112.63-57.37-24-123.23-2.26-178.06,38-34.23,25.13-64.15,57.52-85,90.46C40.24,1659-15.06,1766.09,40.69,1831.65Z"/><g class="cls-3"><path class="cls-4" d="M27.81,1812.14a96.13,96.13,0,0,0,12.88,19.51c76.27,89.79,187.24-17.51,187.24-17.51s84.55,234.74,262.17,283.48c149.24,40.94,334.33-57.2,334.33-57.2s614.94,170.67,762.4-493.64c-148.55,465.54-557.53,439.38-694.11,416.52a158.79,158.79,0,0,0-87.14,9.92c-63.26,26.26-186.73,66.86-292.26,37.91-177.62-48.73-221.48-278.42-298.1-297.84C197.31,1708.75,161.72,1901.81,27.81,1812.14Z"/></g><path class="cls-2" d="M569.53,2124.53c-30.12,0-58.22-3.53-83.89-10.57-43-11.8-84.25-34.83-122.59-68.45-30.23-26.51-58.73-59.64-84.71-98.47A681,681,0,0,1,221,1842c-22.76,17.23-63.54,42.39-107.5,42.39-1.84,0-3.69,0-5.54-.13-31-1.52-58-15.54-80.15-41.65-28.23-33.23-35-78.11-20-133.41,9.53-35.29,27.77-74.34,54.21-116.07,30.1-47.49,74.94-90,123-116.75,26.68-14.82,53.32-24.19,79.17-27.86,29.14-4.13,56.63-.91,81.7,9.59,38.88,16.28,57.87,57.47,76.23,97.3,14.45,31.33,29.38,63.72,52.71,79,21.07,13.77,47,15.17,77.05,4.14,17.95-6.59,37.24-17.61,56-32,6.55-15.85,30.75-69.29,80.6-126.52,18.37-21.09,44.64-42.89,75-68.13,83.44-69.25,197.72-164.09,237.58-323.55a16.93,16.93,0,1,1,32.84,8.21c-42.54,170.22-161.75,269.15-248.8,341.39-29.28,24.3-54.57,45.29-71.14,64.32-54,61.92-76,120.12-76.23,120.7l-1.66,4.43-3.71,2.95c-22.65,17.93-46.47,31.75-68.88,40-40.07,14.7-77.15,12.08-107.23-7.58-31.48-20.57-48.48-57.45-64.93-93.12-16.37-35.52-31.84-69.06-58.56-80.25-80.54-33.72-188.45,37-242.24,121.91C65.91,1650.11,49,1686,40.4,1718c-11.85,43.89-7.42,78.43,13.17,102.66,16.09,18.93,34.37,28.66,55.9,29.75,52.84,2.66,106.17-48,106.7-48.48L235,1783.89l8.86,24.53c.2.57,21.21,58.07,63.07,120.44,37.88,56.45,101.19,128.72,187.69,152.45,73,20,156.19,4,213.12-13,62.73-18.69,108.33-42.66,108.78-42.9l6-3.15,6.5,1.8c.74.2,76.26,20.7,178.45,18.94,93.44-1.63,229.14-22.8,345-114.44,178.2-140.93,261.47-403.85,247.5-781.46a16.93,16.93,0,0,1,33.83-1.25c7.71,208.43-14.26,385.34-65.32,525.81-43.79,120.47-109.49,215.91-195.27,283.66-54.66,43.17-117.84,75.36-187.78,95.67-55.71,16.18-115.8,24.88-178.59,25.88-4.12.06-8.21.09-12.24.09-84.37,0-148.12-13.73-168.14-18.61a713.19,713.19,0,0,1-108.33,42.2c-38.78,11.6-76.21,19.09-111.26,22.24Q587.71,2124.53,569.53,2124.53Z"/><path class="cls-1" d="M2010.63,901c41.93-65.65,131.14-81.46,148.67-78.1,13.35,2.56,45,45.28,12.42,71.08s-59.7,25.19-59.24,38.12,22.56,58.93-13,104.08"/><path class="cls-2" d="M2005.87,898c8-17.68,20.76-33.34,35.63-46.2a191.49,191.49,0,0,1,50.09-30.84,207.41,207.41,0,0,1,27.95-9.7c4.8-1.29,9.66-2.42,14.65-3.36a132.93,132.93,0,0,1,15.63-1.94l2.11-.11c.7,0,1.5,0,2.24,0,1.43,0,3.22.07,4.91.17,1.05.12,2.09.25,3.14.41a30.61,30.61,0,0,1,4.41,1.21,34.41,34.41,0,0,1,6.2,3.06,49.28,49.28,0,0,1,8.17,6.43,67.65,67.65,0,0,1,6.15,6.78,74.41,74.41,0,0,1,9.28,15,66.52,66.52,0,0,1,5.52,17.48,52.54,52.54,0,0,1-.3,19.85,50,50,0,0,1-8.3,18.78,44.51,44.51,0,0,1-3.1,3.92,43.07,43.07,0,0,1-3.36,3.51,44.78,44.78,0,0,1-3.55,3.12l-.9.75c-.29.24-.62.52-.86.68l-1.54,1.14c-4.1,3-8.36,5.88-12.72,8.52a187.51,187.51,0,0,1-26.91,13.09c-4.39,1.74-8.8,3.37-12.1,4.83-1.62.69-2.92,1.44-3.17,1.54,0,0,.15-.22.53-.95a6.08,6.08,0,0,0,.77-2.81,2,2,0,0,0,0-.55l0-.13s0,0,0,0v.14s0,0,0,.12l0,.46c.05.65.17,1.58.33,2.57.33,2,.76,4.22,1.19,6.53.85,4.62,1.67,9.51,2.27,14.46a117.71,117.71,0,0,1,0,30.41,92.43,92.43,0,0,1-26.24,53.35,5.68,5.68,0,0,1-8.94-6.85l.08-.14a100.14,100.14,0,0,0,10.37-23.45,84.28,84.28,0,0,0,2.55-12.16,93.49,93.49,0,0,0,.74-12.28,103.86,103.86,0,0,0-.91-12.3c-.55-4.1-1.4-8.18-2.35-12.3s-2.15-8.23-3.45-12.56c-.64-2.18-1.3-4.42-2-6.92-.33-1.27-.67-2.59-1-4.22l-.22-1.25c0-.19-.07-.47-.1-.73l-.09-.79-.07-.8c0-.14,0-.24,0-.42v-.57c0-.76,0-1.52.05-2.28a22.17,22.17,0,0,1,2.94-9.3,26.33,26.33,0,0,1,5.08-6.1,46.82,46.82,0,0,1,8.53-5.75c4.94-2.66,9.08-4.5,13.09-6.49s7.81-3.83,11.47-5.88,7.17-4.23,10.6-6.5,6.73-4.71,9.92-7.3l1.19-1a4.42,4.42,0,0,0,.47-.41l.41-.39a17.3,17.3,0,0,0,1.56-1.51,21.68,21.68,0,0,0,2.48-3.07,16.61,16.61,0,0,0,2.59-6.37c.13-.56.13-1.17.24-1.74s.06-1.22,0-1.86,0-1.28-.12-2l-.09-1-.19-1c-.91-5.58-4.1-12-8.15-17.15a34.5,34.5,0,0,0-3.09-3.47,17.3,17.3,0,0,0-2.58-2.19c-.26-.19-.34-.19.05-.06h.06l.15.06.33.1a2.05,2.05,0,0,0,.34.07l.22,0a.75.75,0,0,1-.29-.06c-.6,0-1.11-.13-2-.13-.41,0-.77,0-1.22,0l-1.34,0a102.29,102.29,0,0,0-11.81,1.09c-4.1.53-8.26,1.26-12.41,2.15s-8.31,1.89-12.46,2.95-8.25,2.34-12.33,3.69a218.69,218.69,0,0,0-46.9,21.39,175.71,175.71,0,0,0-40,33.55l-.05.06a5.7,5.7,0,0,1-9.46-6.13Z"/><path class="cls-1" d="M1589.44,1618.33l-187.8,247.3L1212,1884.11l-100.26,9.77s-77.27-29.63-95.93-37.1c-25.33-10.08-15.07-40.77-3.27-57.78a597.31,597.31,0,0,0,49.17-86c21.12-44.86,34.94-86.59,47.74-120.71a65.58,65.58,0,0,1,68.3-42.33c177.62,19.09,352.39,18.26,352.39,18.26Z"/><path class="cls-2" d="M1111.77,1908.88a15,15,0,0,1-5.37-1c-3.16-1.21-77.58-29.77-96.11-37.16-11.84-4.73-19.91-13.23-23.33-24.6-5.66-18.75,3.15-41.06,13.27-55.68,44.52-64.29,67.81-128.32,86.53-179.78,3-8.26,5.84-16.06,8.67-23.6a80.52,80.52,0,0,1,84-52c174.7,18.76,349,18.19,350.73,18.18a15,15,0,0,1,9.75,3.54l59.26,50a15,15,0,0,1,2.27,20.53l-187.8,247.32a15,15,0,0,1-10.49,5.86l-289.87,28.24A14.27,14.27,0,0,1,1111.77,1908.88Zm59-344.25a50.63,50.63,0,0,0-47.29,33c-2.77,7.4-5.59,15.14-8.57,23.33-19.31,53.07-43.34,119.13-90.06,186.6-7.24,10.46-11.2,23.34-9.21,29.94.53,1.75,1.62,3.75,5.73,5.39,16.15,6.45,77.47,30,92.43,35.75l279.83-27.26,175.21-230.76-44.18-37.32c-31.32-.07-189.71-1.3-348.52-18.36A51.11,51.11,0,0,0,1170.81,1564.63Z"/><g class="cls-6"><path class="cls-4" d="M1212,1884.11l-100.26,9.77s-77.27-29.63-95.93-37.1c-19.35-7.69-17.94-27.44-10.94-43.9a79.85,79.85,0,0,1,7.67-13.88,597.31,597.31,0,0,0,49.17-86c4.06,12.7,16-.5,47.77-10.4,37.56-11.71,55.69-43.52,77.67-51C1251.33,1629.72,1228.23,1812.52,1212,1884.11Z"/></g><path class="cls-1" d="M1470.52,1779.32c-8.74,23.64-16.94,53.79-16.94,53.79s-49.58-13.1-53.47-14.54c-12.85-4.76-13.11-36.07-.58-70s33.11-57.49,46-52.73c9.4,3.48,49.34,13.58,49.34,13.58S1473.88,1770.23,1470.52,1779.32Z"/><ellipse class="cls-1" cx="1473.54" cy="1771.05" rx="65.4" ry="33.04" transform="translate(-698.74 2538.58) rotate(-69.7)"/><path class="cls-1" d="M1584.91,1631.81c-13.49,24.16-34.79,62.6-58.35,102.17-33.71,56.6-72,115.44-98.34,137.62-45.87,38.59-211.13,36.33-316.48,22.28-27.64-3.69-43.53-32.71-28-55.92,25.36-38,47.18-75.7,64.86-108.75,16.75-31.28,29.8-58.36,38.61-77.59a43.51,43.51,0,0,1,46.07-24.81c166.68,25.19,285.7,1.6,337.61-12.9A12.32,12.32,0,0,1,1584.91,1631.81Z"/><g class="cls-6"><path class="cls-4" d="M1483.09,1803.29c-16.29,24.3-32,45.5-45.62,59.54a114.13,114.13,0,0,1-9.25,8.77c-45.87,38.59-211.13,36.33-316.48,22.28-27.64-3.69-43.53-32.71-28-55.92,25.36-38,47.18-75.7,64.86-108.75,5.36,29.87,29.22,94.3,134.92,116.73,27.36,5.78,56,2.21,84.28-7.27-4.07-12.81-1.66-35.78,7.31-60,12.51-33.88,33.12-57.49,46-52.74,7.87,2.92,37,10.42,46.42,12.85a17.24,17.24,0,0,1,4.34,1c9.07,3.34,14.37,14.14,15.5,28.57C1488.07,1778.58,1486.73,1790.7,1483.09,1803.29Z"/></g><g class="cls-6"><path class="cls-4" d="M1483.09,1803.29c3.64-12.59,5-24.71,4.21-35,14.06-11.39,27.29-23.06,39.26-34.3C1512.48,1757.64,1497.58,1781.7,1483.09,1803.29Z"/></g><path class="cls-2" d="M1255.44,1918.2a1143.47,1143.47,0,0,1-145.68-9.45c-19.1-2.55-35.07-14.15-42.7-31-7.17-15.86-5.64-33.38,4.19-48.09,49.32-73.83,85.27-147.13,102.31-184.25l13.64,6.26-13.64-6.26a58.81,58.81,0,0,1,62-33.4c161.73,24.42,277,2.64,331.32-12.52a27.32,27.32,0,0,1,31.19,39.65l-3.28,5.87c-36.17,64.87-111.44,199.86-156.87,238.08-23.53,19.8-72.31,31.37-145,34.4C1280.9,1918,1268.34,1918.2,1255.44,1918.2Zm-28.64-276.87a28.64,28.64,0,0,0-26,16.56c-17.41,37.94-54.16,112.85-104.64,188.4a19.12,19.12,0,0,0-1.79,19.07c3.33,7.38,10.56,12.48,19.33,13.65,117.21,15.64,267.08,12.85,304.83-18.9,41.22-34.69,117.44-171.37,150-229.74l.19-.34c-58.9,15.66-176.28,36-337.7,11.62A27.48,27.48,0,0,0,1226.8,1641.33Z"/><path class="cls-7" d="M1470.52,1779.32c-8.74,23.64-16.94,53.79-16.94,53.79s-49.58-13.1-53.47-14.54c-12.85-4.76-13.11-36.07-.58-70s33.11-57.49,46-52.73c9.4,3.48,49.34,13.58,49.34,13.58S1473.88,1770.23,1470.52,1779.32Z"/><g class="cls-8"><path class="cls-1" d="M1494.83,1709.48s-20.95,60.73-24.29,69.84c-8.77,23.63-16.94,53.81-16.94,53.81s-1-.28-2.67-.7c3-9.84,6.79-21.67,10.68-32.15,3.38-9.11,24.34-69.87,24.34-69.87s-40-10.1-49.37-13.56c-10.42-3.88-26,11-38.19,34.87.39-1,.73-2,1.12-3.09,12.55-33.88,33.12-57.49,46-52.74C1454.91,1699.35,1494.83,1709.48,1494.83,1709.48Z"/></g><g class="cls-6"><path class="cls-5" d="M1466.57,1790.65c-7.13,20.94-13,42.48-13,42.48s-49.59-13.14-53.49-14.57c-12.84-4.75-13.11-36-.6-69.93a153.3,153.3,0,0,1,14.84-30.11c-8.7,29.45-7.22,54.82,4.2,59C1421.65,1778.69,1453.56,1787.19,1466.57,1790.65Z"/></g><path class="cls-2" d="M1453.59,1845.62a12.62,12.62,0,0,1-3.2-.42c-15.08-4-50.6-13.42-54.61-14.91-24-8.89-21-50.82-8-86,6.58-17.77,15.52-33.65,25.17-44.73,16.65-19.09,30.24-17.83,36.86-15.39,7.21,2.67,37.15,10.43,48.08,13.2a12.49,12.49,0,0,1,8.75,16.19c-.86,2.49-21,61-24.41,70.11-8.45,22.82-16.52,52.44-16.6,52.73A12.51,12.51,0,0,1,1453.59,1845.62ZM1405,1807c4.22,1.29,21.65,6,39.89,10.86,3.24-11.12,8.42-28.12,13.89-42.9,2.33-6.29,13.47-38.46,19.8-56.78-12.43-3.23-29.91-7.92-36.83-10.37-4.73,1.1-19.33,14.88-30.52,45.13C1400.11,1783.06,1402.17,1803,1405,1807Zm65.5-27.7h0Z"/><ellipse class="cls-7" cx="1473.54" cy="1771.05" rx="65.4" ry="33.04" transform="translate(-698.74 2538.58) rotate(-69.7)"/><g class="cls-8"><path class="cls-1" d="M1504.51,1782.5c-.83,2.22-1.69,4.36-2.61,6.45,5.79-27,.77-50.15-13.34-55.39-16-5.92-38.07,13.23-51.11,43.45a131.78,131.78,0,0,1,5.09-17.42c12.54-33.87,36.57-56.23,53.68-49.88S1517.05,1748.62,1504.51,1782.5Z"/></g><g class="cls-6"><path class="cls-5" d="M1503.39,1785.38c-12.78,32.27-35.92,53.13-52.56,47-17.11-6.32-20.8-38.91-8.29-72.79,6.56-17.71,16.23-32.26,26.43-41.22-.37.93-.74,1.87-1.07,2.81-12.51,33.88-8.82,66.47,8.32,72.8C1484.35,1797,1494.08,1793.5,1503.39,1785.38Z"/></g><path class="cls-2" d="M1457,1846a30.08,30.08,0,0,1-10.52-1.88c-24.35-9-31.09-47.21-15.68-88.86,6.72-18.19,16.79-34.11,28.33-44.84,13.77-12.8,28.48-17.21,41.4-12.43,24.35,9,31.09,47.21,15.69,88.86-6.73,18.19-16.79,34.11-28.34,44.84C1477.76,1841.11,1467.11,1846,1457,1846Zm33.06-124.86c-3.55,0-8.74,2.79-13.91,7.59-8.61,8-16.59,20.83-21.91,35.2s-7.6,29.31-6.27,41c1,8.31,3.77,14.5,7.18,15.76s9.58-1.6,15.71-7.29c8.61-8,16.59-20.83,21.91-35.2s7.6-29.31,6.27-41c-.94-8.31-3.76-14.5-7.18-15.76A5.15,5.15,0,0,0,1490.09,1721.13Z"/><path class="cls-2" d="M1234.45,1915.51a12.51,12.51,0,0,1-10.83-18.73L1283,1793.32l-28.43-25.44a12.5,12.5,0,0,1-3.14-14.27l53-122.73a12.5,12.5,0,1,1,23,9.91L1278,1755.26l29.26,26.19a12.5,12.5,0,0,1,2.5,15.54l-64.46,112.24A12.48,12.48,0,0,1,1234.45,1915.51Z"/><path class="cls-2" d="M447.29,2096.61a14.94,14.94,0,0,1-10.68-4.46c-32.52-32.93-51.07-77.42-55.13-132.23-3.15-42.59,2.44-91.53,16.62-145.47,23.88-90.85,63.46-163.94,65.13-167a15,15,0,0,1,26.34,14.37c-.5.92-39.73,73.51-62.6,160.8-20.5,78.27-31.77,184.92,31,248.46a15,15,0,0,1-10.67,25.54Z"/><path class="cls-2" d="M1938.46,1437.82l-1,0c-82.75-5.74-141.21-58.49-169.07-152.55-20.31-68.58-17.15-134.45-17-137.22a15,15,0,0,1,30,1.56c0,1.08-2.94,64.33,16,127.8,24.4,81.73,72.24,125.63,142.18,130.48a15,15,0,0,1-1,30Z"/><path class="cls-2" d="M2343.81,1019.21c-2.42,1.77-4.95,3.38-7.51,5-1.26.81-2.6,1.48-3.93,2.18s-2.69,1.36-4,2c-2.67,1.39-5.5,2.41-8.28,3.56s-5.64,2-8.48,2.92c-11.42,3.55-23,5.18-34,6.53s-21.55,2.4-32.09,4.14-21.08,4.14-32,7h0a2.21,2.21,0,0,1-2.09-3.73,129.58,129.58,0,0,1,28.24-20.17c10.29-5.54,21.19-9.81,31.63-13.61s20.33-7.41,29.79-11c2.34-1,4.76-1.74,7-2.76l3.5-1.38,1.76-.66c.58-.25,1.15-.51,1.73-.75,2.31-1,4.68-1.83,7-2.8s4.69-1.91,7.16-2.69l1.09-.34a15.1,15.1,0,0,1,13.45,26.58Z"/><path class="cls-2" d="M2241.94,917.18l-1.06,1.76c-.31.49-.61,1-.94,1.48-.62.92-1.27,1.86-1.92,2.73-1.3,1.78-2.68,3.42-4.08,5.05a104,104,0,0,1-8.93,9,162.5,162.5,0,0,1-20,15.07c-6.95,4.62-14.14,8.85-21.52,12.78-3.73,1.92-7.47,3.8-11.31,5.55-1.92.87-3.86,1.71-5.84,2.51s-3.94,1.59-6,2.31a2.27,2.27,0,0,1-2.9-1.38,2.23,2.23,0,0,1,.18-1.91l0,0c1.09-1.85,2.23-3.65,3.4-5.39s2.34-3.5,3.54-5.21c2.36-3.44,4.8-6.77,7.26-10.06,4.89-6.61,9.92-13,14.94-19.25s10-12.48,15.31-18.2c2.64-2.87,5.32-5.66,8.08-8.3,1.38-1.32,2.76-2.62,4.17-3.85.71-.62,1.38-1.22,2.11-1.8.33-.29.68-.56,1-.84l.48-.36.25-.17a.3.3,0,0,1,.14,0l7.18-2.26a14.16,14.16,0,0,1,16.39,20.81Z"/><path class="cls-1" d="M631.94,1586c70.16,227.67,434.34,264.41,469.11,147.41,11.76-39.59-20.26-64.41-20.26-64.41s-308.43,1.26-389.33-192.46C691.46,1476.58,607.62,1507.12,631.94,1586Z"/><g class="cls-6"><path class="cls-4" d="M631.94,1586c70.18,227.67,434.36,264.42,469.12,147.41a57.52,57.52,0,0,0-2-39.55C1027.29,1810,669.51,1727.1,650.93,1515c-.29-3.24-1.77-6.16-2.4-9.11C632.55,1523.46,620.73,1549.58,631.94,1586Z"/></g><path class="cls-2" d="M961.93,1815.24c-67.7,0-141-19.49-201.51-53.58-72.9-41.1-122.92-100.1-144.65-170.63-15.08-48.93,5.26-82.16,25-101.42a139.65,139.65,0,0,1,44.91-28.93,16.91,16.91,0,0,1,21.41,9.38c31.36,75.1,103.07,128.55,213.12,158.87,84.06,23.15,159.77,23.21,160.53,23.18h0a17,17,0,0,1,10.38,3.55c1.68,1.3,41,32.49,26.11,82.61-14.2,47.78-71.61,76.55-153.57,77Zm-278.56-315.8a101,101,0,0,0-19.64,15.06c-18.59,18.57-23.69,40.34-15.61,66.56,40.17,130.37,191.29,200.32,313.79,200.32h1.62c65.24-.33,111.72-20.54,121.29-52.75,6.2-20.85-4.69-36.17-10.81-42.75-21.1-.5-87.58-3.7-162-24.1-52.42-14.36-97.85-34.33-135-59.36C735.17,1574.28,703.75,1539.7,683.37,1499.44Z"/><path class="cls-1" d="M65.37,1398.31s-4.25,28.59,12,50.32c8.16,10.85,21.32,22.37,37.16,33.73a519.82,519.82,0,0,0,46.71,29.39c36.49,20.53,75,37.87,97.73,46.24,47.79,17.62,102.22,26.6,159,28.38,77.57,2.42,159.44-8.58,234.69-29.25,70.72-19.43,135.57-47.43,185.34-80.87l35.39-52.35,48.37-71.53,171.19-253.15,38.89-57.5c-1.7,1-39.43,22.49-99.27,52.09-5.72,2.82-11.59,5.7-17.67,8.65-68,33-159.52,73.72-257.67,107.11-152.83,52-321.84,86.33-443.57,46-141.77-47-208.72-81.39-244.2-43.9-36,38,7.36,88.75,7.36,88.75s-31.31,22.24-31.5,54.45C45.11,1380.4,65.37,1398.31,65.37,1398.31Z"/><g class="cls-3"><path class="cls-4" d="M258.79,1361.65s1.33,8.14,7.77,20.78C262.44,1369.89,258.79,1361.65,258.79,1361.65Z"/></g><g class="cls-3"><path class="cls-4" d="M114.55,1482.36a519.82,519.82,0,0,0,46.71,29.39c36.49,20.53,75,37.87,97.73,46.24,47.79,17.62,102.22,26.6,159,28.38,77.57,2.42,159.44-8.58,234.69-29.25,70.72-19.43,135.57-47.43,185.34-80.87h0c11.12-16.44-5-37.58-23.81-31.17-96.66,33-254.95,79.39-336.85,61.75-144.89-31.26-194.37-92.35-210.77-124.4,12,36.13,28,108-27.35,120.79C218,1508.13,153.44,1498.75,114.55,1482.36Z"/></g><path class="cls-2" d="M1134.67,1046.57c-5,4.33-10,8.35-15.15,12.26s-10.37,7.67-15.66,11.33q-15.85,11-32.33,20.89c-22,13.24-44.66,25-67.54,36.48-45.79,22.89-93.2,42.36-140.88,61-23.88,9.26-47.79,18.44-71.92,27.09s-48.45,16.85-73,24.46c-49.07,15.16-99,28.11-149.87,37.29-25.44,4.58-51.13,8.2-77.06,10.37a617.82,617.82,0,0,1-78.35,1.93l-9.85-.59-4.93-.3c-1.64-.12-3.28-.29-4.93-.44l-9.85-.92c-3.29-.34-6.57-.82-9.85-1.23-6.57-.75-13.12-2-19.66-3.06-1.64-.25-3.28-.59-4.9-.94l-4.9-1-4.89-1c-.81-.17-1.63-.33-2.44-.52l-2.43-.62-9.72-2.49c-.81-.22-1.62-.4-2.43-.64l-2.4-.73-4.82-1.47c-6.58-1.94-12.46-4-18.55-6q-18.15-6.12-36.21-12.38c-24.07-8.32-48-16.88-71.82-24.75-11.9-3.91-23.78-7.66-35.54-10.8-2.94-.78-5.88-1.56-8.79-2.23s-5.82-1.31-8.71-1.93a157.72,157.72,0,0,0-16.95-2.54,76.34,76.34,0,0,0-15.46.11,37.07,37.07,0,0,0-12.53,3.65,32.78,32.78,0,0,0-9.78,7.84A35.06,35.06,0,0,0,74,1235.51,34,34,0,0,0,72.13,1248a52,52,0,0,0,2.56,14A82.43,82.43,0,0,0,81,1276.39c1.31,2.36,2.72,4.68,4.23,6.94.74,1.13,1.52,2.23,2.3,3.3.39.53.78,1.06,1.17,1.55l1,1.21,11.06,13.95L86.62,1314.2l-.77.59-1.06.86c-.73.6-1.46,1.22-2.19,1.88-1.45,1.3-2.87,2.68-4.23,4.1a72.55,72.55,0,0,0-7.39,8.94c-4.33,6.21-7.28,12.77-8.29,19.12-.13.79-.25,1.58-.3,2.37a23.75,23.75,0,0,0-.15,2.37,6.5,6.5,0,0,0,0,1.17l.05,1.16,0,1.16c0,.39.12.78.17,1.17.13.78.15,1.56.35,2.34s.36,1.57.53,2.36a44.31,44.31,0,0,0,1.63,4.74,49,49,0,0,0,5.07,9.3l.77,1.13.83,1.09c.54.74,1.14,1.43,1.71,2.14s1.18,1.38,1.77,2c.3.32.59.62.87.89l.39.39c.09.09.29.27.15.15l5.54,15.17v0l0,.24c0,.15,0,.33,0,.55,0,.4-.08.79-.1,1.23-.06.85-.09,1.74-.12,2.64s0,1.8,0,2.71l.1,2.72a63.22,63.22,0,0,0,1.51,10.61c.34,1.73.9,3.34,1.37,5a48.54,48.54,0,0,0,1.85,4.63,45.44,45.44,0,0,0,2.22,4.28c.4.69.89,1.3,1.31,1.95l.65,1c.21.33.55.7.82,1a118.57,118.57,0,0,0,16.62,16.75c6.36,5.38,13.22,10.52,20.31,15.46,14.22,9.87,29.36,19,44.81,27.53s31.32,16.62,47.37,24.17c8,3.76,16.12,7.4,24.22,10.86,4.06,1.72,8.12,3.4,12.17,5s8,3.12,12.17,4.49,8.17,2.85,12.3,4.18l12.5,3.68,3.12.92,3.17.79,6.35,1.58,6.34,1.59c2.11.52,4.27.91,6.4,1.37,34.15,7.44,69.33,10.9,104.61,11.83,8.84,0,17.67.3,26.51,0l6.63-.12c2.21,0,4.42-.06,6.63-.18l13.27-.59c17.67-1,35.35-2.42,53-4.67a830.73,830.73,0,0,0,104.56-19.65c17.17-4.47,34.18-9.55,50.84-15.55l3.14-1.08,3.11-1.16,6.22-2.32c4.13-1.56,8.3-3,12.39-4.7s8.23-3.2,12.37-4.75,8.17-3.29,12.3-4.86c2.05-.81,4.12-1.57,6.16-2.4l6.12-2.48,6.16-2.42,3.08-1.2,3.05-1.27c4.07-1.69,8.15-3.35,12.28-5s8.15-3.36,12.29-5,8.21-3.3,12.38-4.87c2.08-.81,4.16-1.61,6.27-2.37,1.06-.37,2.08-.8,3.11-1.22l3.13-1.21c2.08-.81,4.21-1.58,6.32-2.35,1.06-.4,2.14-.76,3.21-1.14s2.11-.8,3.18-1.18c4.24-1.58,8.57-3.07,13.08-4.38l.23-.07a5.84,5.84,0,0,1,6.06,9.43c-3.1,3.6-6.38,7-9.74,10.35-1.67,1.7-3.43,3.24-5.19,4.8s-3.54,3.09-5.35,4.59c-3.56,3.1-7.3,5.91-11.09,8.65s-7.58,5.54-11.53,8-7.9,5-11.92,7.36-8.16,4.5-12.28,6.68L771,1533c-1,.53-2.09,1-3.13,1.54l-6.28,3-6.31,3c-2.1,1-4.26,1.87-6.39,2.8-17,7.54-34.67,13.35-52.35,18.85l-13.31,4c-4.43,1.33-8.91,2.5-13.36,3.75l-6.67,1.89c-2.23.62-4.47,1.18-6.7,1.79l-13.39,3.57a861.64,861.64,0,0,1-108.87,20.46c-18.34,2.34-36.79,3.82-55.27,4.88l-13.87.61c-2.31.13-4.63.16-6.95.2l-7,.12c-9.26.27-18.54,0-27.82,0-37.1-1-74.33-4.6-111-12.58-2.29-.5-4.59-.92-6.87-1.48l-6.84-1.71-6.84-1.71-3.42-.85-3.39-1-13.55-4c-4.5-1.45-8.95-3-13.43-4.55s-9-3.19-13.31-4.92-8.68-3.51-13-5.33q-12.83-5.46-25.35-11.37c-16.72-7.86-33.19-16.2-49.4-25.2s-32.19-18.56-47.73-29.35c-7.76-5.41-15.42-11.13-22.89-17.44a151.45,151.45,0,0,1-21.49-21.84c-.42-.55-.84-1-1.26-1.64l-1.26-1.83c-.82-1.23-1.69-2.44-2.44-3.7a79.7,79.7,0,0,1-4.06-7.76,84.32,84.32,0,0,1-3.17-8c-.82-2.69-1.68-5.39-2.24-8.1a97,97,0,0,1-2.32-16.26l-.15-4.06c0-1.36,0-2.71,0-4.08s.08-2.74.18-4.15c0-.68.11-1.42.17-2.15q0-.53.12-1.14l.07-.6.11-.83L54.17,1411c-.59-.52-.82-.75-1.15-1.07l-.88-.86c-.58-.57-1.11-1.12-1.62-1.67-1.06-1.11-2-2.21-3-3.34s-1.88-2.26-2.75-3.44l-1.32-1.75L42.21,1397a83.47,83.47,0,0,1-8.54-15.73,79.35,79.35,0,0,1-3-8.77l-1.05-4.6c-.34-1.54-.49-3.14-.72-4.71-.1-.79-.23-1.58-.29-2.37l-.12-2.41-.1-2.4a21.35,21.35,0,0,1,0-2.4c.05-1.59.1-3.18.28-4.76s.35-3.14.6-4.7a73.69,73.69,0,0,1,5.29-17.67,89.34,89.34,0,0,1,8.64-15.31A107.84,107.84,0,0,1,54,1298.15c1.94-2,3.94-4,6-5.82,1-.94,2.12-1.86,3.22-2.78l1.72-1.38.91-.71,1.16-.86L64,1311.4l-1.11-1.35-.9-1.16c-.59-.76-1.15-1.5-1.7-2.25-1.09-1.5-2.14-3-3.15-4.51q-3-4.55-5.69-9.33a116.52,116.52,0,0,1-8.95-20.46A85.89,85.89,0,0,1,38.29,1249a67.74,67.74,0,0,1,3.88-25,68.91,68.91,0,0,1,12.89-21.6,66.67,66.67,0,0,1,19.84-15.73,70.89,70.89,0,0,1,23.8-7.13,110.24,110.24,0,0,1,22.56-.25c14.34,1.3,27.51,4.34,40.31,7.73s25.14,7.33,37.38,11.35c24.44,8.08,48.35,16.63,72.32,24.91q18,6.23,35.91,12.28c6,2,12.09,4.1,17.7,5.74l4.3,1.31,2.15.66c.72.21,1.45.38,2.18.57l8.74,2.24,2.19.56c.73.17,1.47.31,2.21.47l4.43.93,4.44.94c1.47.32,3,.63,4.45.86,6,1,11.93,2.11,18,2.79,3,.37,6,.82,9.06,1.13l9.12.85c1.52.14,3,.3,4.56.42l4.59.27,9.17.55a584.44,584.44,0,0,0,74-1.84c24.71-2.06,49.39-5.54,74-10,49.15-8.86,97.81-21.46,145.82-36.31q36-11.16,71.57-24c23.7-8.51,47.27-17.44,70.57-27.08l17.45-7.29,17.36-7.5c11.55-5.07,23.08-10.17,34.56-15.4l68.91-31.31c23-10.38,45.88-21.06,69.17-31q17.46-7.44,35.22-14.41c5.93-2.3,11.88-4.58,17.89-6.76s12.07-4.31,18.16-6.26l.08,0a5.75,5.75,0,0,1,5.54,9.81Z"/><path class="cls-1" d="M1950.54,950.18C1560.12,1757.72,419.56,1255.66,709.67,442,1089.71-394.09,2268.19,126,1950.54,950.18Z"/><path class="cls-1" d="M1950.54,950.18C1560.12,1757.72,419.56,1255.66,709.67,442,1089.71-394.09,2268.19,126,1950.54,950.18Z"/><g class="cls-3"><path class="cls-4" d="M737.09,1205.57A685.58,685.58,0,0,0,865,1324.48q19.2,13.71,39.27,26.2c158.16,98.14,354.72,133.88,537.73,83.47a620.19,620.19,0,0,0,165-72.54q5.07-66,5.13-140.17-.07-38.82-1.56-80l-532.33-48,39.52-58.43c-1.73,1-40.07,22.86-100.88,52.94l-15.31-1.4c-.86,3.42-1.73,6.8-2.64,10.19C929.82,1130.25,836.83,1171.65,737.09,1205.57Z"/></g><path class="cls-1" d="M1950.54,950.18C1560.12,1757.72,419.56,1255.66,709.67,442,1089.71-394.09,2268.19,126,1950.54,950.18Z"/><path class="cls-2" d="M1344.81,1372.08c-91.13,0-183.43-18.54-271.5-55.4a715.77,715.77,0,0,1-207.85-132.62c-62.8-57.54-113.09-124.45-149.45-198.87C635.44,820.3,629.25,631.05,698.12,437.9l.39-.95c89.2-196.27,229-332.91,404.33-395.15,78.79-28,162.32-40.13,248.29-36.11,82.67,3.85,164.18,22.42,242.28,55.19A720,720,0,0,1,1804.2,196c63.59,58.72,114.14,126.9,150.24,202.65,80.23,168.31,82.84,360.54,7.54,555.91l-.4.93c-91.76,189.79-231.73,321.67-404.77,381.38A649.37,649.37,0,0,1,1344.81,1372.08ZM721,446.63c-148.15,416.21,83.62,731,361.74,847.42,82.86,34.69,173.42,54.06,265,54.06,223,0,452.1-114.8,591.52-402.81C2101.51,523.68,1868.85,203,1583.92,83.49,1301.76-34.88,911.46,28.29,721,446.63Zm1229.5,503.55h0Z"/><g class="cls-3"><path class="cls-4" d="M1950.54,950.16C1625.47,1653.52,624.09,1382.1,664.6,638.48c64.92,234,147.95,236.42,283.93,346.64,419.59,364,998.56,19.32,1033.17-468C2020.37,663.06,2007.59,815.41,1950.54,950.16Z"/></g><path class="cls-2" d="M1344.81,1377c-91.77,0-184.74-18.67-273.4-55.79A720.37,720.37,0,0,1,862.12,1187.7c-63.26-58-113.91-125.36-150.55-200.34-81.17-166.12-87.43-356.69-18.1-551.11l.24-.69.3-.65C783.79,237.39,924.58,99.85,1101.19,37.14,1180.58,9,1264.75-3.29,1351.36.75c83.25,3.89,165.33,22.59,244,55.58A724.87,724.87,0,0,1,1807.55,192.4c64.06,59.15,115,127.84,151.35,204.15,80.83,169.57,83.48,363.15,7.69,559.81l-.25.67-.31.64c-92.35,191-233.3,323.75-407.61,383.9A654.31,654.31,0,0,1,1344.81,1377ZM725.63,448.48c-146.91,413.07,83.06,725.49,359.06,841,282.47,118.23,654.77,57,850.06-346.17,160.87-418.43-70-736.66-352.74-855.28C1302-29.42,914.71,33.34,725.63,448.48Zm1224.91,501.7h0Z"/><path class="cls-2" d="M1344.81,1377c-91.77,0-184.74-18.67-273.4-55.79A720.37,720.37,0,0,1,862.12,1187.7c-63.26-58-113.91-125.36-150.55-200.34-81.17-166.12-87.43-356.69-18.1-551.11l.24-.69.3-.65C783.79,237.39,924.58,99.85,1101.19,37.14,1180.58,9,1264.75-3.29,1351.36.75c83.25,3.89,165.33,22.59,244,55.58A724.87,724.87,0,0,1,1807.55,192.4c64.06,59.15,115,127.84,151.35,204.15,80.83,169.57,83.48,363.15,7.69,559.81l-.25.67-.31.64c-92.35,191-233.3,323.75-407.61,383.9A654.31,654.31,0,0,1,1344.81,1377ZM725.63,448.48c-146.91,413.07,83.06,725.49,359.06,841,282.47,118.23,654.77,57,850.06-346.17,160.87-418.43-70-736.66-352.74-855.28C1302-29.42,914.71,33.34,725.63,448.48Zm1224.91,501.7h0Z"/><path class="cls-9" d="M1863.83,1098.51c-614.13,493-1297-208.13-853.45-736C1543.18-198.5,2324.76,443.3,1863.83,1098.51Z"/><path class="cls-10" d="M1976.67,611C2081.26,1315.06,1082.25,1519.13,881,891.15,1258.5,1223.76,1837,979.14,1976.67,611Z"/><path class="cls-2" d="M1410.41,1351.05a612,612,0,0,1-192.85-31.59,647.09,647.09,0,0,1-193.66-103.39,629.53,629.53,0,0,1-149.27-165,602.51,602.51,0,0,1-82.38-215.92c-14.31-82.22-11.91-168.07,7.12-255.15l.1-.43c21.89-89.1,63.37-172.09,123.3-246.64C979.29,262.61,1052,201.47,1133,156.12c81.22-45.48,171.67-75.56,261.56-87,95.48-12.14,188.64-4,276.88,24.15l1.4.45,1.3.67C1823,171.68,1934.26,307.91,1987.49,478c50.28,160.62,42.54,335.27-21.22,479.17l-.06.12c-39.28,86.86-89.16,161.28-148.24,221.18-55.28,56.06-118.44,99.31-187.72,128.57a561.09,561.09,0,0,1-206.88,43.89Q1416.89,1351,1410.41,1351.05ZM832.93,587.57c-75.93,347.9,141.44,615.08,395.45,699.24,221.06,73.24,538.7,27.2,706.45-343.64C2052,678.67,1969.29,287.4,1659.55,125.6,1496.44,74,1310.71,96,1149.77,186.13,989,276.14,873.56,422.44,832.93,587.57ZM1950.54,950.18h0Z"/><path class="cls-2" d="M1427.78,1283.21c-11.17,0-22.3-.31-33.45-.94a581.87,581.87,0,0,1-384.18-174.54c-94.2-96.34-150.32-220.6-158-349.89-8.5-142.8,41.67-283.32,145.08-406.37l.69-.78c126-132.66,274.77-208.36,430.25-218.89,139.79-9.47,277.11,34.73,386.66,124.48C1926.93,348.11,1998.53,478,2016.44,622c20,160.92-27.89,329.11-138.54,486.39l-1.4,2-1.9,1.53C1734.48,1224.39,1580.68,1283.21,1427.78,1283.21ZM1023.22,374c-217.73,259.43-151.13,543.33,11.52,709.68,179.13,183.22,500.85,254.92,816.43,2.94,231-330.23,132-648-58.15-803.73C1601.81,126.25,1289.69,93.72,1023.22,374Zm840.61,724.51h0Z"/><path class="cls-1" d="M600.56,933.16c87.16,304,399.2,242.26,345.25-56.37C866.15,554.79,532.59,620.77,600.56,933.16Z"/><g class="cls-3"><path class="cls-4" d="M829.56,1131.38c93.68-17.83,146.81-142.2,112.59-270.11-41,144.36-214.58-61.46-233.32-124.6C474.73,830.36,658.22,1167.81,829.56,1131.38Z"/></g><path class="cls-2" d="M801.46,1150.39c-37.59,0-75.52-13.5-109.64-39.47-48.7-37.06-86-96.89-107.79-173l-.28-1.08c-16.19-74.43-11.49-141.3,13.59-193.38,23.15-48.06,62.18-80.64,109.89-91.73a159.49,159.49,0,0,1,75.26.93c26,6.47,50.75,18.93,73.59,37,49.77,39.44,86.57,102.72,106.43,183l.23,1.07c12.89,71.37,6.44,135.26-18.64,184.78-23.26,45.92-61.39,77.11-107.34,87.82A155,155,0,0,1,801.46,1150.39ZM617.25,929c43.24,150.16,140,200.57,211.7,183.87,35.88-8.36,65.87-33.17,84.46-69.86,21.61-42.66,27-98.87,15.57-162.58-18-72.56-50.63-129.18-94.26-163.76-37.28-29.53-79.78-40.69-119.7-31.42-37.36,8.69-68.15,34.67-86.69,73.16C606.67,803.34,602.84,862.32,617.25,929Z"/><path class="cls-1" d="M590.69,952.08c70.89,246.3,305.44,204,261.84-37.57C788.48,650.35,533.64,696.62,590.69,952.08Z"/><path class="cls-2" d="M748.88,1134.71c-30.25,0-61-11.83-88.83-34.54-38.18-31.19-67.88-80.75-85.89-143.33l-.26-1c-13.61-60.93-11.12-115.47,7.2-157.72,17.23-39.75,47.34-66.44,84.8-75.16,39.34-9.16,82.59,3.3,118.65,34.18,39.23,33.6,68.52,86.62,84.69,153.33l.21,1c10.44,57.82,6.25,109.37-12.12,149.06-17.39,37.56-46.66,62.85-82.42,71.2A114.43,114.43,0,0,1,748.88,1134.71ZM607.36,947.83c16.08,55.58,41.82,99,74.45,125.7,27.39,22.37,57.67,31.14,85.28,24.69,48.22-11.26,88.09-71.33,68.6-180.15C805.5,794.23,731.39,743,673.7,756.45c-26.57,6.19-48.25,25.84-61,55.34C597.3,847.22,595.47,894.25,607.36,947.83Z"/><g class="cls-11"><path class="cls-1" d="M988.28,738.55c52.68,122.28,192.59,64.55,164.86-48.83C1110.1,548.7,944.1,614.07,988.28,738.55Z"/></g><g class="cls-11"><path class="cls-1" d="M1091.84,927.78c22.85,45.6,84.53,21.53,64.29-30.32C1133.28,851.87,1071.61,875.93,1091.84,927.78Z"/></g><g class="cls-11"><path class="cls-1" d="M1914.13,675.25c22.06-508.27-502-508.5-645.27-383.33C1602.44,273.36,1774.36,459.32,1914.13,675.25Z"/></g><g class="cls-3"><path class="cls-4" d="M872.34,969.9c.09-36-9.7-72.26-26.42-104.39-23.52,175.59-203.91,122-258.85,5.06C580.84,1126.69,851.11,1212.13,872.34,969.9Z"/></g><path class="cls-2" d="M899.75,691.15c-7.88,0-17.53-2.42-29.07-9.2a17.2,17.2,0,0,1,17.43-29.66c7.4,4.35,10.9,4.51,11.71,4.48,1.11-1.15,3.81-6.33,4.55-18.44a116.51,116.51,0,0,0-.44-18.59,17.2,17.2,0,1,1,34.14-4.23,150.93,150.93,0,0,1,.57,25.9c-1.48,21.58-8.23,36.46-20.06,44.23A33.71,33.71,0,0,1,899.75,691.15Z"/><path class="cls-1" d="M337.73,1270.7c-104.75-29.85-186.22-24.54-196.43,3.35-7.47,20.44-1.14,53.55,41.73,67.78,29.28,9.72,71.32,7.91,71.32,7.91s21.81,65.54,56.9,92.06"/><path class="cls-2" d="M333.09,1287c-28.77-7.71-57.9-14.07-87.08-17.33a308.3,308.3,0,0,0-43.35-2.18,182.34,182.34,0,0,0-20.75,1.73,75.42,75.42,0,0,0-18.07,4.73,31.68,31.68,0,0,0-3.4,1.69,17,17,0,0,0-2.53,1.72,9.92,9.92,0,0,0-1.42,1.39,1.27,1.27,0,0,0-.19.25.64.64,0,0,0-.14.21.69.69,0,0,0-.11.17s0,0-.06.1l-.15.43a31.49,31.49,0,0,0-1.6,15.07,33.78,33.78,0,0,0,5.75,14.71,44.75,44.75,0,0,0,12.52,11.93c10.32,6.83,23.64,10.67,37.81,13.07,7.08,1.2,14.35,2.08,21.67,2.66,3.66.3,7.34.52,11,.68,1.84.08,3.68.15,5.51.19l2.73,0,2.62,0,9,.06,2.42,7.78.93,3,1,3.11q1,3.12,2.15,6.23c1.46,4.17,3,8.33,4.59,12.45q4.76,12.4,10.29,24.49a253.69,253.69,0,0,0,12.25,23.54c.54,1,1.13,1.91,1.71,2.85s1.16,1.9,1.78,2.81l1.83,2.79,1.91,2.74a131.73,131.73,0,0,0,8.4,10.56v0a1.43,1.43,0,0,1-1.71,2.23c-8.46-4.28-16-10.43-22.67-17.18a162.35,162.35,0,0,1-18-22.06c-1.35-1.94-2.65-3.92-3.94-5.9s-2.5-4-3.71-6c-2.44-4-4.68-8.19-6.9-12.35S251,1371,249,1366.66q-1.44-3.23-2.82-6.51l-1.37-3.31c-.46-1.13-.87-2.17-1.35-3.47l11.39,7.84-3.12.18-3,.13c-2,.08-4,.13-6,.17-4,.07-7.94.08-11.92,0-8-.16-16-.58-24-1.49a164.36,164.36,0,0,1-24.55-4.5,109,109,0,0,1-12.4-4.1,96.79,96.79,0,0,1-12.11-5.94,73.74,73.74,0,0,1-21.37-18.6,63.1,63.1,0,0,1-13-42.23,59.2,59.2,0,0,1,2.88-15.13l.31-.94c.13-.36.31-.82.47-1.22a24.37,24.37,0,0,1,1.08-2.44c.38-.8.8-1.57,1.24-2.3s.9-1.48,1.38-2.16a40,40,0,0,1,6.28-7.08,48.32,48.32,0,0,1,6.73-5,61.39,61.39,0,0,1,6.72-3.68,105.74,105.74,0,0,1,25.93-7.92,184.37,184.37,0,0,1,24.91-2.79,331,331,0,0,1,48.31,1.49,509.14,509.14,0,0,1,92.74,18.8,16.93,16.93,0,0,1-9.2,32.58Z"/><path class="cls-2" d="M556.8,1592.51a15,15,0,0,1-10.13-26.07c46-42.07,59.38-103.9,39.72-183.78-15.22-61.87-45.45-111.52-45.75-112a15,15,0,0,1,25.55-15.72c1.33,2.16,32.71,53.59,49.15,119.85,9.82,39.54,12.22,76.17,7.14,108.88-6.5,41.86-25.2,77.16-55.57,104.93A14.93,14.93,0,0,1,556.8,1592.51Z"/><path class="cls-2" d="M87.27,1289.64c2.63,1.87,5.16,3.84,7.62,5.86s5,3.83,7.4,5.82c1.2,1,2.44,1.91,3.67,2.82l3.66,2.8c1.19,1,2.46,1.78,3.69,2.68s2.45,1.79,3.68,2.69c5,3.36,10.05,6.71,15.52,9.88,2.66,1.61,5.5,3.2,8.32,4.8l8.72,4.8A405.08,405.08,0,0,1,185,1353.08q4.28,3,8.48,6c2.8,2,5.51,4.2,8.23,6.34l4.06,3.21c1.33,1.1,2.63,2.26,3.94,3.38,2.62,2.25,5.21,4.54,7.74,6.89a2.18,2.18,0,0,1-2.15,3.68l-.07,0c-6.57-2.13-12.86-4.64-19.27-6.84l-9.52-3.4q-4.77-1.62-9.49-3.29c-12.66-4.34-25.21-8.21-38.15-12.36-3.28-1.08-6.51-2.12-9.82-3.32l-5-1.8c-1.66-.57-3.34-1.34-5-2l-2.51-1c-.84-.35-1.68-.69-2.51-1.11l-5-2.39c-1.68-.76-3.28-1.71-4.9-2.61s-3.25-1.83-4.86-2.78-3.12-2-4.66-3.05L92.27,1335c-.78-.51-1.53-1-2.25-1.62-2.88-2.26-5.9-4.45-8.58-6.88-1.34-1.22-2.7-2.42-4-3.66s-2.69-2.45-3.89-3.76c-2.46-2.59-4.87-5.23-7.17-8a15.07,15.07,0,0,1,20.26-22Z"/><path class="cls-2" d="M77.11,1389a61.83,61.83,0,0,0,9,6.11,81.33,81.33,0,0,0,11.14,5c8.46,3.09,18.67,6,29.3,9.49a249.2,249.2,0,0,1,31.08,12.83,219,219,0,0,1,28.88,16.86,2.22,2.22,0,0,1-1.47,4h-.05c-11-1-21.85-2.33-32.53-3.6s-21.24-2.49-31.57-3.4-21.63-1.63-33.73-5.16a68,68,0,0,1-18.3-8.25,50,50,0,0,1-15.18-15.23A15.07,15.07,0,0,1,75.85,1388Z"/><path class="cls-2" d="M224.17,1649.65a264.48,264.48,0,0,0-3.11,41.39c.05,3.44,0,6.87.13,10.31l.44,10.26.81,10.22c.11,1.7.31,3.39.53,5.08l.61,5.07.61,5,.82,5c.58,3.34,1.05,6.67,1.71,10,1.45,6.6,2.67,13.18,4.56,19.61,3.22,13,7.93,25.42,12.81,37.54l.2.5a17,17,0,1,1-31.6,12.73,17.74,17.74,0,0,1-.95-3.28c-2.69-14.56-4.94-29.05-5.56-43.59-.58-7.24-.45-14.5-.55-21.7,0-3.6.25-7.2.36-10.78l.22-5.37.44-5.36.45-5.34c.14-1.78.28-3.56.53-5.33l1.31-10.59,1.7-10.51c.58-3.49,1.35-7,2-10.42A267.55,267.55,0,0,1,224.17,1649.65Z"/></g></g></svg>