<svg xmlns="http://www.w3.org/2000/svg" viewBox="0 0 398.66 359.62"><defs><style>.cls-1{fill:#fff;}.cls-2{opacity:0.5;}.cls-3{opacity:0.2;}.cls-4{fill:#3f3f3f;}.cls-5,.cls-6{fill:#282828;}.cls-6{font-size:200px;font-family:Montserrat-Black, Montserrat;font-weight:800;}</style></defs><g id="Capa_2" data-name="Capa 2"><g id="Layer_1" data-name="Layer 1"><path class="cls-1" d="M59.7,141.31A165.87,165.87,0,1,0,97.59,72.55L19,77.41Z"/><g class="cls-2"><path class="cls-1" d="M270.33,304.28A166.13,166.13,0,0,1,61.62,228.83a166.11,166.11,0,1,0,306.15-124A166.13,166.13,0,0,1,270.33,304.28Z"/></g><g class="cls-3"><path class="cls-4" d="M65.13,153.17A191.91,191.91,0,0,1,387,132.41a168.61,168.61,0,0,0-9.66-23.88A166.17,166.17,0,0,0,97.94,79.88l-78,10.88,45.54,60.59C65.32,152,65.24,152.57,65.13,153.17Z"/></g><path class="cls-5" d="M162.17,9.2a178.39,178.39,0,0,1,120.06,2.49C336,32,376.46,76,392.3,133a174.38,174.38,0,0,1,2.61,82.67c-12.23,57.89-49.84,104.3-102.24,128A179.69,179.69,0,0,1,42.32,145.5L2.43,88.08a13.58,13.58,0,0,1,9.78-21.26L85.27,59.4A178,178,0,0,1,144.75,16,183.05,183.05,0,0,1,162.17,9.2ZM266.7,324.63q7.49-2.5,14.79-5.79A152.55,152.55,0,0,0,155.93,40.78a151.1,151.1,0,0,0-53.59,40.37,13.57,13.57,0,0,1-9,4.73L37.89,91.51,68,134.83a13.59,13.59,0,0,1,2.08,10.81,152.55,152.55,0,0,0,196.64,179Z"/><text class="cls-6" transform="translate(158.61 255.8)">?</text></g></g></svg>