<svg xmlns="http://www.w3.org/2000/svg" viewBox="0 0 2109.82 1303.57"><defs><style>.cls-1{fill:#1fb4ff;}.cls-2{fill:#444;}.cls-3{opacity:0.6;}.cls-4{fill:#f3f3f3;}.cls-5{fill:#fff;}.cls-6{opacity:0.2;}.cls-7{fill:#3f3f3f;}.cls-8{fill:#282828;}.cls-9{fill:#02daff;}.cls-10{opacity:0.77;}.cls-11{fill:#f6f6f6;}.cls-12{opacity:0.3;}</style></defs><g id="Capa_2" data-name="Capa 2"><g id="Layer_1" data-name="Layer 1"><path class="cls-1" d="M1971.7,886.61a572.9,572.9,0,0,1-112.37,177.63,27.92,27.92,0,0,1-42.45-1.81l-31.14-40,35.87-101.85,103.75-294.49,63.4,6a27.71,27.71,0,0,1,25.19,27C2014.93,700.21,2011.17,787.93,1971.7,886.61Z"/><path class="cls-2" d="M2080.18,505.14a36.75,36.75,0,0,1-22.27,7.4h-2.14c-71.45,0-125.93,24.13-140.94,62.43L1753.77,461.72l-132-92.84s170.12-173.58,460.52,77.83C2101.72,463.57,2097.77,491.83,2080.18,505.14Z"/><g class="cls-3"><path class="cls-4" d="M2094.51,482.09l-.05,0C1858.55,277.8,1702,354,1651.58,389.84l-29.82-21s170.12-173.58,460.52,77.83A36.7,36.7,0,0,1,2094.51,482.09Z"/></g><path class="cls-2" d="M1861.71,1253.42c-.09,17.59-13.3,35-34.45,35.42-172.75,2.83-275.09-40.64-335.62-91.76-82.35-69.34-87.52-152.77-87.52-152.77l340.78,10.13h.25a83.53,83.53,0,0,0-7.7,28.46C1733,1130,1763.71,1187,1823.9,1213.07a138.81,138.81,0,0,1,22.85,12.28A33.28,33.28,0,0,1,1861.71,1253.42Z"/><path class="cls-5" d="M1781.6,1027.3a113.34,113.34,0,0,1-87,37.86A2781.83,2781.83,0,0,1,1387,1042.11c-346.19-45-686.39-153.7-944.28-317.44h-.05C232,590.91,76.23,420.39,17,217.86a60.16,60.16,0,0,1,19.54-63.15C191.53,25.27,434-11.32,719,32.05c270,41,578.25,153.89,886.34,327.52,90.25,50.83,180.5,106.92,269.73,167.89a114.12,114.12,0,0,1,49.61,86.15C1930.77,699.87,1920.78,869.94,1781.6,1027.3Z"/><path class="cls-2" d="M442.74,724.67h-.05C232,590.91,76.23,420.39,17,217.86a60.16,60.16,0,0,1,19.54-63.15C191.53,25.27,434-11.32,719,32.05,719,32.05,830.94,490.13,442.74,724.67Z"/><g class="cls-3"><path class="cls-4" d="M36.51,257.77A676.06,676.06,0,0,0,69,345.59,684.55,684.55,0,0,1,17,217.86a60.16,60.16,0,0,1,19.54-63.15C191.53,25.27,434-11.32,719,32.05c0,0,3.41,13.89,7,38.06-279.57-40.4-517.19-3-669.87,124.51A60.17,60.17,0,0,0,36.51,257.77Z"/></g><path class="cls-2" d="M1781.6,1027.3a113.34,113.34,0,0,1-87,37.86A2781.83,2781.83,0,0,1,1387,1042.11c201.94-230.3,222.56-508.61,221.19-626-.44-34.64-2.78-55.31-2.92-56.53,90.25,50.83,180.5,106.92,269.73,167.89a114.23,114.23,0,0,1,47,69,105.36,105.36,0,0,1,2.59,17.1C1930.77,699.87,1920.78,869.94,1781.6,1027.3Z"/><g class="cls-6"><path class="cls-7" d="M1781.6,1027.3a113.34,113.34,0,0,1-87,37.86A2781.83,2781.83,0,0,1,1387,1042.11c-346.19-45-686.39-153.7-944.28-317.44h-.05C232,590.91,76.23,420.39,17,217.86a60.16,60.16,0,0,1,19.54-63.15c2.09-1.76,4.19-3.46,6.33-5.17,76.46,154,211.06,286.4,381.67,394.73h.05c123.78,78.6,266.52,144.54,419.83,196.78a220.36,220.36,0,0,1-53.66-144.54c0-122.46,99.27-221.73,221.73-221.73s221.73,99.27,221.73,221.73c0,99.66-65.74,184-156.23,211.89a2818.78,2818.78,0,0,0,290.88,53.31,2784.44,2784.44,0,0,0,307.59,23,113.39,113.39,0,0,0,87-37.87C1853,745.63,1889.1,639.05,1901.77,553a113.08,113.08,0,0,1,22.86,60.62C1930.77,699.87,1920.78,869.94,1781.6,1027.3Z"/></g><g class="cls-3"><path class="cls-7" d="M1922,596.51C1809.91,515.66,1646.37,432,1608.21,416.1c-.44-34.64-2.78-55.31-2.92-56.53,90.25,50.83,180.5,106.92,269.73,167.89A114.23,114.23,0,0,1,1922,596.51Z"/></g><path class="cls-8" d="M1696.81,1079.81c-.83,0-1.65,0-2.48,0-370.13-7-756.17-92.16-1059.13-233.67C294.46,687,75.84,471.13,3,222a74.93,74.93,0,0,1,24.21-78.44h0C113.68,71.26,228,25.73,366.86,8.17,499.87-8.64,652.25.51,819.78,35.38c334.86,69.67,712.56,240.15,1063.51,480a128.13,128.13,0,0,1,55.94,97.18c6.34,89.4-4.29,263.42-146.69,424.4A127.5,127.5,0,0,1,1696.81,1079.81ZM502.16,29.68C314,29.68,156.13,73.9,45.91,166h0A45.69,45.69,0,0,0,31,213.75c89,304.32,384.4,497.45,616.54,605.88,299.39,139.83,681.12,224,1047.32,230.93a98.42,98.42,0,0,0,75.75-33c135.32-153,145.44-318.12,139.42-403a99,99,0,0,0-43.27-75.1C1383.73,209.38,881.39,29.68,502.16,29.68Zm-465.62,125h0Z"/><path class="cls-8" d="M442.75,736.87a12.18,12.18,0,0,1-6.31-22.61c157.46-95.15,250.93-238,277.8-424.74,20.16-140-6.85-253.46-7.12-254.59a12.18,12.18,0,0,1,23.67-5.79c1.16,4.78,28.32,118.47,7.69,263C719.38,426,653.66,611.47,449,735.11A12.09,12.09,0,0,1,442.75,736.87Z"/><path class="cls-8" d="M1387,1054.33a12.19,12.19,0,0,1-9.16-20.22C1634.56,741.41,1593.64,364.73,1593.2,361a12.18,12.18,0,0,1,24.2-2.86c.47,4,11.26,98.76-10.41,232-20,123-72.82,302.67-210.88,460.06A12.18,12.18,0,0,1,1387,1054.33Z"/><path class="cls-8" d="M1914.84,589.58a14.63,14.63,0,0,1-13.61-20c17.32-44.22,76.54-71.7,154.55-71.7h2a22.47,22.47,0,0,0,21.3-15c1.28-3.49,4.63-15.61-6.42-25.17C1957.29,357.85,1844.09,313,1745.32,328c-73.15,11.11-112.72,50.75-113.11,51.16a14.62,14.62,0,0,1-20.88-20.47c1.87-1.92,46.89-47,129.6-59.6,75-11.37,196.68,3.07,350.89,136.6a52.15,52.15,0,0,1-33.82,91.5h-2.22c-64.71,0-114.69,20.86-127.33,53.13A14.64,14.64,0,0,1,1914.84,589.58Z"/><path class="cls-8" d="M1811.69,1303.57c-205.6,0-309-67.42-359.8-124.81-57.51-65-62.19-130.78-62.36-133.55a14.62,14.62,0,0,1,29.18-1.85c0,.7,4.69,60,56.33,117.44,69,76.83,190.76,116.12,352,113.4,10.92-.18,17-7.74,19.14-14.75,1-3.28,3.32-14.57-7.62-22a125.51,125.51,0,0,0-20.47-11c-40.83-17.7-72.66-50.4-87.3-89.71-11.51-30.87-11.07-63.2,1.2-88.69a14.62,14.62,0,1,1,26.35,12.69c-8.84,18.35-8.9,42.33-.16,65.79,11.89,31.9,38,58.54,71.54,73.09a154.64,154.64,0,0,1,25.26,13.61c17.93,12.16,25.47,33.58,19.22,54.55-6.35,21.28-24.67,35.27-46.68,35.63C1822.18,1303.52,1816.89,1303.57,1811.69,1303.57Z"/><path class="cls-8" d="M1838.88,1087.78c-.6,0-1.21,0-1.82,0a42.43,42.43,0,0,1-31.71-16.33l-31.12-39.93a14.62,14.62,0,0,1,23.06-18l31.12,39.93a13.28,13.28,0,0,0,20.19.85c140.83-152.06,152.34-326.81,150.76-394.87a13.16,13.16,0,0,0-12-12.74l-63.39-6a14.62,14.62,0,0,1,2.75-29.11l63.4,6a42.42,42.42,0,0,1,38.45,41.16c1.67,71.64-10.43,255.51-158.53,415.42A42.43,42.43,0,0,1,1838.88,1087.78Z"/><circle class="cls-1" cx="1001.55" cy="522.29" r="221.73" transform="translate(-75.97 861.18) rotate(-45)"/><path class="cls-8" d="M1001.55,758.64c-130.33,0-236.35-106-236.35-236.35s106-236.35,236.35-236.35S1237.9,392,1237.9,522.29,1131.87,758.64,1001.55,758.64Zm0-443.46c-114.21,0-207.12,92.91-207.12,207.11S887.34,729.4,1001.55,729.4s207.11-92.91,207.11-207.11S1115.75,315.18,1001.55,315.18Z"/><path class="cls-9" d="M1159.1,522.29a157.52,157.52,0,0,1-157.55,157.55A157.39,157.39,0,0,1,844,522.29a157.52,157.52,0,0,1,301.89-63.11A155.69,155.69,0,0,1,1159.1,522.29Z"/><g class="cls-10"><path class="cls-11" d="M1060.27,376.05l-205,205a157.64,157.64,0,0,1,205-205Z"/></g><g class="cls-10"><path class="cls-11" d="M1145.89,459.18,938.44,666.64a156.68,156.68,0,0,1-59.31-45.13l221.64-221.63A156.7,156.7,0,0,1,1145.89,459.18Z"/></g><g class="cls-12"><path class="cls-7" d="M1155.49,488.81a157.25,157.25,0,0,0-137.71-81A157.52,157.52,0,0,0,860.23,565.32a155.24,155.24,0,0,0,3.6,33.53A156.23,156.23,0,0,1,844,522.29a157.52,157.52,0,0,1,301.89-63.11A149.37,149.37,0,0,1,1155.49,488.81Z"/></g><path class="cls-8" d="M1001.55,692a167.29,167.29,0,0,1-68-14.25,169.5,169.5,0,0,1-101.7-155.49c0-93.59,76.15-169.73,169.74-169.73a169.77,169.77,0,0,1,169.73,169.73C1171.28,615.88,1095.14,692,1001.55,692Zm0-315.11c-80.16,0-145.37,65.21-145.37,145.37a145.41,145.41,0,0,0,145.37,145.37c80.16,0,145.37-65.21,145.37-145.37a143,143,0,0,0-12.17-58.18,145.07,145.07,0,0,0-133.2-87.19Z"/><path class="cls-2" d="M1561,694c88.54-6.85,277.22.79,444.38,155.08,14.24,13.14,5.94,36.94-13.39,38.21-79.52,5.23-252.68-5.13-442.86-154C1533.29,720.89,1541,695.52,1561,694Z"/><g class="cls-12"><path class="cls-7" d="M1992,887.24c-69.88,4.63-212.22-2.82-374.79-105.89,119.39,52.09,219.24,55.94,274.31,52.29,19.35-1.27,27.63-25,13.4-38.21a605.27,605.27,0,0,0-74.75-58.91C1887.79,760.25,1947.87,796,2005.38,849,2019.61,862.2,2011.32,886,1992,887.24Z"/></g><g class="cls-3"><path class="cls-4" d="M2012.44,867c-164.22-144.2-346.29-151.31-432.74-144.64a21.81,21.81,0,0,0-20.12,18.91c-3.46-2.58-7-5.26-10.43-8C1533.31,720.87,1541,695.53,1561,694c88.55-6.87,277.24.78,444.39,155.07A21.75,21.75,0,0,1,2012.44,867Z"/></g><path class="cls-8" d="M1960.21,902.9c-93.81,0-250.17-25.12-420.09-158.11a36.64,36.64,0,0,1,19.75-65.4h0c97.63-7.54,286.56,3.06,455.43,158.91A36.65,36.65,0,0,1,1993,901.85C1983.12,902.49,1972.17,902.9,1960.21,902.9ZM1562.13,708.54a7.41,7.41,0,0,0-4,13.23c183.94,144,350.14,156.36,432.89,150.9a7.1,7.1,0,0,0,6.44-4.86,7.27,7.27,0,0,0-2-8c-160.7-148.33-340.48-158.4-433.33-151.25Z"/><g class="cls-12"><path class="cls-7" d="M1861.71,1253.42c-112-4.72-174.16-56.29-207-100.1-19.73-26.37-54.44-37-85.13-25-39.5,15.42-72.47,37.51-78,68.8-82.35-69.34-87.52-152.77-87.52-152.77l340.78,10.13-14.08,28.9,6.63-.44C1733,1130,1763.71,1187,1823.9,1213.07a138.81,138.81,0,0,1,22.85,12.28A33.28,33.28,0,0,1,1861.71,1253.42Z"/></g><g class="cls-12"><path class="cls-7" d="M2080.18,505.14a36.75,36.75,0,0,1-22.27,7.4h-2.14c-71.45,0-125.93,24.13-140.94,62.43-31.76-51.18-88.47-87.08-161.06-113.25,3.07-2.54,6.34-5,9.9-7.51C1875.21,376.44,2080.18,505.14,2080.18,505.14Z"/></g><g class="cls-12"><path class="cls-7" d="M1971.7,886.61a572.9,572.9,0,0,1-112.37,177.63,27.92,27.92,0,0,1-42.45-1.81l-31.09-39.91a586.17,586.17,0,0,0,67.4-95.12C1904.16,933.49,1943.05,913.61,1971.7,886.61Z"/></g></g></g></svg>