<svg xmlns="http://www.w3.org/2000/svg" viewBox="0 0 1189.05 1189.05"><defs><style>.cls-1{fill:#fbc237;}.cls-2{opacity:0.35;}.cls-3{fill:#3f3f3f;}.cls-4{opacity:0.4;}.cls-5{fill:#fff;}.cls-6{fill:#282828;}</style></defs><g id="Capa_2" data-name="Capa 2"><g id="Layer_1" data-name="Layer 1"><path class="cls-1" d="M920.73,1066.37c-260,181.76-618.12,118.35-799.92-141.67A573.69,573.69,0,0,1,48.17,782.09,565.44,565.44,0,0,1,29.94,716.7C-15.6,505,61.47,277.62,242.7,139.3c6.45-5,13.05-9.79,19.78-14.49a574.78,574.78,0,0,1,284.84-102c5-.39,9.95-.69,14.94-.95a575.08,575.08,0,0,1,581.1,413.44C1210.16,665.09,1127.78,921.63,920.73,1066.37Z"/><g class="cls-2"><path class="cls-3" d="M18.6,639.27q3.18,27.84,9.07,55.44A566.56,566.56,0,0,0,45.9,760.1a573.35,573.35,0,0,0,72.64,142.61c181.8,260,539.9,323.43,799.92,141.67,174.77-122.2,260.68-324.06,243-522.26-1.93-17.8-4.61-35.57-8.24-53.24.67,182-84.91,361.21-245.32,473.36C647.89,1124,289.79,1060.59,108,800.58A573.58,573.58,0,0,1,35.35,658a565.44,565.44,0,0,1-18.23-65.39c-.37-1.79-.75-3.58-1.12-5.37a574.77,574.77,0,0,0,4.38,68.41Q19.39,647.45,18.6,639.27Z"/></g><g class="cls-4"><path class="cls-5" d="M1056.89,258.87a574,574,0,0,0-494.63-237c-5,.26-10,.56-14.94.95a574.78,574.78,0,0,0-284.84,102c-6.73,4.7-13.33,9.51-19.78,14.49C61.47,277.62-15.6,505,29.94,716.7a565.44,565.44,0,0,0,18.23,65.39c1.68,4.88,3.48,9.74,5.29,14.6-60.38-230.28,24.4-483.85,231-628.25a584,584,0,0,1,60.3-37,40.82,40.82,0,0,0,1.37,4.58c11.7,32.14,61.62,43.47,111.53,25.3s80.88-58.94,69.18-91.07l0-.11C719.84,39.21,921.59,106.6,1056.89,258.87Z"/></g><path class="cls-6" d="M595.12,1189.05A597.88,597.88,0,0,1,278.21,1098a594.26,594.26,0,0,1-24.27-990.62,594.57,594.57,0,0,1,844,803.49,594.2,594.2,0,0,1-502.85,278.21ZM593.35,40C480.76,40,371.06,74.28,276.86,140.13,155.49,225,74.42,352,48.6,497.84s6.68,293,91.53,414.35S352,1114.63,497.84,1140.45a561.35,561.35,0,0,0,97.86,8.64c112.59,0,222.29-34.32,316.49-100.17,121.37-84.85,202.44-211.89,228.26-357.71s-6.68-293-91.53-414.35S837,74.42,691.21,48.6A561.35,561.35,0,0,0,593.35,40Z"/><g class="cls-2"><ellipse class="cls-3" cx="424.94" cy="257.76" rx="127.48" ry="79.86" transform="translate(-48.85 107.64) rotate(-13.66)"/></g><ellipse class="cls-1" cx="429.68" cy="282.67" rx="111.48" ry="50.13" transform="translate(-54.6 109.47) rotate(-13.66)"/><path class="cls-6" d="M525.43,187.26a72,72,0,0,1,14.71,10.68,66,66,0,0,1,6.24,7,63.73,63.73,0,0,1,5.19,8,57.86,57.86,0,0,1,3.81,8.85l.72,2.32c.22.78.39,1.57.58,2.35l.56,2.37c.15.8.26,1.6.39,2.4a62.53,62.53,0,0,1-.16,19.36A77.35,77.35,0,0,1,552,268.8a100.38,100.38,0,0,1-9.19,16.3,120,120,0,0,1-11.68,14.23c-2.08,2.25-4.28,4.34-6.49,6.43l-3.41,3c-1.13,1-2.32,1.93-3.48,2.91a154.39,154.39,0,0,1-14.62,10.64c-2.5,1.68-5.1,3.16-7.67,4.72s-5.22,3-7.9,4.3a202.05,202.05,0,0,1-33.17,13.51c-2.85.89-5.74,1.66-8.62,2.45S440,348.8,437,349.39c-5.82,1.33-11.75,2.26-17.68,3.06a187.34,187.34,0,0,1-36.09,1.08,148.42,148.42,0,0,1-36.06-6.84c-11.78-3.95-23.39-9.58-33.49-18.05a72.67,72.67,0,0,1-13.48-14.78,62.78,62.78,0,0,1-8.57-18.59,61,61,0,0,1-2-20.25,69.89,69.89,0,0,1,4.13-19.35,87.17,87.17,0,0,1,8.55-17c.87-1.3,1.71-2.62,2.61-3.88l2.77-3.72,2.94-3.56c1-1.17,2-2.27,3.05-3.41a131.5,131.5,0,0,1,13.19-12.39,161.53,161.53,0,0,1,14.48-10.43c5-3.14,10.13-6,15.39-8.66s10.59-5,16.07-7a186.29,186.29,0,0,1,33.42-9.25,3.66,3.66,0,0,1,1.9,7l-.09,0c-5.23,1.9-10.45,3.72-15.51,6-2.55,1-5,2.22-7.55,3.33-1.25.58-2.48,1.2-3.71,1.8s-2.47,1.2-3.67,1.86L374,198.31l-3.56,2-1.78,1-1.75,1.06c-1.16.71-2.33,1.4-3.48,2.13-4.57,2.93-9,6-13.29,9.28s-8.31,6.77-12.14,10.45a130.25,130.25,0,0,0-10.61,11.63c-6.48,8.1-11.61,17.05-14.36,26.26a49.21,49.21,0,0,0-2.2,13.77,41.91,41.91,0,0,0,2,13.19c2.69,8.41,8.24,15.75,15.65,21.58a82.49,82.49,0,0,0,26.14,13.14,131.72,131.72,0,0,0,30.34,5.33,175.47,175.47,0,0,0,31.47-1,201.72,201.72,0,0,0,31.15-6.35c2.54-.76,5.1-1.47,7.61-2.34s5-1.72,7.52-2.62c4.95-1.89,9.85-3.93,14.62-6.21,2.42-1.08,4.74-2.34,7.11-3.52s4.65-2.5,6.89-3.89a149.31,149.31,0,0,0,13.16-8.66,131.26,131.26,0,0,0,12-9.95A107.37,107.37,0,0,0,527,273.37a82.16,82.16,0,0,0,8.36-12.57,59.94,59.94,0,0,0,5.42-13.66,47,47,0,0,0,1.52-14.29l-.09-1.81-.23-1.78c-.08-.6-.13-1.2-.24-1.8l-.34-1.78a53.2,53.2,0,0,0-2.1-7A51.29,51.29,0,0,0,536,212a55.63,55.63,0,0,0-4.34-6.23,62.57,62.57,0,0,0-5.22-5.75c-1.88-1.81-3.9-3.53-6-5.2l-.08-.07a4.54,4.54,0,0,1,5-7.52Z"/><path class="cls-6" d="M466.12,379.35a92.07,92.07,0,0,1-13.29,8.92,113.85,113.85,0,0,1-14.63,6.83,128.38,128.38,0,0,1-31.49,7.6,150,150,0,0,1-32.47.14,159.89,159.89,0,0,1-31.77-6.73A152,152,0,0,1,312.68,383c-2.36-1.38-4.69-2.81-7-4.31s-4.51-3.1-6.7-4.76a118.23,118.23,0,0,1-12.47-10.81A92.86,92.86,0,0,1,267.41,336c-4.61-10.15-6.9-21.52-5.72-32.36a3.7,3.7,0,0,1,7.28-.46l0,.07c4.46,18.84,16.46,33.47,31.06,44.69s31.83,19.39,49.73,24.88a190.59,190.59,0,0,0,55.56,8.26,169.16,169.16,0,0,0,28.26-2.39c4.7-.79,9.38-1.81,14.06-3s9.33-2.66,14-4.22l.07,0a4.6,4.6,0,0,1,4.36,7.94Z"/><g class="cls-2"><ellipse class="cls-3" cx="211.64" cy="680.89" rx="80.01" ry="127.75" transform="translate(-94.99 37.17) rotate(-8.2)"/></g><ellipse class="cls-1" cx="236.72" cy="678.3" rx="50.13" ry="111.48" transform="translate(-94.37 40.72) rotate(-8.2)"/><path class="cls-6" d="M150.85,573.91a72,72,0,0,1,12-13.63,67.25,67.25,0,0,1,7.52-5.55,63.68,63.68,0,0,1,8.44-4.4,57.71,57.71,0,0,1,9.17-3l2.37-.49c.8-.15,1.6-.24,2.4-.36l2.41-.33c.81-.07,1.62-.11,2.43-.16a62.65,62.65,0,0,1,19.25,2,77.18,77.18,0,0,1,17.66,7.21,100.45,100.45,0,0,1,15.36,10.69,120.46,120.46,0,0,1,13.06,13c2,2.28,3.91,4.67,5.78,7.07l2.69,3.67c.9,1.22,1.7,2.5,2.56,3.75A155.45,155.45,0,0,1,283.2,609c1.43,2.65,2.66,5.39,4,8.09s2.46,5.47,3.53,8.27A202.35,202.35,0,0,1,301,659.65c.61,2.92,1.11,5.86,1.62,8.8s.93,5.9,1.23,8.88c.77,5.92,1.14,11.9,1.37,17.89a187.24,187.24,0,0,1-2.36,36,148.56,148.56,0,0,1-10.23,35.25c-5.06,11.34-11.76,22.37-21.16,31.61a72.65,72.65,0,0,1-16,12,62.79,62.79,0,0,1-19.31,6.76,61,61,0,0,1-20.36.11,69.89,69.89,0,0,1-18.86-6,87.39,87.39,0,0,1-16.14-10.13c-1.2-1-2.44-1.95-3.61-3l-3.44-3.12-3.26-3.26c-1.08-1.08-2.07-2.24-3.11-3.36a131.29,131.29,0,0,1-11.08-14.31,164.49,164.49,0,0,1-9-15.4c-2.64-5.29-5.05-10.66-7.15-16.14a174.9,174.9,0,0,1-5.42-16.66,186.77,186.77,0,0,1-6-34.15,3.66,3.66,0,0,1,7.2-1.22l0,.09c1.39,5.38,2.71,10.76,4.45,16,.79,2.64,1.72,5.24,2.59,7.84.46,1.3,1,2.58,1.44,3.86s1,2.57,1.5,3.83l1.57,3.79,1.67,3.74.83,1.87.89,1.84c.6,1.22,1.17,2.45,1.78,3.67,2.49,4.83,5.12,9.56,8,14.11s6,8.92,9.25,13.08a129.34,129.34,0,0,0,10.57,11.66c7.45,7.23,15.87,13.19,24.78,16.8a49.1,49.1,0,0,0,13.5,3.5,42,42,0,0,0,13.31-.7c8.63-1.87,16.46-6.71,23-13.53A82.7,82.7,0,0,0,270.55,757a132.29,132.29,0,0,0,8.19-29.7,174.81,174.81,0,0,0,2-31.41,201.72,201.72,0,0,0-3.35-31.62c-.52-2.6-1-5.22-1.61-7.8s-1.24-5.16-1.9-7.73c-1.41-5.11-3-10.18-4.79-15.15-.85-2.51-1.88-4.94-2.83-7.41s-2-4.87-3.21-7.22A149.07,149.07,0,0,0,255.7,605a130.83,130.83,0,0,0-8.77-12.92,106.29,106.29,0,0,0-10.21-11.54A81.9,81.9,0,0,0,225,571.06a60.35,60.35,0,0,0-13.08-6.7,46.88,46.88,0,0,0-14.09-2.86l-1.8-.09-1.8.06c-.6,0-1.21,0-1.81.06l-1.81.18a52.56,52.56,0,0,0-7.15,1.42,50.87,50.87,0,0,0-7,2.61,54,54,0,0,0-6.6,3.73,59.78,59.78,0,0,0-6.22,4.64c-2,1.71-3.89,3.55-5.76,5.46l-.07.07a4.54,4.54,0,0,1-7-5.73Z"/><path class="cls-6" d="M336.43,651.21a92.82,92.82,0,0,1,7.62,14.09,113.53,113.53,0,0,1,5.41,15.21A128.52,128.52,0,0,1,354,712.58a149.28,149.28,0,0,1-2.94,32.33,159.67,159.67,0,0,1-9.72,31,151,151,0,0,1-15.93,28.4c-1.59,2.22-3.23,4.4-4.94,6.54s-3.52,4.19-5.38,6.21a119,119,0,0,1-11.94,11.38,92.58,92.58,0,0,1-28.81,16.47c-10.54,3.62-22.07,4.82-32.75,2.62a3.7,3.7,0,0,1,.24-7.29h.07c19.18-2.66,34.88-13.2,47.44-26.67s22.32-29.85,29.49-47.15a190.23,190.23,0,0,0,13.51-54.52,169.75,169.75,0,0,0,.3-28.35c-.33-4.76-.9-9.51-1.66-14.29s-1.75-9.53-2.87-14.36v-.08a4.6,4.6,0,0,1,8.31-3.59Z"/><g class="cls-2"><ellipse class="cls-3" cx="649" cy="572.22" rx="107.58" ry="91.76" transform="translate(-124.86 185.2) rotate(-14.83)"/></g><ellipse class="cls-1" cx="636.15" cy="609.03" rx="65.22" ry="80.83" transform="matrix(0.03, -1, 1, 0.03, 7.29, 1225.58)"/><path class="cls-6" d="M675.22,659.78l3.8-1.58c1.26-.53,2.54-1,3.78-1.57l3.69-1.75c1.22-.6,2.46-1.13,3.64-1.82l3.57-1.92,1.78-.95,1.72-1.07c2.3-1.42,4.61-2.77,6.77-4.37l3.29-2.31,3.15-2.46,1.57-1.23a18.88,18.88,0,0,0,1.54-1.27l3-2.64,1.48-1.31,1.41-1.4,2.82-2.78c.93-.93,1.77-2,2.66-2.92s1.78-1.92,2.59-2.95l2.45-3.07c.4-.51.82-1,1.21-1.53l1.12-1.6,2.24-3.19c.71-1.08,1.35-2.21,2-3.3,1.42-2.16,2.55-4.48,3.77-6.74.64-1.11,1.09-2.31,1.63-3.47s1.08-2.31,1.54-3.5l1.32-3.57c.21-.6.46-1.18.65-1.78l.54-1.82,1.07-3.63c.28-1.22.62-2.44.85-3.67a79.7,79.7,0,0,0,1.68-14.78,72.85,72.85,0,0,0-5.37-28.65,73.64,73.64,0,0,0-16-24.23,86.58,86.58,0,0,0-24.06-17.18,93.12,93.12,0,0,0-14-5.55l-1.81-.57-1.83-.5c-1.23-.3-2.43-.68-3.67-.94l-3.71-.83-3.75-.67c-40.09-6.62-84.72,9.07-110.32,41.4a97.45,97.45,0,0,0-8.59,12.72,89.59,89.59,0,0,0-6.34,13.93,79.34,79.34,0,0,0-4.59,30.14,80.88,80.88,0,0,0,2.22,15.32,79.31,79.31,0,0,0,13.44,28.39,94.66,94.66,0,0,0,10.7,12.17l0,0a3.66,3.66,0,0,1-4.63,5.65,91.38,91.38,0,0,1-13.52-11.54,88.46,88.46,0,0,1-11.09-14.23,87.12,87.12,0,0,1-12.37-34.33,91.56,91.56,0,0,1,2.55-36.92A106.71,106.71,0,0,1,548.75,518c14.32-20.23,34.79-35.72,57.66-44.83a152.05,152.05,0,0,1,17.52-5.76A155.3,155.3,0,0,1,642.11,464a145.22,145.22,0,0,1,18.54-1,143,143,0,0,1,18.57,1.6,119.63,119.63,0,0,1,18.23,4.26,117.51,117.51,0,0,1,17.49,7,111.19,111.19,0,0,1,16.23,9.84,101.24,101.24,0,0,1,14.37,12.63,99.23,99.23,0,0,1,11.77,15.26,89.06,89.06,0,0,1,8.48,17.35,92.25,92.25,0,0,1,5.44,37.88,94.36,94.36,0,0,1-3.18,18.75c-.39,1.53-.89,3-1.34,4.53l-1.61,4.42-.81,2.21c-.29.73-.62,1.43-.93,2.15l-1.92,4.27A114.22,114.22,0,0,1,740,635a121.8,121.8,0,0,1-29,21.37c-2.6,1.47-5.34,2.67-8,3.91l-2,.93-2.08.81-4.14,1.61c-1.37.56-2.8,1-4.21,1.4l-4.22,1.32c-2.84.79-5.71,1.43-8.56,2.11a4.54,4.54,0,0,1-2.8-8.6Z"/><path class="cls-6" d="M505.64,557.29a131.61,131.61,0,0,0-2.28,15.82,116.31,116.31,0,0,0,5.27,46.27c.74,2.46,1.76,4.83,2.65,7.23.42,1.21,1,2.36,1.53,3.53l1.59,3.49A111.79,111.79,0,0,0,522,646.85c.73,1,1.4,2.12,2.15,3.16l2.29,3,1.14,1.52,1.23,1.46,2.46,2.91c.82,1,1.73,1.86,2.59,2.8s1.7,1.87,2.63,2.74l2.74,2.65c.47.44.91.89,1.38,1.31l1.45,1.25,2.87,2.5c1,.8,2,1.57,3,2.35,2,1.61,4.09,3,6.16,4.52,1,.76,2.1,1.43,3.17,2.11l3.22,2.06,3.32,1.91c1.12.61,2.19,1.3,3.35,1.85a149.16,149.16,0,0,0,28.42,11.46,157.44,157.44,0,0,0,30.28,5.65,173.54,173.54,0,0,0,30.92,0,182.65,182.65,0,0,0,59.81-16,166.78,166.78,0,0,0,50.46-35.85l1.36-1.4,1.3-1.45,2.59-2.9c1.7-2,3.31-4,4.94-6a152.73,152.73,0,0,0,8.85-12.82,131.07,131.07,0,0,0,13.16-28.24,122.93,122.93,0,0,0,5.86-30.81c.07-2.63.28-5.28.15-7.92l-.08-4-.3-4c-.11-2.67-.55-5.29-.87-8-.13-1.34-.44-2.64-.67-4l-.72-4,0-.27a3.65,3.65,0,0,1,7-1.83c.92,2.71,2,5.4,2.75,8.17s1.61,5.54,2.14,8.38l.87,4.26.62,4.31c.49,2.87.62,5.77.89,8.68.16,1.45.11,2.91.18,4.37s.1,2.92.07,4.38l-.17,4.38-.08,2.2-.2,2.18-.41,4.38c-.17,1.46-.43,2.9-.64,4.36-.39,2.91-1,5.77-1.64,8.65-.27,1.45-.66,2.87-1,4.29L811.83,612l-1.37,4.19c-.46,1.4-.88,2.81-1.44,4.17-1.07,2.74-2,5.53-3.32,8.19l-1.82,4-2,3.94a152.88,152.88,0,0,1-19.69,29.3,172.9,172.9,0,0,1-25.56,24.38c-1.14.93-2.34,1.79-3.53,2.66l-3.59,2.59c-2.41,1.7-4.9,3.27-7.36,4.91s-5.06,3-7.61,4.51-5.18,2.82-7.81,4.14a193.52,193.52,0,0,1-67.65,19.45,179.54,179.54,0,0,1-70.39-6.94,164.78,164.78,0,0,1-32.75-14.29,143.66,143.66,0,0,1-28.62-21.63,127.49,127.49,0,0,1-22.05-28.37A130.85,130.85,0,0,1,497.46,641c-.53-1.4-1-2.82-1.52-4.22s-1-2.8-1.41-4.25c-.81-2.87-1.73-5.71-2.35-8.62a119,119,0,0,1,4.76-69.19,4.55,4.55,0,0,1,8.71,2.53Z"/><g class="cls-2"><ellipse class="cls-3" cx="815.75" cy="227.25" rx="57.09" ry="48.7" transform="translate(-8.23 31.92) rotate(-2.23)"/></g><ellipse class="cls-1" cx="804.83" cy="244.83" rx="34.61" ry="42.9" transform="translate(367.35 963.37) rotate(-75.58)"/><path class="cls-6" d="M819.17,275.15c11.39-1.9,22.16-6.2,30.76-13,1-.89,2.15-1.68,3.11-2.65l1.49-1.38c.48-.47.93-1,1.39-1.46a47.7,47.7,0,0,0,5-6.21c.67-1.14,1.47-2.19,2-3.36l.94-1.72c.28-.59.58-1.17.83-1.76a42.06,42.06,0,0,0,2.46-7.27,38,38,0,0,0-4.93-28.89c-5.32-8.59-13.95-15.22-23.71-19.15-19.53-7.91-44-5.1-60.72,8.27-8.36,6.59-14.62,15.89-16.59,26.43a40.46,40.46,0,0,0-.72,8,43.9,43.9,0,0,0,.9,8.13,47.1,47.1,0,0,0,6.5,15.48v0a2.34,2.34,0,0,1-3.67,2.87,48.36,48.36,0,0,1-5.82-7.54,46.37,46.37,0,0,1-6.87-28.21,48.92,48.92,0,0,1,5.56-19.2,57.61,57.61,0,0,1,12.24-15.83A69.47,69.47,0,0,1,805,169.78a74.39,74.39,0,0,1,39.37,4,64.39,64.39,0,0,1,9.13,4.4,63.61,63.61,0,0,1,8.41,5.77,58.33,58.33,0,0,1,13.53,15.53,51.7,51.7,0,0,1,6.83,19.72,49.89,49.89,0,0,1-1.67,20.74,50.72,50.72,0,0,1-3.94,9.53c-.4.76-.84,1.49-1.26,2.23L874,253.84c-.89,1.46-2,2.76-3,4.11a61.14,61.14,0,0,1-14.87,13.12,66.38,66.38,0,0,1-36.63,9.86,2.91,2.91,0,0,1-.39-5.78Z"/><path class="cls-6" d="M743.66,203.16a63.45,63.45,0,0,0-5.15,32.22,58.27,58.27,0,0,0,3.85,15.48,60.1,60.1,0,0,0,7.71,13.83,73,73,0,0,0,24,20.62,87.8,87.8,0,0,0,30.57,9.84,96.56,96.56,0,0,0,32.38-1.29A88,88,0,0,0,867,281.46a75.08,75.08,0,0,0,12.62-10.29,69.36,69.36,0,0,0,10.08-12.84,63.66,63.66,0,0,0,6.71-15A67.14,67.14,0,0,0,899,226.73v0a2.34,2.34,0,0,1,4.65-.29,61.34,61.34,0,0,1,.08,18.5c-.23,1.55-.52,3.09-.85,4.62l-.58,2.28c-.18.76-.4,1.52-.65,2.26l-.71,2.25c-.25.75-.55,1.48-.82,2.22-.53,1.48-1.18,2.92-1.82,4.36a72.77,72.77,0,0,1-10.13,16A81.68,81.68,0,0,1,874.54,292a94.21,94.21,0,0,1-34.08,16.28,103.32,103.32,0,0,1-37.74,2.33,96,96,0,0,1-36.12-11.93,88.27,88.27,0,0,1-15.5-11.38,77,77,0,0,1-12.45-14.79A68.55,68.55,0,0,1,730.47,255a70,70,0,0,1-2.14-9.44c-.19-1.6-.41-3.2-.51-4.8s-.22-3.2-.19-4.81a65.21,65.21,0,0,1,2.86-18.79,67.5,67.5,0,0,1,3.44-8.74,63.92,63.92,0,0,1,4.67-8,2.91,2.91,0,0,1,5.07,2.8Z"/><path class="cls-6" d="M957.43,360.82a108.45,108.45,0,0,0-16.38,13A103,103,0,0,0,928,389.58a97.3,97.3,0,0,0-14.86,36.91,112.08,112.08,0,0,0,.15,39.72A126.92,126.92,0,0,0,926.5,504a142.14,142.14,0,0,0,24.07,32.59,152.48,152.48,0,0,0,15.36,13.47l4.1,3.07,4.26,2.84c2.81,2,5.82,3.59,8.79,5.31,1.47.91,3,1.63,4.55,2.4l4.61,2.3,4.76,2,2.37,1c.79.36,1.62.59,2.43.89l4.88,1.72a24.3,24.3,0,0,0,2.47.77l2.5.72,2.5.71a24.34,24.34,0,0,0,2.51.65c1.7.35,3.39.72,5.09,1.1a50.25,50.25,0,0,0,5.14.9c1.72.24,3.45.56,5.18.77l5.23.44c.87.06,1.75.17,2.63.22l2.63,0,5.29.11,5.3-.26,2.67-.1,2.65-.31c1.77-.22,3.55-.41,5.35-.59l.31,0a3.66,3.66,0,0,1,1.61,7.09c-1.81.65-3.62,1.28-5.46,1.9l-2.75.93-2.81.72-5.66,1.39c-1.91.35-3.83.63-5.76.94l-2.89.45c-1,.13-1.94.18-2.91.26l-5.86.44c-2,.09-3.91,0-5.87.05s-3.94,0-5.89-.17-3.92-.3-5.88-.46c-1-.06-2-.21-2.93-.36l-2.92-.44-2.93-.45a26.14,26.14,0,0,1-2.91-.54l-5.77-1.32c-1-.24-1.94-.41-2.88-.71l-2.84-.85-5.68-1.75-5.54-2.12c-1.85-.72-3.73-1.38-5.5-2.27A147.91,147.91,0,0,1,905,515.66a138.51,138.51,0,0,1-9.76-22.07,136.19,136.19,0,0,1-5.72-23.53A121.19,121.19,0,0,1,892,421.7a103.61,103.61,0,0,1,22.57-42.65c1.29-1.54,2.75-2.94,4.15-4.37s2.9-2.77,4.39-4.11,3-2.56,4.62-3.79,3.14-2.42,4.79-3.53a95.46,95.46,0,0,1,10.2-6,91,91,0,0,1,10.8-4.57,4.57,4.57,0,0,1,4,8.16Z"/><g class="cls-2"><ellipse class="cls-3" cx="1018.67" cy="465.12" rx="73.79" ry="89.03" transform="translate(-101.09 477.86) rotate(-25.19)"/></g><path class="cls-1" d="M1041.06,537.79c-25.26,7.15-55.69-3.12-76.77-28.52-28-33.83-28.9-81.69-1.89-106.93a55.07,55.07,0,0,1,12.41-8.76c20.65,2.55,41.63,13.95,57.72,33.33C1061,461.27,1064.06,508.78,1041.06,537.79Z"/><path class="cls-6" d="M1073.49,420.2a102.06,102.06,0,0,0-19.25-13.38,86.58,86.58,0,0,0-21.28-8c-14.57-3.35-29.76-2.4-42.42,3.32l-2.35,1.12-1.17.56-1.15.62q-2.24,1.28-4.33,2.72a51,51,0,0,0-4,3.11c-1.3,1.08-2.5,2.32-3.71,3.5a52.73,52.73,0,0,0-10.94,16.86,59.56,59.56,0,0,0-4.15,20,70.3,70.3,0,0,0,2.57,20.81,81,81,0,0,0,22.23,36.48l2,1.9c.68.6,1.39,1.17,2.09,1.76l2.09,1.76,2.2,1.61,2.19,1.64,2.3,1.48c.76.48,1.51,1,2.3,1.47l2.39,1.33a79,79,0,0,0,20.33,7.84,69,69,0,0,0,21.66,1.53c.9-.1,1.81-.15,2.71-.27l2.67-.46a45.93,45.93,0,0,0,5.33-1.14,58.35,58.35,0,0,0,28-17.12,63.51,63.51,0,0,0,12-19.62l0-.06a3.67,3.67,0,0,1,7,2,64.47,64.47,0,0,1-9.7,24.89,67.12,67.12,0,0,1-19.48,19.38,69.78,69.78,0,0,1-12.44,6.44,54.7,54.7,0,0,1-6.65,2.24l-3.4.94c-1.14.27-2.29.47-3.44.7a83.54,83.54,0,0,1-28,.57,97.71,97.71,0,0,1-49.9-23.65c-.87-.78-1.76-1.53-2.61-2.33l-2.47-2.48c-.82-.83-1.66-1.65-2.46-2.49L958,515.12a106.62,106.62,0,0,1-8.42-11.25,99.85,99.85,0,0,1-6.81-12.39,103.84,103.84,0,0,1-4.94-13.33,85.19,85.19,0,0,1-2.89-14,88.86,88.86,0,0,1-.62-14.42,80.82,80.82,0,0,1,6.44-28.42,74.15,74.15,0,0,1,16.94-24A71.23,71.23,0,0,1,982.5,382a77.26,77.26,0,0,1,28.11-4.63,34.09,34.09,0,0,1,3.51.17l3.5.28a33.57,33.57,0,0,1,3.47.44l3.43.56a92.2,92.2,0,0,1,13.32,3.64,91.25,91.25,0,0,1,42.4,31.66,4.56,4.56,0,0,1-6.68,6.12Z"/><path class="cls-1" d="M910.91,836.14c28.34,11.38,51.47,29.86,65.92,55,26.2,45.58,16.59,99.93-17.5,150.42-22.36,33.13-55.84,63.43-98,85.8-106.42,56.48-227.86,41.08-271.24-34.41-16.14-28.08-19.2-60.53-11.2-93.11,13.51-55,59.88-107.65,126.7-143.11"/><path class="cls-6" d="M981.45,888.5a111.12,111.12,0,0,1,16,35.63,124.35,124.35,0,0,1,3.24,39.45,157.82,157.82,0,0,1-8,38.65,185.73,185.73,0,0,1-7.25,18.25c-2.73,5.93-5.65,11.77-8.89,17.4a236.43,236.43,0,0,1-22,32.18,262,262,0,0,1-26.74,28.28c-2.39,2.19-4.85,4.3-7.29,6.42s-5,4.13-7.53,6.13c-5.11,4-10.29,7.86-15.63,11.51a316.21,316.21,0,0,1-33.29,19.76,296,296,0,0,1-72.79,25.91q-9.48,2-19.1,3.38c-6.41.9-12.86,1.52-19.32,2a241.47,241.47,0,0,1-38.87-.55c-6.46-.61-12.91-1.55-19.3-2.75a191.53,191.53,0,0,1-19-4.55,171.58,171.58,0,0,1-36.07-15.07,137.57,137.57,0,0,1-31.06-23.71,121.67,121.67,0,0,1-12.46-15,114.86,114.86,0,0,1-9.71-16.7,4.3,4.3,0,0,1,7.41-4.31l0,0a123.22,123.22,0,0,0,11.2,13.75,115,115,0,0,0,12.9,11.89,137,137,0,0,0,29.85,17.84c21.28,9.33,44.53,13.79,67.83,14.59a256.22,256.22,0,0,0,69.59-7.54q8.54-2.13,17-4.71c5.61-1.73,11.15-3.66,16.64-5.74s10.93-4.29,16.29-6.69,10.66-4.94,15.87-7.65a304,304,0,0,0,30.3-17.92,275,275,0,0,0,27.91-21.27A266.37,266.37,0,0,0,934,1052.77a230.37,230.37,0,0,0,21.08-27.83,203.89,203.89,0,0,0,16.34-30.68,149.71,149.71,0,0,0,9.72-33,116.47,116.47,0,0,0,.81-34.17,113.35,113.35,0,0,0-9.75-33.34l0,0a5.34,5.34,0,0,1,9.25-5.27Z"/><g class="cls-2"><ellipse class="cls-3" cx="783.31" cy="991.07" rx="165.71" ry="120.43" transform="translate(-299.93 341.16) rotate(-20.72)"/></g><ellipse class="cls-1" cx="778.9" cy="1025.33" rx="140.47" ry="88.57" transform="translate(-253.17 255.38) rotate(-16.05)"/><path class="cls-6" d="M684.31,1115.35A111.35,111.35,0,0,1,673,1111c-1.87-.8-3.69-1.74-5.54-2.64s-3.64-1.9-5.4-3a104.83,104.83,0,0,1-19.8-15.16,95.68,95.68,0,0,1-25.33-43.78,105.28,105.28,0,0,1-3.33-25.51,118.5,118.5,0,0,1,2.68-25.4,142.93,142.93,0,0,1,7.57-24.13l1.22-2.91c.4-1,.82-1.93,1.28-2.87.9-1.89,1.79-3.79,2.72-5.66l3-5.52c1-1.84,2.11-3.59,3.16-5.39s2.2-3.54,3.35-5.28,2.26-3.49,3.5-5.16,2.41-3.38,3.66-5l3.85-4.88a218.13,218.13,0,0,1,16.79-18.24,227.36,227.36,0,0,1,39.09-30c28-17,59.56-28.58,92.53-32.48a221.82,221.82,0,0,1,24.89-1.44,185.23,185.23,0,0,1,25,1.87,147.12,147.12,0,0,1,48.5,15.52,114.89,114.89,0,0,1,21.56,14.79,105.31,105.31,0,0,1,17.56,19.76,99.14,99.14,0,0,1,11.9,23.64,101.81,101.81,0,0,1,5.25,25.75,112.62,112.62,0,0,1-1.24,25.8,125.48,125.48,0,0,1-6.63,24.41,149.73,149.73,0,0,1-10.71,22.45,170.52,170.52,0,0,1-13.91,20.2,178.53,178.53,0,0,1-16.35,17.93c-2.87,2.83-5.91,5.47-8.92,8.13-1.52,1.3-3.1,2.54-4.65,3.81-.78.62-1.55,1.27-2.34,1.88l-2.41,1.8a214.63,214.63,0,0,1-19.83,13.33l-5.16,3c-1.74,1-3.5,1.86-5.25,2.79-3.46,1.91-7.11,3.48-10.66,5.19a4.29,4.29,0,0,1-4.19-7.47l.17-.11c6.4-4.13,12.77-8.24,18.74-12.88a209,209,0,0,0,17.32-14.44l2.06-1.9c.68-.64,1.33-1.31,2-2l4-4c2.56-2.72,5.14-5.39,7.54-8.23l1.83-2.1c.6-.7,1.16-1.44,1.75-2.16,1.15-1.44,2.36-2.85,3.47-4.32l3.32-4.43c1.09-1.48,2.09-3,3.14-4.53a163.8,163.8,0,0,0,11-18.89,140.79,140.79,0,0,0,8-20,111.76,111.76,0,0,0,4.32-20.6,90,90,0,0,0-.12-20.5,76.67,76.67,0,0,0-14.49-36.7A78.9,78.9,0,0,0,900.7,899a88.89,88.89,0,0,0-17-11,116,116,0,0,0-19.21-7.46A126.77,126.77,0,0,0,844,876.33a174.06,174.06,0,0,0-21.22-1.3,194.46,194.46,0,0,0-21.4,1.4C772.86,880,745,890,719.9,904.66a208.37,208.37,0,0,0-18.21,11.89,216.78,216.78,0,0,0-16.82,13.68,193.05,193.05,0,0,0-15.14,15.41,171.42,171.42,0,0,0-13.08,17,140.82,140.82,0,0,0-10.54,18.51,123.87,123.87,0,0,0-7.38,19.73,95.47,95.47,0,0,0-3.48,20.51,84.23,84.23,0,0,0,1.18,20.56,78.43,78.43,0,0,0,6.3,19.64l1.09,2.37,1.24,2.3c.4.78.84,1.53,1.3,2.27s.89,1.51,1.36,2.24c1,1.45,1.92,2.94,3,4.33s2.13,2.8,3.22,4.19A90,90,0,0,0,669.51,1094a114,114,0,0,0,18.77,11.44l.13.07a5.33,5.33,0,0,1-4.1,9.81Z"/></g></g></svg>